<mxfile host="app.diagrams.net" modified="2020-08-02T12:14:58.967Z" agent="5.0 (X11; Linux x86_64) AppleWebKit/537.36 (KHTML, like Gecko) Chrome/84.0.4147.89 Safari/537.36" etag="v_OB3LfD6wXAZttECCBC" version="13.5.8" type="github">
  <diagram name="Page-1" id="7a6c530e-6e37-e111-ec74-82921da8cc10">
    <mxGraphModel dx="1422" dy="727" grid="1" gridSize="10" guides="1" tooltips="1" connect="1" arrows="1" fold="1" page="1" pageScale="1.5" pageWidth="1169" pageHeight="826" background="#184380" math="0" shadow="0">
      <root>
        <mxCell id="0" style=";html=1;" />
        <mxCell id="1" style=";html=1;" parent="0" />
        <mxCell id="23046e2b9bb16c14-116" value="Azure Group" style="whiteSpace=wrap;html=1;rounded=1;shadow=0;strokeColor=none;strokeWidth=2;fillColor=#009BFF;fontSize=20;fontColor=#FFFFFF;align=center;arcSize=3;verticalAlign=top;spacingTop=4;" parent="1" vertex="1">
          <mxGeometry x="30" y="10" width="1437" height="757" as="geometry" />
        </mxCell>
        <mxCell id="23046e2b9bb16c14-64" value="Web role instances" style="rounded=1;whiteSpace=wrap;html=1;shadow=0;strokeWidth=2;fillColor=#0072BC;fontSize=12;fontColor=#FFFFFF;align=center;strokeColor=none;arcSize=3;verticalAlign=top;" parent="1" vertex="1">
          <mxGeometry x="1286" y="291" width="150" height="420" as="geometry" />
        </mxCell>
        <mxCell id="23046e2b9bb16c14-27" value="" style="rounded=1;whiteSpace=wrap;html=1;shadow=0;strokeWidth=2;fillColor=#8BC63E;fontSize=12;fontColor=#000000;align=center;strokeColor=none;arcSize=3;" parent="1" vertex="1">
          <mxGeometry x="726" y="291" width="530" height="420" as="geometry" />
        </mxCell>
        <mxCell id="23046e2b9bb16c14-2" value="" style="rounded=1;whiteSpace=wrap;html=1;shadow=0;strokeWidth=2;fillColor=none;fontSize=12;fontColor=#000000;align=center;strokeColor=#FFFFFF;arcSize=10;" parent="1" vertex="1">
          <mxGeometry x="876" y="420" width="160" height="241" as="geometry" />
        </mxCell>
        <mxCell id="23046e2b9bb16c14-54" value="Availability set" style="rounded=1;whiteSpace=wrap;html=1;shadow=0;strokeWidth=2;fillColor=none;fontSize=11;fontColor=#FFFFFF;align=center;strokeColor=#FFFFFF;dashed=1;verticalAlign=top;" parent="1" vertex="1">
          <mxGeometry x="956" y="441" width="70" height="211" as="geometry" />
        </mxCell>
        <mxCell id="23046e2b9bb16c14-28" value="On-premises networks" style="rounded=1;whiteSpace=wrap;html=1;shadow=0;strokeWidth=2;fillColor=#F04D22;fontSize=12;fontColor=#FFFFFF;align=center;strokeColor=none;arcSize=6;verticalAlign=top;" parent="1" vertex="1">
          <mxGeometry x="310" y="380" width="386" height="328" as="geometry" />
        </mxCell>
        <mxCell id="23046e2b9bb16c14-49" value="" style="rounded=1;whiteSpace=wrap;html=1;shadow=0;strokeWidth=2;fillColor=none;fontSize=12;fontColor=#000000;align=center;strokeColor=#FFFFFF;" parent="1" vertex="1">
          <mxGeometry x="500" y="410" width="70" height="218" as="geometry" />
        </mxCell>
        <mxCell id="23046e2b9bb16c14-1" value="" style="rounded=1;whiteSpace=wrap;html=1;shadow=0;strokeWidth=2;fillColor=none;fontSize=12;fontColor=#000000;align=center;strokeColor=#FFFFFF;" parent="1" vertex="1">
          <mxGeometry x="746" y="420" width="110" height="221" as="geometry" />
        </mxCell>
        <mxCell id="23046e2b9bb16c14-73" style="html=1;startArrow=none;startFill=0;startSize=10;endArrow=none;endFill=0;endSize=10;strokeWidth=3;fontSize=11;fontColor=#FFFFFF;strokeColor=#FFFFFF;rounded=0;" parent="1" source="24964f25f45c63f1-5" target="23046e2b9bb16c14-7" edge="1">
          <mxGeometry relative="1" as="geometry" />
        </mxCell>
        <mxCell id="24964f25f45c63f1-5" value="Gateway" style="shadow=0;dashed=0;html=1;strokeColor=none;shape=mxgraph.mscae.enterprise.gateway;fillColor=#FFFFFF;rounded=0;fontSize=12;fontColor=#FFFFFF;align=center;labelPosition=center;verticalLabelPosition=top;verticalAlign=bottom;" parent="1" vertex="1">
          <mxGeometry x="773" y="541" width="50" height="50" as="geometry" />
        </mxCell>
        <mxCell id="24964f25f45c63f1-6" value="" style="shadow=0;dashed=0;html=1;strokeColor=none;shape=mxgraph.mscae.enterprise.lock;fillColor=#FFFFFF;rounded=0;fontSize=12;fontColor=#000000;align=center;" parent="1" vertex="1">
          <mxGeometry x="896" y="436" width="39" height="50" as="geometry" />
        </mxCell>
        <mxCell id="23046e2b9bb16c14-7" value="" style="shadow=0;dashed=0;html=1;strokeColor=none;labelPosition=center;verticalLabelPosition=bottom;verticalAlign=top;shape=mxgraph.mscae.cloud.azure_load_balancer_feature;fillColor=#FFFFFF;rounded=1;fontSize=12;fontColor=#000000;align=center;" parent="1" vertex="1">
          <mxGeometry x="891" y="541" width="50" height="50" as="geometry" />
        </mxCell>
        <mxCell id="23046e2b9bb16c14-75" style="html=1;startArrow=none;startFill=0;startSize=10;endArrow=none;endFill=0;endSize=10;strokeWidth=3;fontSize=11;fontColor=#FFFFFF;entryX=0.793;entryY=0.26;entryPerimeter=0;strokeColor=#FFFFFF;rounded=0;" parent="1" source="23046e2b9bb16c14-29" target="23046e2b9bb16c14-7" edge="1">
          <mxGeometry relative="1" as="geometry" />
        </mxCell>
        <mxCell id="23046e2b9bb16c14-29" value="" style="verticalLabelPosition=bottom;html=1;verticalAlign=top;strokeColor=none;fillColor=#FFFFFF;shape=mxgraph.azure.virtual_machine;rounded=1;shadow=0;fontSize=12;fontColor=#000000;align=center;" parent="1" vertex="1">
          <mxGeometry x="966" y="493" width="50" height="40" as="geometry" />
        </mxCell>
        <mxCell id="23046e2b9bb16c14-76" style="html=1;entryX=1.016;entryY=0.509;entryPerimeter=0;startArrow=none;startFill=0;startSize=10;endArrow=none;endFill=0;endSize=10;strokeWidth=3;fontSize=11;fontColor=#FFFFFF;strokeColor=#FFFFFF;rounded=0;" parent="1" source="23046e2b9bb16c14-30" target="23046e2b9bb16c14-7" edge="1">
          <mxGeometry relative="1" as="geometry" />
        </mxCell>
        <mxCell id="23046e2b9bb16c14-30" value="" style="verticalLabelPosition=bottom;html=1;verticalAlign=top;strokeColor=none;fillColor=#FFFFFF;shape=mxgraph.azure.virtual_machine;rounded=1;shadow=0;fontSize=12;fontColor=#000000;align=center;" parent="1" vertex="1">
          <mxGeometry x="966" y="546" width="50" height="40" as="geometry" />
        </mxCell>
        <mxCell id="23046e2b9bb16c14-77" style="html=1;entryX=0.802;entryY=0.762;entryPerimeter=0;startArrow=none;startFill=0;startSize=10;endArrow=none;endFill=0;endSize=10;strokeWidth=3;fontSize=11;fontColor=#FFFFFF;strokeColor=#FFFFFF;rounded=0;" parent="1" source="23046e2b9bb16c14-31" target="23046e2b9bb16c14-7" edge="1">
          <mxGeometry relative="1" as="geometry" />
        </mxCell>
        <mxCell id="23046e2b9bb16c14-31" value="" style="verticalLabelPosition=bottom;html=1;verticalAlign=top;strokeColor=none;fillColor=#FFFFFF;shape=mxgraph.azure.virtual_machine;rounded=1;shadow=0;fontSize=12;fontColor=#000000;align=center;" parent="1" vertex="1">
          <mxGeometry x="966" y="598" width="50" height="40" as="geometry" />
        </mxCell>
        <mxCell id="23046e2b9bb16c14-48" value="Azure Vnet" style="shadow=0;dashed=0;html=1;strokeColor=none;fillColor=#FFFFFF;labelPosition=center;verticalLabelPosition=bottom;verticalAlign=top;shape=mxgraph.office.clouds.azure;rounded=1;fontSize=12;fontColor=#FFFFFF;align=center;" parent="1" vertex="1">
          <mxGeometry x="756" y="311" width="83" height="53" as="geometry" />
        </mxCell>
        <mxCell id="23046e2b9bb16c14-50" value="" style="rounded=1;whiteSpace=wrap;html=1;shadow=0;strokeWidth=2;fillColor=none;fontSize=12;fontColor=#000000;align=center;strokeColor=#FFFFFF;" parent="1" vertex="1">
          <mxGeometry x="610" y="409" width="66" height="218" as="geometry" />
        </mxCell>
        <mxCell id="23046e2b9bb16c14-71" style="edgeStyle=orthogonalEdgeStyle;html=1;startArrow=none;startFill=0;startSize=10;endArrow=none;endFill=0;endSize=10;strokeWidth=3;fontSize=11;fontColor=#FFFFFF;strokeColor=#FFFFFF;dashed=1;rounded=0;" parent="1" source="24964f25f45c63f1-4" target="24964f25f45c63f1-5" edge="1">
          <mxGeometry relative="1" as="geometry">
            <Array as="points">
              <mxPoint x="581" y="730" />
              <mxPoint x="798" y="730" />
            </Array>
          </mxGeometry>
        </mxCell>
        <mxCell id="24964f25f45c63f1-4" value="Gateway" style="shadow=0;dashed=0;html=1;strokeColor=none;shape=mxgraph.mscae.enterprise.gateway;fillColor=#FFFFFF;rounded=0;fontSize=12;fontColor=#FFFFFF;align=center;labelPosition=center;verticalLabelPosition=top;verticalAlign=bottom;" parent="1" vertex="1">
          <mxGeometry x="556" y="648" width="50" height="50" as="geometry" />
        </mxCell>
        <mxCell id="23046e2b9bb16c14-55" value="" style="rounded=1;whiteSpace=wrap;html=1;shadow=0;strokeWidth=2;fillColor=none;fontSize=12;fontColor=#000000;align=center;strokeColor=#FFFFFF;arcSize=9;" parent="1" vertex="1">
          <mxGeometry x="1071" y="420" width="160" height="241" as="geometry" />
        </mxCell>
        <mxCell id="23046e2b9bb16c14-56" value="&lt;span&gt;Availability set&lt;/span&gt;" style="rounded=1;whiteSpace=wrap;html=1;shadow=0;strokeWidth=2;fillColor=none;fontSize=11;fontColor=#FFFFFF;align=center;strokeColor=#FFFFFF;dashed=1;verticalAlign=top;" parent="1" vertex="1">
          <mxGeometry x="1151" y="441" width="70" height="211" as="geometry" />
        </mxCell>
        <mxCell id="23046e2b9bb16c14-57" value="" style="shadow=0;dashed=0;html=1;strokeColor=none;shape=mxgraph.mscae.enterprise.lock;fillColor=#FFFFFF;rounded=0;fontSize=12;fontColor=#000000;align=center;" parent="1" vertex="1">
          <mxGeometry x="1091" y="436" width="39" height="50" as="geometry" />
        </mxCell>
        <mxCell id="23046e2b9bb16c14-74" style="html=1;startArrow=none;startFill=0;startSize=10;endArrow=none;endFill=0;endSize=10;strokeWidth=3;fontSize=11;fontColor=#FFFFFF;strokeColor=#FFFFFF;rounded=0;edgeStyle=elbowEdgeStyle;elbow=vertical;" parent="1" source="23046e2b9bb16c14-58" target="23046e2b9bb16c14-2" edge="1">
          <mxGeometry relative="1" as="geometry" />
        </mxCell>
        <mxCell id="23046e2b9bb16c14-78" style="edgeStyle=orthogonalEdgeStyle;html=1;startArrow=none;startFill=0;startSize=10;endArrow=none;endFill=0;endSize=10;strokeWidth=3;fontSize=11;fontColor=#FFFFFF;strokeColor=#FFFFFF;rounded=0;" parent="1" source="23046e2b9bb16c14-58" target="23046e2b9bb16c14-60" edge="1">
          <mxGeometry relative="1" as="geometry" />
        </mxCell>
        <mxCell id="23046e2b9bb16c14-79" style="html=1;startArrow=none;startFill=0;startSize=10;endArrow=none;endFill=0;endSize=10;strokeWidth=3;fontSize=11;fontColor=#FFFFFF;strokeColor=#FFFFFF;rounded=0;exitX=0.796;exitY=0.241;exitPerimeter=0;" parent="1" source="23046e2b9bb16c14-58" target="23046e2b9bb16c14-59" edge="1">
          <mxGeometry relative="1" as="geometry" />
        </mxCell>
        <mxCell id="23046e2b9bb16c14-80" style="html=1;startArrow=none;startFill=0;startSize=10;endArrow=none;endFill=0;endSize=10;strokeWidth=3;fontSize=11;fontColor=#FFFFFF;strokeColor=#FFFFFF;rounded=0;exitX=0.789;exitY=0.767;exitPerimeter=0;" parent="1" source="23046e2b9bb16c14-58" target="23046e2b9bb16c14-61" edge="1">
          <mxGeometry relative="1" as="geometry" />
        </mxCell>
        <mxCell id="23046e2b9bb16c14-58" value="" style="shadow=0;dashed=0;html=1;strokeColor=none;labelPosition=center;verticalLabelPosition=bottom;verticalAlign=top;shape=mxgraph.mscae.cloud.azure_load_balancer_feature;fillColor=#FFFFFF;rounded=1;fontSize=12;fontColor=#000000;align=center;" parent="1" vertex="1">
          <mxGeometry x="1086" y="541" width="50" height="50" as="geometry" />
        </mxCell>
        <mxCell id="23046e2b9bb16c14-59" value="" style="verticalLabelPosition=bottom;html=1;verticalAlign=top;strokeColor=none;fillColor=#FFFFFF;shape=mxgraph.azure.virtual_machine;rounded=1;shadow=0;fontSize=12;fontColor=#000000;align=center;" parent="1" vertex="1">
          <mxGeometry x="1161" y="493" width="50" height="40" as="geometry" />
        </mxCell>
        <mxCell id="23046e2b9bb16c14-60" value="" style="verticalLabelPosition=bottom;html=1;verticalAlign=top;strokeColor=none;fillColor=#FFFFFF;shape=mxgraph.azure.virtual_machine;rounded=1;shadow=0;fontSize=12;fontColor=#000000;align=center;" parent="1" vertex="1">
          <mxGeometry x="1161" y="546" width="50" height="40" as="geometry" />
        </mxCell>
        <mxCell id="23046e2b9bb16c14-61" value="" style="verticalLabelPosition=bottom;html=1;verticalAlign=top;strokeColor=none;fillColor=#FFFFFF;shape=mxgraph.azure.virtual_machine;rounded=1;shadow=0;fontSize=12;fontColor=#000000;align=center;" parent="1" vertex="1">
          <mxGeometry x="1161" y="598" width="50" height="40" as="geometry" />
        </mxCell>
        <mxCell id="23046e2b9bb16c14-70" style="edgeStyle=orthogonalEdgeStyle;html=1;startArrow=none;startFill=0;startSize=10;endArrow=none;endFill=0;endSize=10;strokeWidth=3;fontSize=11;fontColor=#FFFFFF;strokeColor=#FFFFFF;dashed=1;rounded=0;" parent="1" source="24964f25f45c63f1-4" target="23046e2b9bb16c14-68" edge="1">
          <mxGeometry relative="1" as="geometry">
            <mxPoint x="606" y="730" as="sourcePoint" />
            <Array as="points">
              <mxPoint x="581" y="730" />
              <mxPoint x="1361" y="730" />
            </Array>
          </mxGeometry>
        </mxCell>
        <mxCell id="23046e2b9bb16c14-65" value="" style="shadow=0;dashed=0;html=1;strokeColor=none;shape=mxgraph.mscae.enterprise.web;fillColor=#FFFFFF;rounded=1;fontSize=11;fontColor=#FFFFFF;align=center;" parent="1" vertex="1">
          <mxGeometry x="1336" y="531" width="50" height="50" as="geometry" />
        </mxCell>
        <mxCell id="23046e2b9bb16c14-66" value="" style="shadow=0;dashed=0;html=1;strokeColor=none;shape=mxgraph.mscae.enterprise.web;fillColor=#FFFFFF;rounded=1;fontSize=11;fontColor=#FFFFFF;align=center;" parent="1" vertex="1">
          <mxGeometry x="1336" y="450" width="50" height="50" as="geometry" />
        </mxCell>
        <mxCell id="23046e2b9bb16c14-67" value="" style="shadow=0;dashed=0;html=1;strokeColor=none;shape=mxgraph.mscae.enterprise.web;fillColor=#FFFFFF;rounded=1;fontSize=11;fontColor=#FFFFFF;align=center;" parent="1" vertex="1">
          <mxGeometry x="1336" y="370" width="50" height="50" as="geometry" />
        </mxCell>
        <mxCell id="23046e2b9bb16c14-117" style="edgeStyle=orthogonalEdgeStyle;rounded=0;elbow=vertical;html=1;startArrow=none;startFill=0;startSize=10;endArrow=none;endFill=0;endSize=10;strokeColor=#FFFFFF;strokeWidth=3;fontSize=20;fontColor=#FFFFFF;entryX=0.004;entryY=0.516;entryPerimeter=0;" parent="1" source="23046e2b9bb16c14-68" target="23046e2b9bb16c14-65" edge="1">
          <mxGeometry relative="1" as="geometry">
            <mxPoint x="1520" y="590" as="targetPoint" />
            <Array as="points">
              <mxPoint x="1326" y="673" />
              <mxPoint x="1326" y="557" />
            </Array>
          </mxGeometry>
        </mxCell>
        <mxCell id="23046e2b9bb16c14-119" style="edgeStyle=orthogonalEdgeStyle;rounded=0;elbow=vertical;html=1;entryX=-0.002;entryY=0.494;entryPerimeter=0;startArrow=none;startFill=0;startSize=10;endArrow=none;endFill=0;endSize=10;strokeColor=#FFFFFF;strokeWidth=3;fontSize=20;fontColor=#FFFFFF;" parent="1" source="23046e2b9bb16c14-68" target="23046e2b9bb16c14-67" edge="1">
          <mxGeometry relative="1" as="geometry">
            <Array as="points">
              <mxPoint x="1326" y="673" />
              <mxPoint x="1326" y="395" />
            </Array>
          </mxGeometry>
        </mxCell>
        <mxCell id="23046e2b9bb16c14-68" value="Gateway" style="shadow=0;dashed=0;html=1;strokeColor=none;shape=mxgraph.mscae.enterprise.gateway;fillColor=#FFFFFF;rounded=0;fontSize=12;fontColor=#FFFFFF;align=center;labelPosition=center;verticalLabelPosition=top;verticalAlign=bottom;" parent="1" vertex="1">
          <mxGeometry x="1336" y="648" width="50" height="50" as="geometry" />
        </mxCell>
        <mxCell id="23046e2b9bb16c14-81" value="A" style="text;html=1;strokeColor=none;fillColor=none;align=center;verticalAlign=middle;whiteSpace=wrap;rounded=1;shadow=0;fontSize=11;fontColor=#FFFFFF;fontStyle=1" parent="1" vertex="1">
          <mxGeometry x="666" y="678" width="20" height="20" as="geometry" />
        </mxCell>
        <mxCell id="23046e2b9bb16c14-82" value="B" style="text;html=1;strokeColor=none;fillColor=none;align=center;verticalAlign=middle;whiteSpace=wrap;rounded=1;shadow=0;fontSize=11;fontColor=#FFFFFF;fontStyle=1" parent="1" vertex="1">
          <mxGeometry x="1226" y="678" width="20" height="20" as="geometry" />
        </mxCell>
        <mxCell id="23046e2b9bb16c14-83" value="C" style="text;html=1;strokeColor=none;fillColor=none;align=center;verticalAlign=middle;whiteSpace=wrap;rounded=1;shadow=0;fontSize=11;fontColor=#FFFFFF;fontStyle=1" parent="1" vertex="1">
          <mxGeometry x="1406" y="680" width="20" height="20" as="geometry" />
        </mxCell>
        <mxCell id="23046e2b9bb16c14-84" value="" style="rounded=0;whiteSpace=wrap;html=1;shadow=0;strokeWidth=2;fillColor=#F04D22;fontSize=12;fontColor=#FFFFFF;align=center;strokeColor=none;arcSize=6;verticalAlign=top;" parent="1" vertex="1">
          <mxGeometry x="326" y="820" width="300" height="102" as="geometry" />
        </mxCell>
        <mxCell id="23046e2b9bb16c14-85" value="" style="rounded=0;whiteSpace=wrap;html=1;shadow=0;strokeWidth=2;fillColor=#8BC63E;fontSize=12;fontColor=#FFFFFF;align=center;strokeColor=none;arcSize=6;verticalAlign=top;" parent="1" vertex="1">
          <mxGeometry x="626" y="820" width="400" height="102" as="geometry" />
        </mxCell>
        <mxCell id="23046e2b9bb16c14-86" value="" style="rounded=0;whiteSpace=wrap;html=1;shadow=0;strokeWidth=2;fillColor=#0072BC;fontSize=12;fontColor=#FFFFFF;align=center;strokeColor=none;arcSize=3;verticalAlign=top;" parent="1" vertex="1">
          <mxGeometry x="1026" y="820" width="390" height="102" as="geometry" />
        </mxCell>
        <mxCell id="23046e2b9bb16c14-87" value="A" style="text;html=1;strokeColor=none;fillColor=none;align=center;verticalAlign=middle;whiteSpace=wrap;rounded=1;shadow=0;fontSize=30;fontColor=#FFFFFF;fontStyle=1" parent="1" vertex="1">
          <mxGeometry x="326" y="853" width="40" height="35" as="geometry" />
        </mxCell>
        <mxCell id="23046e2b9bb16c14-88" value="B" style="text;html=1;strokeColor=none;fillColor=none;align=center;verticalAlign=middle;whiteSpace=wrap;rounded=1;shadow=0;fontSize=30;fontColor=#FFFFFF;fontStyle=1" parent="1" vertex="1">
          <mxGeometry x="626" y="853" width="40" height="35" as="geometry" />
        </mxCell>
        <mxCell id="23046e2b9bb16c14-89" value="C" style="text;html=1;strokeColor=none;fillColor=none;align=center;verticalAlign=middle;whiteSpace=wrap;rounded=1;shadow=0;fontSize=30;fontColor=#FFFFFF;fontStyle=1" parent="1" vertex="1">
          <mxGeometry x="1026" y="853" width="40" height="35" as="geometry" />
        </mxCell>
        <mxCell id="23046e2b9bb16c14-90" value="Computer" style="verticalLabelPosition=top;html=1;verticalAlign=bottom;strokeColor=none;fillColor=#FFFFFF;shape=mxgraph.azure.computer;rounded=0;shadow=0;fontSize=10;fontColor=#FFFFFF;align=center;labelPosition=center;" parent="1" vertex="1">
          <mxGeometry x="393" y="860" width="50" height="45" as="geometry" />
        </mxCell>
        <mxCell id="23046e2b9bb16c14-91" value="VHD" style="shadow=0;html=1;strokeColor=none;fillColor=#FFFFFF;labelPosition=center;verticalLabelPosition=top;verticalAlign=bottom;shape=mxgraph.azure.vhd;rounded=0;fontSize=10;fontColor=#FFFFFF;align=center;" parent="1" vertex="1">
          <mxGeometry x="483" y="857" width="40" height="50" as="geometry" />
        </mxCell>
        <mxCell id="23046e2b9bb16c14-92" value="+" style="text;html=1;strokeColor=none;fillColor=none;align=center;verticalAlign=middle;whiteSpace=wrap;rounded=1;shadow=0;fontSize=30;fontColor=#FFFFFF;fontStyle=1" parent="1" vertex="1">
          <mxGeometry x="443" y="865" width="40" height="35" as="geometry" />
        </mxCell>
        <mxCell id="23046e2b9bb16c14-93" value="+" style="text;html=1;strokeColor=none;fillColor=none;align=center;verticalAlign=middle;whiteSpace=wrap;rounded=1;shadow=0;fontSize=30;fontColor=#FFFFFF;fontStyle=1" parent="1" vertex="1">
          <mxGeometry x="523" y="865" width="40" height="35" as="geometry" />
        </mxCell>
        <mxCell id="23046e2b9bb16c14-94" value="Server&lt;div&gt;Directory&lt;/div&gt;" style="shadow=0;html=1;strokeColor=none;shape=mxgraph.mscae.enterprise.server_directory;fillColor=#FFFFFF;rounded=0;fontSize=10;fontColor=#FFFFFF;align=center;verticalAlign=bottom;labelPosition=center;verticalLabelPosition=top;" parent="1" vertex="1">
          <mxGeometry x="563" y="858" width="36" height="50" as="geometry" />
        </mxCell>
        <mxCell id="23046e2b9bb16c14-95" value="VM Feature" style="shadow=0;html=1;strokeColor=none;fillColor=#FFFFFF;labelPosition=center;verticalLabelPosition=top;verticalAlign=bottom;shape=mxgraph.azure.virtual_machine_feature;rounded=0;fontSize=10;fontColor=#FFFFFF;align=center;" parent="1" vertex="1">
          <mxGeometry x="684" y="861" width="50" height="45" as="geometry" />
        </mxCell>
        <mxCell id="23046e2b9bb16c14-96" value="+" style="text;html=1;strokeColor=none;fillColor=none;align=center;verticalAlign=middle;whiteSpace=wrap;rounded=1;shadow=0;fontSize=30;fontColor=#FFFFFF;fontStyle=1" parent="1" vertex="1">
          <mxGeometry x="734" y="866" width="40" height="35" as="geometry" />
        </mxCell>
        <mxCell id="23046e2b9bb16c14-97" value="VHD" style="shadow=0;html=1;strokeColor=none;fillColor=#FFFFFF;labelPosition=center;verticalLabelPosition=top;verticalAlign=bottom;shape=mxgraph.azure.vhd;rounded=0;fontSize=10;fontColor=#FFFFFF;align=center;" parent="1" vertex="1">
          <mxGeometry x="774" y="858" width="40" height="50" as="geometry" />
        </mxCell>
        <mxCell id="23046e2b9bb16c14-98" value="3rd Party&lt;div&gt;Integration&lt;/div&gt;" style="shadow=0;html=1;strokeColor=none;fillColor=#FFFFFF;labelPosition=center;verticalLabelPosition=top;verticalAlign=bottom;shape=mxgraph.office.communications.3rd_party_integration;rounded=0;fontSize=10;fontColor=#FFFFFF;align=center;" parent="1" vertex="1">
          <mxGeometry x="854" y="856" width="54" height="55" as="geometry" />
        </mxCell>
        <mxCell id="23046e2b9bb16c14-99" value="+" style="text;html=1;strokeColor=none;fillColor=none;align=center;verticalAlign=middle;whiteSpace=wrap;rounded=1;shadow=0;fontSize=30;fontColor=#FFFFFF;fontStyle=1" parent="1" vertex="1">
          <mxGeometry x="814" y="866" width="40" height="35" as="geometry" />
        </mxCell>
        <mxCell id="23046e2b9bb16c14-100" value="+" style="text;html=1;strokeColor=none;fillColor=none;align=center;verticalAlign=middle;whiteSpace=wrap;rounded=1;shadow=0;fontSize=30;fontColor=#FFFFFF;fontStyle=1" parent="1" vertex="1">
          <mxGeometry x="908" y="866" width="40" height="35" as="geometry" />
        </mxCell>
        <mxCell id="23046e2b9bb16c14-101" value="Data Migration&lt;div&gt;Wizard&lt;/div&gt;" style="shadow=0;html=1;strokeColor=none;shape=mxgraph.mscae.intune.data_migration_wizard;fillColor=#FFFFFF;rounded=0;fontSize=10;fontColor=#FFFFFF;align=center;verticalAlign=bottom;labelPosition=center;verticalLabelPosition=top;" parent="1" vertex="1">
          <mxGeometry x="948" y="859" width="50" height="48" as="geometry" />
        </mxCell>
        <mxCell id="23046e2b9bb16c14-102" value="VM Feature" style="shadow=0;html=1;strokeColor=none;fillColor=#FFFFFF;labelPosition=center;verticalLabelPosition=top;verticalAlign=bottom;shape=mxgraph.azure.virtual_machine_feature;rounded=0;fontSize=10;fontColor=#FFFFFF;align=center;" parent="1" vertex="1">
          <mxGeometry x="1086" y="861" width="50" height="45" as="geometry" />
        </mxCell>
        <mxCell id="23046e2b9bb16c14-103" value="" style="line;strokeWidth=2;direction=south;html=1;rounded=0;shadow=0;fillColor=none;fontSize=30;fontColor=#FFFFFF;align=center;strokeColor=#FFFFFF;" parent="1" vertex="1">
          <mxGeometry x="366" y="820" width="10" height="102" as="geometry" />
        </mxCell>
        <mxCell id="23046e2b9bb16c14-104" value="" style="line;strokeWidth=2;direction=south;html=1;rounded=0;shadow=0;fillColor=none;fontSize=30;fontColor=#FFFFFF;align=center;strokeColor=#FFFFFF;" parent="1" vertex="1">
          <mxGeometry x="666" y="820" width="10" height="102" as="geometry" />
        </mxCell>
        <mxCell id="23046e2b9bb16c14-105" value="" style="line;strokeWidth=2;direction=south;html=1;rounded=0;shadow=0;fillColor=none;fontSize=30;fontColor=#FFFFFF;align=center;strokeColor=#FFFFFF;" parent="1" vertex="1">
          <mxGeometry x="1066" y="820" width="10" height="102" as="geometry" />
        </mxCell>
        <mxCell id="23046e2b9bb16c14-106" value="+" style="text;html=1;strokeColor=none;fillColor=none;align=center;verticalAlign=middle;whiteSpace=wrap;rounded=1;shadow=0;fontSize=30;fontColor=#FFFFFF;fontStyle=1" parent="1" vertex="1">
          <mxGeometry x="1136" y="866" width="40" height="35" as="geometry" />
        </mxCell>
        <mxCell id="23046e2b9bb16c14-107" value="Azure&lt;div&gt;Website&lt;/div&gt;" style="verticalLabelPosition=top;html=1;verticalAlign=bottom;strokeColor=none;fillColor=#FFFFFF;shape=mxgraph.azure.azure_website;rounded=0;shadow=0;fontSize=10;fontColor=#FFFFFF;align=center;labelPosition=center;" parent="1" vertex="1">
          <mxGeometry x="1176" y="858" width="50" height="50" as="geometry" />
        </mxCell>
        <mxCell id="23046e2b9bb16c14-108" value="+" style="text;html=1;strokeColor=none;fillColor=none;align=center;verticalAlign=middle;whiteSpace=wrap;rounded=1;shadow=0;fontSize=30;fontColor=#FFFFFF;fontStyle=1" parent="1" vertex="1">
          <mxGeometry x="1226" y="866" width="40" height="35" as="geometry" />
        </mxCell>
        <mxCell id="23046e2b9bb16c14-109" value="MySQL&lt;div&gt;Database&lt;/div&gt;" style="verticalLabelPosition=top;html=1;verticalAlign=bottom;strokeColor=none;fillColor=#FFFFFF;shape=mxgraph.azure.mysql_database;rounded=0;shadow=0;fontSize=10;fontColor=#FFFFFF;align=center;labelPosition=center;" parent="1" vertex="1">
          <mxGeometry x="1266" y="859" width="37.5" height="50" as="geometry" />
        </mxCell>
        <mxCell id="23046e2b9bb16c14-110" value="+" style="text;html=1;strokeColor=none;fillColor=none;align=center;verticalAlign=middle;whiteSpace=wrap;rounded=1;shadow=0;fontSize=30;fontColor=#FFFFFF;fontStyle=1" parent="1" vertex="1">
          <mxGeometry x="1304" y="866" width="40" height="35" as="geometry" />
        </mxCell>
        <mxCell id="23046e2b9bb16c14-111" value="Azure&lt;div&gt;Storage&lt;/div&gt;" style="shadow=0;html=1;strokeColor=none;labelPosition=center;verticalLabelPosition=top;verticalAlign=bottom;shape=mxgraph.mscae.cloud.azure_storage;fillColor=#FFFFFF;rounded=0;fontSize=10;fontColor=#FFFFFF;align=center;" parent="1" vertex="1">
          <mxGeometry x="1344" y="862" width="50" height="43" as="geometry" />
        </mxCell>
        <mxCell id="23046e2b9bb16c14-113" value="Title" style="text;strokeColor=none;fillColor=none;html=1;fontSize=24;fontStyle=1;verticalAlign=middle;align=center;rounded=0;shadow=0;fontColor=#FFFFFF;" parent="1" vertex="1">
          <mxGeometry x="120" y="40" width="1510" height="40" as="geometry" />
        </mxCell>
        <mxCell id="23046e2b9bb16c14-114" value="Subtitle" style="text;html=1;strokeColor=none;fillColor=none;align=center;verticalAlign=middle;whiteSpace=wrap;rounded=0;shadow=0;fontSize=10;fontColor=#009BFF;" parent="1" vertex="1">
          <mxGeometry x="114" y="90" width="1526" height="20" as="geometry" />
        </mxCell>
        <mxCell id="23046e2b9bb16c14-115" value="&lt;h1&gt;Heading&lt;/h1&gt;&lt;p&gt;Lorem ipsum dolor sit amet, consectetur adipisicing elit, sed do eiusmod tempor incididunt ut labore et dolore magna aliqua.&lt;/p&gt;" style="text;html=1;strokeColor=none;fillColor=none;spacing=5;spacingTop=-20;whiteSpace=wrap;overflow=hidden;rounded=0;shadow=0;fontSize=10;fontColor=#FFFFFF;align=left;" parent="1" vertex="1">
          <mxGeometry x="323" y="952" width="1041" height="70" as="geometry" />
        </mxCell>
        <mxCell id="23046e2b9bb16c14-118" style="edgeStyle=orthogonalEdgeStyle;rounded=0;elbow=vertical;html=1;startArrow=none;startFill=0;startSize=10;endArrow=none;endFill=0;endSize=10;strokeColor=#FFFFFF;strokeWidth=3;fontSize=20;fontColor=#FFFFFF;entryX=-0.009;entryY=0.502;entryPerimeter=0;" parent="1" source="23046e2b9bb16c14-68" target="23046e2b9bb16c14-66" edge="1">
          <mxGeometry relative="1" as="geometry">
            <mxPoint x="1346.3333333333333" y="566.6666666666666" as="targetPoint" />
            <mxPoint x="1371" y="658" as="sourcePoint" />
            <Array as="points">
              <mxPoint x="1326" y="673" />
              <mxPoint x="1326" y="475" />
            </Array>
          </mxGeometry>
        </mxCell>
        <mxCell id="bEVf-RL3vcpq9Qt6OURH-7" value="" style="shape=image;verticalLabelPosition=bottom;labelBackgroundColor=#ffffff;verticalAlign=top;aspect=fixed;imageAspect=0;image=data:image/svg+xml,PHN2ZyB4bWxuczpjYz0iaHR0cDovL2NyZWF0aXZlY29tbW9ucy5vcmcvbnMjIiB4bWxuczpkYz0iaHR0cDovL3B1cmwub3JnL2RjL2VsZW1lbnRzLzEuMS8iIHhtbG5zOmlua3NjYXBlPSJodHRwOi8vd3d3Lmlua3NjYXBlLm9yZy9uYW1lc3BhY2VzL2lua3NjYXBlIiB4bWxuczpyZGY9Imh0dHA6Ly93d3cudzMub3JnLzE5OTkvMDIvMjItcmRmLXN5bnRheC1ucyMiIHhtbG5zOnNvZGlwb2RpPSJodHRwOi8vc29kaXBvZGkuc291cmNlZm9yZ2UubmV0L0RURC9zb2RpcG9kaS0wLmR0ZCIgeG1sbnM6c3ZnPSJodHRwOi8vd3d3LnczLm9yZy8yMDAwL3N2ZyIgeG1sbnM9Imh0dHA6Ly93d3cudzMub3JnLzIwMDAvc3ZnIiB4bWxuczp4bGluaz0iaHR0cDovL3d3dy53My5vcmcvMTk5OS94bGluayIgdmVyc2lvbj0iMS4xIiBpZD0ic3ZnMTc1ODMxIiBpbmtzY2FwZTp2ZXJzaW9uPSIwLjkyLjMgKDI0MDU1NDYsIDIwMTgtMDMtMTEpIiBzb2RpcG9kaTpkb2NuYW1lPSJodG1sNS5zdmciIHg9IjBweCIgeT0iMHB4IiB2aWV3Qm94PSIwIDAgMjYuNDEgMzcuMjgiIHN0eWxlPSJlbmFibGUtYmFja2dyb3VuZDpuZXcgMCAwIDI2LjQxIDM3LjI4OyIgeG1sOnNwYWNlPSJwcmVzZXJ2ZSI+JiN4YTs8c29kaXBvZGk6bmFtZWR2aWV3IGJvcmRlcmNvbG9yPSIjNjY2NjY2IiBib3JkZXJvcGFjaXR5PSIxIiBmaXQtbWFyZ2luLWJvdHRvbT0iMCIgZml0LW1hcmdpbi1sZWZ0PSIwIiBmaXQtbWFyZ2luLXJpZ2h0PSIwIiBmaXQtbWFyZ2luLXRvcD0iMCIgZ3JpZHRvbGVyYW5jZT0iMTAiIGd1aWRldG9sZXJhbmNlPSIxMCIgaWQ9Im5hbWVkdmlldzE3NTgzMyIgaW5rc2NhcGU6Y3VycmVudC1sYXllcj0ic3ZnMTc1ODMxIiBpbmtzY2FwZTpjeD0iMTcuNjA4MTM0IiBpbmtzY2FwZTpjeT0iMjQuODUyNjY3IiBpbmtzY2FwZTpwYWdlb3BhY2l0eT0iMCIgaW5rc2NhcGU6cGFnZXNoYWRvdz0iMiIgaW5rc2NhcGU6d2luZG93LWhlaWdodD0iMTAxNyIgaW5rc2NhcGU6d2luZG93LW1heGltaXplZD0iMSIgaW5rc2NhcGU6d2luZG93LXdpZHRoPSIxOTIwIiBpbmtzY2FwZTp3aW5kb3cteD0iLTgiIGlua3NjYXBlOndpbmRvdy15PSItOCIgaW5rc2NhcGU6em9vbT0iMTYuNzY3MjMxIiBvYmplY3R0b2xlcmFuY2U9IjEwIiBwYWdlY29sb3I9IiNmZmZmZmYiIHNob3dncmlkPSJmYWxzZSI+JiN4YTsJPC9zb2RpcG9kaTpuYW1lZHZpZXc+JiN4YTs8ZyBpZD0iZzE3NTgyOSIgdHJhbnNmb3JtPSJ0cmFuc2xhdGUoLTAuNzUwMDE5OTYsLTAuNzQ2MzIyNDEpIj4mI3hhOwk8dGl0bGUgaWQ9InRpdGxlMTc1NzcxIj5QYWdlLTE8L3RpdGxlPiYjeGE7CTxnIGlkPSJncm91cDEwOTctMSIgdHJhbnNmb3JtPSJ0cmFuc2xhdGUoMC43NSwtMC43NSkiPiYjeGE7CQk8dGl0bGUgaWQ9InRpdGxlMTc1NzczIj5IVE1MNTwvdGl0bGU+JiN4YTsJCTxnIGlkPSJzaGFwZTEwOTgtMiI+JiN4YTsJCQk8dGl0bGUgaWQ9InRpdGxlMTc1Nzc1Ij5TaGVldC4xMDk4PC90aXRsZT4mI3hhOwkJCTxwYXRoIGlkPSJwYXRoMTc1Nzc3IiBpbmtzY2FwZTpjb25uZWN0b3ItY3VydmF0dXJlPSIwIiBzdHlsZT0iZmlsbDojRTQ1MTI2OyIgZD0iTTIuNCwzNS43OUwwLDguODNoMjYuNDFsLTIuNCwyNi45NWwtMTAuODIsMyAgICAgTDIuNCwzNS43OXoiLz4mI3hhOwkJPC9nPiYjeGE7CQk8ZyBpZD0ic2hhcGUxMDk5LTQiIHRyYW5zZm9ybT0idHJhbnNsYXRlKDEzLjIwNjEsLTIuMjkxOTkpIj4mI3hhOwkJCTx0aXRsZSBpZD0idGl0bGUxNzU3ODAiPlNoZWV0LjEwOTk8L3RpdGxlPiYjeGE7CQkJPHBhdGggaWQ9InBhdGgxNzU3ODIiIGlua3NjYXBlOmNvbm5lY3Rvci1jdXJ2YXR1cmU9IjAiIHN0eWxlPSJmaWxsOiNGMTY4MkI7IiBkPSJNMCwzOC43OGw4Ljc0LTIuNDJsMi4wNi0yMy4wNEgwVjM4Ljc4eiIvPiYjeGE7CQk8L2c+JiN4YTsJCTxnIGlkPSJzaGFwZTExMDAtNiIgdHJhbnNmb3JtPSJ0cmFuc2xhdGUoNC45MTQ4MywtMTQuNDQ0NCkiPiYjeGE7CQkJPHRpdGxlIGlkPSJ0aXRsZTE3NTc4NSI+U2hlZXQuMTEwMDwvdGl0bGU+JiN4YTsJCQk8cGF0aCBpZD0icGF0aDE3NTc4NyIgaW5rc2NhcGU6Y29ubmVjdG9yLWN1cnZhdHVyZT0iMCIgc3R5bGU9ImZpbGw6I0VCRUJFQjsiIGQ9Ik04LjI5LDM1LjQ3SDMuOTJsLTAuMzEtMy4zOGg0LjY4di0zLjMxSDguMjhIMCAgICAgbDAuMDgsMC44OWwwLjgxLDkuMTFoNy40VjM1LjQ3eiIvPiYjeGE7CQk8L2c+JiN4YTsJCTxnIGlkPSJzaGFwZTExMDEtOCIgdHJhbnNmb3JtPSJ0cmFuc2xhdGUoNS45NTQ0NSwtNS43MTg5NikiPiYjeGE7CQkJPHRpdGxlIGlkPSJ0aXRsZTE3NTc5MCI+U2hlZXQuMTEwMTwvdGl0bGU+JiN4YTsJCQk8cGF0aCBpZD0icGF0aDE3NTc5MiIgaW5rc2NhcGU6Y29ubmVjdG9yLWN1cnZhdHVyZT0iMCIgc3R5bGU9ImZpbGw6I0VCRUJFQjsiIGQ9Ik03LjI1LDM1LjM0SDcuMjRsLTMuNjktMC45OWwtMC4yMy0yLjY0SDEuNTNIMCAgICAgbDAuNDYsNS4xOWw2Ljc4LDEuODhoMC4wMUw3LjI1LDM1LjM0eiIvPiYjeGE7CQk8L2c+JiN4YTsJCTxnIGlkPSJncm91cDExMDItMTAiIHRyYW5zZm9ybT0idHJhbnNsYXRlKDIuNDU3NDIsLTMyLjI1MzUpIj4mI3hhOwkJCTx0aXRsZSBpZD0idGl0bGUxNzU3OTUiPlNoZWV0LjExMDI8L3RpdGxlPiYjeGE7CQkJPGcgaWQ9InNoYXBlMTEwMy0xMSIgdHJhbnNmb3JtPSJ0cmFuc2xhdGUoMCwtOC44Nzk1NWUtNSkiPiYjeGE7CQkJCTx0aXRsZSBpZD0idGl0bGUxNzU3OTciPlNoZWV0LjExMDM8L3RpdGxlPiYjeGE7CQkJCTxwYXRoIGlkPSJwYXRoMTc1Nzk5IiBpbmtzY2FwZTpjb25uZWN0b3ItY3VydmF0dXJlPSIwIiBzdHlsZT0iZmlsbDojMDIwMjAyOyIgZD0iTTAsMzMuNzVoMS42OHYxLjY2aDEuNTR2LTEuNjZINC45djUuMDNIMy4yMiAgICAgIFYzNy4xSDEuNjh2MS42OEgwVjMzLjc1eiIvPiYjeGE7CQkJPC9nPiYjeGE7CQkJPGcgaWQ9InNoYXBlMTEwNC0xMyIgdHJhbnNmb3JtPSJ0cmFuc2xhdGUoNS42MjgyMikiPiYjeGE7CQkJCTx0aXRsZSBpZD0idGl0bGUxNzU4MDIiPlNoZWV0LjExMDQ8L3RpdGxlPiYjeGE7CQkJCTxwYXRoIGlkPSJwYXRoMTc1ODA0IiBpbmtzY2FwZTpjb25uZWN0b3ItY3VydmF0dXJlPSIwIiBzdHlsZT0iZmlsbDojMDIwMjAyOyIgZD0iTTEuNDgsMzUuNDJIMHYtMS42N2g0LjY0djEuNjdIMy4xNnYzLjM2SDEuNDggICAgICBWMzUuNDJ6Ii8+JiN4YTsJCQk8L2c+JiN4YTsJCQk8ZyBpZD0ic2hhcGUxMTA1LTE1IiB0cmFuc2Zvcm09InRyYW5zbGF0ZSgxMS4wMDQzLC04Ljg3OTU1ZS01KSI+JiN4YTsJCQkJPHRpdGxlIGlkPSJ0aXRsZTE3NTgwNyI+U2hlZXQuMTEwNTwvdGl0bGU+JiN4YTsJCQkJPHBhdGggaWQ9InBhdGgxNzU4MDkiIGlua3NjYXBlOmNvbm5lY3Rvci1jdXJ2YXR1cmU9IjAiIHN0eWxlPSJmaWxsOiMwMjAyMDI7IiBkPSJNMCwzMy43NWgxLjc1bDEuMDgsMS43N2wxLjA4LTEuNzdoMS43NXY1LjAzICAgICAgSDMuOTl2LTIuNDlsLTEuMTYsMS43OUgyLjhsLTEuMTYtMS43OXYyLjQ5SDBWMzMuNzV6Ii8+JiN4YTsJCQk8L2c+JiN4YTsJCQk8ZyBpZD0ic2hhcGUxMTA2LTE3IiB0cmFuc2Zvcm09InRyYW5zbGF0ZSgxNy41LC0xLjc3NTkxZS00KSI+JiN4YTsJCQkJPHRpdGxlIGlkPSJ0aXRsZTE3NTgxMiI+U2hlZXQuMTEwNjwvdGl0bGU+JiN4YTsJCQkJPHBhdGggaWQ9InBhdGgxNzU4MTQiIGlua3NjYXBlOmNvbm5lY3Rvci1jdXJ2YXR1cmU9IjAiIHN0eWxlPSJmaWxsOiMwMjAyMDI7IiBkPSJNMCwzMy43NWgxLjY4djMuMzdoMi4zNnYxLjY2SDBWMzMuNzV6Ii8+JiN4YTsJCQk8L2c+JiN4YTsJCTwvZz4mI3hhOwkJPGcgaWQ9InNoYXBlMTEwNy0xOSIgdHJhbnNmb3JtPSJ0cmFuc2xhdGUoMTMuMTk0NywtNS43MjA0NykiPiYjeGE7CQkJPHRpdGxlIGlkPSJ0aXRsZTE3NTgxOCI+U2hlZXQuMTEwNzwvdGl0bGU+JiN4YTsJCQk8cGF0aCBpZD0icGF0aDE3NTgyMCIgaW5rc2NhcGU6Y29ubmVjdG9yLWN1cnZhdHVyZT0iMCIgc3R5bGU9ImZpbGw6I0ZGRkZGRjsiIGQ9Ik0wLDI2Ljc1djMuMzFoNC4wN2wtMC4zOCw0LjI5TDAsMzUuMzR2My40NCAgICAgbDYuNzgtMS44OGwwLjA1LTAuNTZsMC43OC04LjdsMC4wOC0wLjg5aC0wLjlMMCwyNi43NXoiLz4mI3hhOwkJPC9nPiYjeGE7CQk8ZyBpZD0ic2hhcGUxMTA4LTIxIiB0cmFuc2Zvcm09InRyYW5zbGF0ZSgxMy4xOTQ3LC0yMS4xMzY3KSI+JiN4YTsJCQk8dGl0bGUgaWQ9InRpdGxlMTc1ODIzIj5TaGVldC4xMTA4PC90aXRsZT4mI3hhOwkJCTxwYXRoIGlkPSJwYXRoMTc1ODI1IiBpbmtzY2FwZTpjb25uZWN0b3ItY3VydmF0dXJlPSIwIiBzdHlsZT0iZmlsbDojRkZGRkZGOyIgZD0iTTAsMzUuNDd2Mi4wNnYxLjI0djAuMDFoNy45OGgwLjAxbDAuMDYtMC43NCAgICAgbDAuMTUtMS42OGwwLjA4LTAuODlIMHoiLz4mI3hhOwkJPC9nPiYjeGE7CTwvZz4mI3hhOzwvZz4mI3hhOzwvc3ZnPg==;" vertex="1" parent="1">
          <mxGeometry x="243" y="188.47000000000003" width="53.78" height="76.53" as="geometry" />
        </mxCell>
        <mxCell id="bEVf-RL3vcpq9Qt6OURH-9" value="" style="shape=image;verticalLabelPosition=bottom;labelBackgroundColor=#ffffff;verticalAlign=top;aspect=fixed;imageAspect=0;image=data:image/svg+xml,PHN2ZyB4bWxuczpjYz0iaHR0cDovL2NyZWF0aXZlY29tbW9ucy5vcmcvbnMjIiB4bWxuczpkYz0iaHR0cDovL3B1cmwub3JnL2RjL2VsZW1lbnRzLzEuMS8iIHhtbG5zOmlua3NjYXBlPSJodHRwOi8vd3d3Lmlua3NjYXBlLm9yZy9uYW1lc3BhY2VzL2lua3NjYXBlIiB4bWxuczpyZGY9Imh0dHA6Ly93d3cudzMub3JnLzE5OTkvMDIvMjItcmRmLXN5bnRheC1ucyMiIHhtbG5zOnNvZGlwb2RpPSJodHRwOi8vc29kaXBvZGkuc291cmNlZm9yZ2UubmV0L0RURC9zb2RpcG9kaS0wLmR0ZCIgeG1sbnM6c3ZnPSJodHRwOi8vd3d3LnczLm9yZy8yMDAwL3N2ZyIgeG1sbnM9Imh0dHA6Ly93d3cudzMub3JnLzIwMDAvc3ZnIiB4bWxuczp4bGluaz0iaHR0cDovL3d3dy53My5vcmcvMTk5OS94bGluayIgdmVyc2lvbj0iMS4xIiBpZD0ic3ZnMTgxNTczIiBpbmtzY2FwZTp2ZXJzaW9uPSIwLjkyLjMgKDI0MDU1NDYsIDIwMTgtMDMtMTEpIiBzb2RpcG9kaTpkb2NuYW1lPSJqc29uLnN2ZyIgeD0iMHB4IiB5PSIwcHgiIHZpZXdCb3g9IjAgMCA3Ni41IDc1LjYzIiBzdHlsZT0iZW5hYmxlLWJhY2tncm91bmQ6bmV3IDAgMCA3Ni41IDc1LjYzOyIgeG1sOnNwYWNlPSJwcmVzZXJ2ZSI+JiN4YTs8c29kaXBvZGk6bmFtZWR2aWV3IGJvcmRlcmNvbG9yPSIjNjY2NjY2IiBib3JkZXJvcGFjaXR5PSIxIiBmaXQtbWFyZ2luLWJvdHRvbT0iMCIgZml0LW1hcmdpbi1sZWZ0PSIwIiBmaXQtbWFyZ2luLXJpZ2h0PSIwIiBmaXQtbWFyZ2luLXRvcD0iMCIgZ3JpZHRvbGVyYW5jZT0iMTAiIGd1aWRldG9sZXJhbmNlPSIxMCIgaWQ9Im5hbWVkdmlldzE4MTU3NSIgaW5rc2NhcGU6Y3VycmVudC1sYXllcj0ic3ZnMTgxNTczIiBpbmtzY2FwZTpjeD0iNTEiIGlua3NjYXBlOmN5PSI1MC40MjEyNjciIGlua3NjYXBlOnBhZ2VvcGFjaXR5PSIwIiBpbmtzY2FwZTpwYWdlc2hhZG93PSIyIiBpbmtzY2FwZTp3aW5kb3ctaGVpZ2h0PSIxMDE3IiBpbmtzY2FwZTp3aW5kb3ctbWF4aW1pemVkPSIxIiBpbmtzY2FwZTp3aW5kb3ctd2lkdGg9IjE5MjAiIGlua3NjYXBlOndpbmRvdy14PSItOCIgaW5rc2NhcGU6d2luZG93LXk9Ii04IiBpbmtzY2FwZTp6b29tPSI4LjU5Nzk5NjkiIG9iamVjdHRvbGVyYW5jZT0iMTAiIHBhZ2Vjb2xvcj0iI2ZmZmZmZiIgc2hvd2dyaWQ9ImZhbHNlIj4mI3hhOwk8L3NvZGlwb2RpOm5hbWVkdmlldz4mI3hhOzxnIGlkPSJnMTgxNTcxIj4mI3hhOwk8dGl0bGUgaWQ9InRpdGxlMTgxNTEyIj5QYWdlLTE8L3RpdGxlPiYjeGE7CTxnIGlkPSJncm91cDEwNzctMSI+JiN4YTsJCTx0aXRsZSBpZD0idGl0bGUxODE1MTQiPkpTT048L3RpdGxlPiYjeGE7CQk8ZyBpZD0ic2hhcGUxMDc4LTIiPiYjeGE7CQkJPHRpdGxlIGlkPSJ0aXRsZTE4MTUxNiI+U2hlZXQuMTA3ODwvdGl0bGU+JiN4YTsJCQk8cGF0aCBpZD0icGF0aDE4MTUxOCIgaW5rc2NhcGU6Y29ubmVjdG9yLWN1cnZhdHVyZT0iMCIgc3R5bGU9ImZpbGw6Izk3NzdBODsiIGQ9Ik0wLDM3LjgxQzAsMTYuOTQsMTcuMTMsMCwzOC4yNSwwICAgICBDNTkuNDIsMCw3Ni41LDE2Ljk0LDc2LjUsMzcuODFjMCwyMC45My0xNy4wOCwzNy44Mi0zOC4yNSwzNy44MkMxNy4xMyw3NS42MywwLDU4Ljc0LDAsMzcuODF6Ii8+JiN4YTsJCTwvZz4mI3hhOwkJPGcgaWQ9Imdyb3VwMTA3OS00IiB0cmFuc2Zvcm09InRyYW5zbGF0ZSgxNS42NTM0LC0xNy4zOTk4KSI+JiN4YTsJCQk8dGl0bGUgaWQ9InRpdGxlMTgxNTIxIj5TaGVldC4xMDc5PC90aXRsZT4mI3hhOwkJCTxnIGlkPSJncm91cDEwODAtNSIgdHJhbnNmb3JtPSJ0cmFuc2xhdGUoNi43NDUzLC0xNi40NDE5KSI+JiN4YTsJCQkJPHRpdGxlIGlkPSJ0aXRsZTE4MTUyMyI+U2hlZXQuMTA4MDwvdGl0bGU+JiN4YTsJCQkJPGcgaWQ9InNoYXBlMTA4MS02Ij4mI3hhOwkJCQkJPHRpdGxlIGlkPSJ0aXRsZTE4MTUyNSI+U2hlZXQuMTA4MTwvdGl0bGU+JiN4YTsJCQkJCTxwYXRoIGlkPSJwYXRoMTgxNTI3IiBpbmtzY2FwZTpjb25uZWN0b3ItY3VydmF0dXJlPSIwIiBzdHlsZT0iZmlsbDojRkZGRkZGOyIgZD0iTTYuMSw1OS43OFY1NC45YzAtMC42NywwLjU0LTEuMjIsMS4yMi0xLjIyICAgICAgIGMwLjY3LDAsMS4yMi0wLjU1LDEuMjItMS4yMmMwLTAuNjctMC41NS0xLjIyLTEuMjItMS4yMmMtMi4wMiwwLTMuNjYsMS42NC0zLjY2LDMuNjZ2NC44OGMwLDEuMzQtMS4xLDIuNDQtMi40NCwyLjQ0ICAgICAgIEMwLjU1LDYyLjIyLDAsNjIuNzYsMCw2My40M2MwLDAuNjgsMC41NSwxLjIyLDEuMjIsMS4yMmMxLjM0LDAsMi40NCwxLjEsMi40NCwyLjQ0djQuODhjMCwyLjAyLDEuNjQsMy42NiwzLjY2LDMuNjYgICAgICAgYzAuNjcsMCwxLjIyLTAuNTUsMS4yMi0xLjIycy0wLjU1LTEuMjItMS4yMi0xLjIyYy0wLjY4LDAtMS4yMi0wLjU1LTEuMjItMS4yMnYtNC44OGMwLTEuNDYtMC42Ni0yLjc2LTEuNjktMy42NiAgICAgICBDNS40NCw2Mi41NCw2LjEsNjEuMjQsNi4xLDU5Ljc4eiIvPiYjeGE7CQkJCTwvZz4mI3hhOwkJCQk8ZyBpZD0ic2hhcGUxMDgyLTgiIHRyYW5zZm9ybT0idHJhbnNsYXRlKDE0LjAyMjMsLTE0LjYzMikiPiYjeGE7CQkJCQk8dGl0bGUgaWQ9InRpdGxlMTgxNTMwIj5TaGVldC4xMDgyPC90aXRsZT4mI3hhOwkJCQkJPGNpcmNsZSBpZD0iZWxsaXBzZTE4MTUzMiIgc3R5bGU9ImZpbGw6I0ZGRkZGRjsiIGN4PSIxLjgzIiBjeT0iNzMuOCIgcj0iMS44MyIvPiYjeGE7CQkJCTwvZz4mI3hhOwkJCQk8ZyBpZD0ic2hhcGUxMDgzLTEwIiB0cmFuc2Zvcm09InRyYW5zbGF0ZSgyMy4xNjczKSI+JiN4YTsJCQkJCTx0aXRsZSBpZD0idGl0bGUxODE1MzUiPlNoZWV0LjEwODM8L3RpdGxlPiYjeGE7CQkJCQk8cGF0aCBpZD0icGF0aDE4MTUzNyIgaW5rc2NhcGU6Y29ubmVjdG9yLWN1cnZhdHVyZT0iMCIgc3R5bGU9ImZpbGw6I0ZGRkZGRjsiIGQ9Ik03LjMyLDYyLjIyYy0xLjM1LDAtMi40NC0xLjEtMi40NC0yLjQ0VjU0LjkgICAgICAgYzAtMi4wMi0xLjY0LTMuNjYtMy42Ni0zLjY2QzAuNTUsNTEuMjQsMCw1MS43OSwwLDUyLjQ2YzAsMC42NywwLjU1LDEuMjIsMS4yMiwxLjIyczEuMjIsMC41NSwxLjIyLDEuMjJ2NC44OCAgICAgICBjMCwxLjQ2LDAuNjYsMi43NiwxLjY4LDMuNjVjLTEuMDIsMC45LTEuNjgsMi4yLTEuNjgsMy42NnY0Ljg4YzAsMC42Ny0wLjU1LDEuMjItMS4yMiwxLjIyUzAsNzMuNzQsMCw3NC40MSAgICAgICBzMC41NSwxLjIyLDEuMjIsMS4yMmMyLjAyLDAsMy42Ni0xLjY0LDMuNjYtMy42NnYtNC44OGMwLTEuMzQsMS4wOS0yLjQ0LDIuNDQtMi40NGMwLjY3LDAsMS4yMi0wLjU0LDEuMjItMS4yMiAgICAgICBDOC41NCw2Mi43Niw3Ljk5LDYyLjIyLDcuMzIsNjIuMjJ6Ii8+JiN4YTsJCQkJPC9nPiYjeGE7CQkJCTxnIGlkPSJzaGFwZTEwODQtMTIiIHRyYW5zZm9ybT0idHJhbnNsYXRlKDE0LjYzMiwtMy42NTc5OSkiPiYjeGE7CQkJCQk8dGl0bGUgaWQ9InRpdGxlMTgxNTQwIj5TaGVldC4xMDg0PC90aXRsZT4mI3hhOwkJCQkJPHBhdGggaWQ9InBhdGgxODE1NDIiIGlua3NjYXBlOmNvbm5lY3Rvci1jdXJ2YXR1cmU9IjAiIHN0eWxlPSJmaWxsOiNGRkZGRkY7IiBkPSJNMS4yMiw2OS41M0MwLjU1LDY5LjUzLDAsNzAuMDgsMCw3MC43NXYzLjY2ICAgICAgIGMwLDAuNjcsMC41NSwxLjIyLDEuMjIsMS4yMnMxLjIyLTAuNTUsMS4yMi0xLjIydi0zLjY2QzIuNDQsNzAuMDgsMS44OSw2OS41MywxLjIyLDY5LjUzeiIvPiYjeGE7CQkJCTwvZz4mI3hhOwkJCTwvZz4mI3hhOwkJCTxnIGlkPSJncm91cDEwODUtMTQiPiYjeGE7CQkJCTx0aXRsZSBpZD0idGl0bGUxODE1NDYiPlNoZWV0LjEwODU8L3RpdGxlPiYjeGE7CQkJCTxnIGlkPSJzaGFwZTEwODYtMTUiPiYjeGE7CQkJCQk8dGl0bGUgaWQ9InRpdGxlMTgxNTQ4Ij5TaGVldC4xMDg2PC90aXRsZT4mI3hhOwkJCQkJPHBhdGggaWQ9InBhdGgxODE1NTAiIGlua3NjYXBlOmNvbm5lY3Rvci1jdXJ2YXR1cmU9IjAiIHN0eWxlPSJmaWxsOiNGRkZGRkY7IiBkPSJNOC4yNCw2MS44djEwLjQ5YzAsMC42My0wLjEyLDEuMTYtMC4zNSwxLjU5ICAgICAgIGMtMC4yMywwLjQ0LTAuNTQsMC43OC0wLjkzLDEuMDVjLTAuMzksMC4yNi0wLjg0LDAuNDQtMS4zNCwwLjU0Yy0wLjUxLDAuMTEtMS4wMywwLjE2LTEuNTYsMC4xNmMtMC4yNywwLTAuNTktMC4wMy0wLjk1LTAuMDggICAgICAgQzIuNzYsNzUuNDksMi4zOCw3NS40MSwyLDc1LjI5cy0wLjc1LTAuMjUtMS4xLTAuMzljLTAuMzYtMC4xNS0wLjY2LTAuMzEtMC45LTAuNWwwLjkzLTEuNDdjMC4xMiwwLjA4LDAuMywwLjE3LDAuNTIsMC4yNiAgICAgICBjMC4yMywwLjA5LDAuNDgsMC4xOCwwLjc0LDAuMjVjMC4yNywwLjA4LDAuNTUsMC4xNSwwLjg0LDAuMjFjMC4zLDAuMDcsMC41NywwLjEsMC44MiwwLjFjMC42NSwwLDEuMTYtMC4xMywxLjU1LTAuMzggICAgICAgYzAuMzgtMC4yNSwwLjU4LTAuNjcsMC42MS0xLjI3VjYxLjhIOC4yNHoiLz4mI3hhOwkJCQk8L2c+JiN4YTsJCQkJPGcgaWQ9InNoYXBlMTA4Ny0xNyIgdHJhbnNmb3JtPSJ0cmFuc2xhdGUoMTEuMzI0NywtMC4wMTg3MDUyKSI+JiN4YTsJCQkJCTx0aXRsZSBpZD0idGl0bGUxODE1NTMiPlNoZWV0LjEwODc8L3RpdGxlPiYjeGE7CQkJCQk8cGF0aCBpZD0icGF0aDE4MTU1NSIgaW5rc2NhcGU6Y29ubmVjdG9yLWN1cnZhdHVyZT0iMCIgc3R5bGU9ImZpbGw6I0ZGRkZGRjsiIGQ9Ik03LjgyLDcxLjg3YzAsMC40OC0wLjEsMC45NS0wLjMsMS40MSAgICAgICBjLTAuMiwwLjQ2LTAuNDksMC44Ni0wLjg1LDEuMjFjLTAuMzcsMC4zNC0wLjgyLDAuNjItMS4zNSwwLjgzYy0wLjU0LDAuMjEtMS4xNSwwLjMxLTEuODMsMC4zMWMtMC4yOSwwLTAuNTktMC4wMi0wLjktMC4wNSAgICAgICBjLTAuMzItMC4wMy0wLjYzLTAuMDgtMC45NS0wLjE1Yy0wLjMxLTAuMDgtMC42MS0wLjE4LTAuOS0wLjNDMC40NSw3NSwwLjIxLDc0Ljg0LDAsNzQuNjZsMC4zOC0xLjU3ICAgICAgIGMwLjE3LDAuMSwwLjM5LDAuMTksMC42NSwwLjI4czAuNTMsMC4xOCwwLjgxLDAuMjZzMC41NiwwLjE0LDAuODQsMC4xOXMwLjU1LDAuMDcsMC43OSwwLjA3YzAuNzQsMCwxLjMxLTAuMTcsMS43MS0wLjUyICAgICAgIGMwLjM5LTAuMzUsMC41OS0wLjg2LDAuNTktMS41NGMwLTAuNDItMC4xNC0wLjc3LTAuNDItMS4wNmMtMC4yOC0wLjI5LTAuNjMtMC41Ni0xLjA1LTAuOGMtMC40Mi0wLjIzLTAuODctMC40Ny0xLjM2LTAuNzEgICAgICAgQzIuNDUsNjkuMDIsMiw2OC43NCwxLjU3LDY4LjQycy0wLjc4LTAuNy0xLjA2LTEuMTRzLTAuNDItMC45OS0wLjQyLTEuNjRjMC0wLjYsMC4xMS0xLjEzLDAuMzMtMS41OXMwLjUxLTAuODYsMC44OS0xLjE4ICAgICAgIGMwLjM3LTAuMzIsMC44LTAuNTcsMS4yOS0wLjc0YzAuNS0wLjE3LDEuMDItMC4yNiwxLjU2LTAuMjZjMC41NiwwLDEuMTMsMC4wNiwxLjcsMC4xNnMxLjA0LDAuMjcsMS4zOSwwLjUgICAgICAgQzcuMTgsNjIuNjksNy4wOSw2Mi44Niw3LDYzLjA1Yy0wLjEsMC4xOS0wLjE5LDAuMzctMC4yOCwwLjUzYy0wLjA4LDAuMTctMC4xNiwwLjMtMC4yMiwwLjQxYy0wLjA2LDAuMTEtMC4wOSwwLjE3LTAuMTEsMC4xOSAgICAgICBjLTAuMDctMC4wNC0wLjE1LTAuMDktMC4yNC0wLjE1Yy0wLjEtMC4wNi0wLjIzLTAuMTItMC40LTAuMThjLTAuMTctMC4wNi0wLjM5LTAuMTEtMC42Ny0wLjEzQzQuOCw2My42OSw0LjQ0LDYzLjcsNCw2My43NCAgICAgICBjLTAuMjUsMC4wMi0wLjQ4LDAuMDktMC43LDAuMjFjLTAuMjIsMC4xMS0wLjQxLDAuMjYtMC41OCwwLjQzYy0wLjE3LDAuMTctMC4zMSwwLjM2LTAuNCwwLjU3Yy0wLjEsMC4yMi0wLjE1LDAuNDItMC4xNSwwLjYxICAgICAgIGMwLDAuNDksMC4xNCwwLjg4LDAuNDIsMS4xOHMwLjYzLDAuNTYsMS4wNCwwLjc5YzAuNDEsMC4yMiwwLjg3LDAuNDQsMS4zNSwwLjY2YzAuNDksMC4yMSwwLjk0LDAuNDcsMS4zNywwLjc3ICAgICAgIGMwLjQyLDAuMzEsMC43NiwwLjY5LDEuMDUsMS4xNEM3LjY4LDcwLjU2LDcuODIsNzEuMTUsNy44Miw3MS44N3oiLz4mI3hhOwkJCQk8L2c+JiN4YTsJCQkJPGcgaWQ9InNoYXBlMTA4OC0xOSIgdHJhbnNmb3JtPSJ0cmFuc2xhdGUoMjEuMTU0MykiPiYjeGE7CQkJCQk8dGl0bGUgaWQ9InRpdGxlMTgxNTU4Ij5TaGVldC4xMDg4PC90aXRsZT4mI3hhOwkJCQkJPHBhdGggaWQ9InBhdGgxODE1NjAiIGlua3NjYXBlOmNvbm5lY3Rvci1jdXJ2YXR1cmU9IjAiIHN0eWxlPSJmaWxsOiNGRkZGRkY7IiBkPSJNMTEuMjIsNjguNzRjMCwxLjEzLTAuMTUsMi4xMy0wLjQzLDMgICAgICAgYy0wLjI5LDAuODYtMC42OSwxLjU4LTEuMTksMi4xNWMtMC41MSwwLjU3LTEuMSwxLjAxLTEuNzcsMS4zYy0wLjY4LDAuMjktMS40MiwwLjQ0LTIuMjIsMC40NGMtMC44MSwwLTEuNTUtMC4xNS0yLjIyLTAuNDQgICAgICAgYy0wLjY4LTAuMjktMS4yNy0wLjcyLTEuNzctMS4zYy0wLjUxLTAuNTctMC45MS0xLjI5LTEuMTktMi4xNUMwLjE0LDcwLjg3LDAsNjkuODcsMCw2OC43NGMwLTEuMTMsMC4xNC0yLjEzLDAuNDMtMi45OCAgICAgICBjMC4yOC0wLjg2LDAuNjgtMS41OCwxLjE5LTIuMTVjMC41LTAuNTcsMS4wOS0xLjAxLDEuNzctMS4zMWMwLjY3LTAuMywxLjQxLTAuNDQsMi4yMi0wLjQ0YzAuOCwwLDEuNTQsMC4xNCwyLjIyLDAuNDQgICAgICAgYzAuNjcsMC4zLDEuMjYsMC43NCwxLjc3LDEuMzFjMC41LDAuNTcsMC45LDEuMjksMS4xOSwyLjE1QzExLjA3LDY2LjYxLDExLjIyLDY3LjYxLDExLjIyLDY4Ljc0eiBNNS41NSw3My44NCAgICAgICBjMC40NSwwLDAuODgtMC4wOSwxLjI5LTAuMjdjMC40MS0wLjE3LDAuNzctMC40NiwxLjEtMC44NmMwLjMyLTAuNCwwLjU3LTAuOTMsMC43NS0xLjU4YzAuMTktMC42NiwwLjI4LTEuNDUsMC4zLTIuMzkgICAgICAgYy0wLjAyLTAuOTEtMC4xMS0xLjY5LTAuMjktMi4zM2MtMC4xNy0wLjYzLTAuNDItMS4xNi0wLjczLTEuNThjLTAuMzEtMC40MS0wLjY2LTAuNzEtMS4wNi0wLjg5ICAgICAgIGMtMC4zOS0wLjE4LTAuODEtMC4yOC0xLjI1LTAuMjhjLTAuNDUsMC0wLjg4LDAuMDktMS4yOSwwLjI2cy0wLjc3LDAuNDYtMS4wOSwwLjg3Yy0wLjMyLDAuNC0wLjU4LDAuOTMtMC43NiwxLjU4ICAgICAgIGMtMC4xOCwwLjY0LTAuMjgsMS40My0wLjI5LDIuMzdjMC4wMSwwLjkyLDAuMSwxLjY5LDAuMjgsMi4zNGMwLjE4LDAuNjUsMC40MiwxLjE3LDAuNzMsMS41OHMwLjY3LDAuNzEsMS4wNiwwLjkgICAgICAgQzQuNyw3My43NSw1LjExLDczLjg0LDUuNTUsNzMuODR6Ii8+JiN4YTsJCQkJPC9nPiYjeGE7CQkJCTxnIGlkPSJzaGFwZTEwODktMjEiIHRyYW5zZm9ybT0idHJhbnNsYXRlKDM1LjQ1NzEsLTAuMDkwODU0MSkiPiYjeGE7CQkJCQk8dGl0bGUgaWQ9InRpdGxlMTgxNTYzIj5TaGVldC4xMDg5PC90aXRsZT4mI3hhOwkJCQkJPHBhdGggaWQ9InBhdGgxODE1NjUiIGlua3NjYXBlOmNvbm5lY3Rvci1jdXJ2YXR1cmU9IjAiIHN0eWxlPSJmaWxsOiNGRkZGRkY7IiBkPSJNOS43NCw2Mi4xN3YxMy40Nkg3LjUxbC01LjI4LTkuMjh2OS4yOEgwICAgICAgIFY2Mi4xN2gyLjIzbDUuMjgsOS4yN3YtOS4yN0w5Ljc0LDYyLjE3eiIvPiYjeGE7CQkJCTwvZz4mI3hhOwkJCTwvZz4mI3hhOwkJPC9nPiYjeGE7CTwvZz4mI3hhOzwvZz4mI3hhOzwvc3ZnPg==;" vertex="1" parent="1">
          <mxGeometry x="43" y="648" width="77" height="76" as="geometry" />
        </mxCell>
        <mxCell id="bEVf-RL3vcpq9Qt6OURH-10" value="" style="shape=image;verticalLabelPosition=bottom;labelBackgroundColor=#ffffff;verticalAlign=top;aspect=fixed;imageAspect=0;image=data:image/svg+xml,PHN2ZyB4bWxuczpjYz0iaHR0cDovL2NyZWF0aXZlY29tbW9ucy5vcmcvbnMjIiB4bWxuczpkYz0iaHR0cDovL3B1cmwub3JnL2RjL2VsZW1lbnRzLzEuMS8iIHhtbG5zOmlua3NjYXBlPSJodHRwOi8vd3d3Lmlua3NjYXBlLm9yZy9uYW1lc3BhY2VzL2lua3NjYXBlIiB4bWxuczpyZGY9Imh0dHA6Ly93d3cudzMub3JnLzE5OTkvMDIvMjItcmRmLXN5bnRheC1ucyMiIHhtbG5zOnNvZGlwb2RpPSJodHRwOi8vc29kaXBvZGkuc291cmNlZm9yZ2UubmV0L0RURC9zb2RpcG9kaS0wLmR0ZCIgeG1sbnM6c3ZnPSJodHRwOi8vd3d3LnczLm9yZy8yMDAwL3N2ZyIgeG1sbnM9Imh0dHA6Ly93d3cudzMub3JnLzIwMDAvc3ZnIiB4bWxuczp4bGluaz0iaHR0cDovL3d3dy53My5vcmcvMTk5OS94bGluayIgdmVyc2lvbj0iMS4xIiBpZD0ic3ZnMTg1NTk3IiBpbmtzY2FwZTp2ZXJzaW9uPSIwLjkyLjMgKDI0MDU1NDYsIDIwMTgtMDMtMTEpIiBzb2RpcG9kaTpkb2NuYW1lPSJub2RlanNfc2RrLnN2ZyIgeD0iMHB4IiB5PSIwcHgiIHZpZXdCb3g9IjAgMCA5MC40MyA1NS4zOCIgc3R5bGU9ImVuYWJsZS1iYWNrZ3JvdW5kOm5ldyAwIDAgOTAuNDMgNTUuMzg7IiB4bWw6c3BhY2U9InByZXNlcnZlIj4mI3hhOzxzb2RpcG9kaTpuYW1lZHZpZXcgYm9yZGVyY29sb3I9IiM2NjY2NjYiIGJvcmRlcm9wYWNpdHk9IjEiIGZpdC1tYXJnaW4tYm90dG9tPSIwIiBmaXQtbWFyZ2luLWxlZnQ9IjAiIGZpdC1tYXJnaW4tcmlnaHQ9IjAiIGZpdC1tYXJnaW4tdG9wPSIwIiBncmlkdG9sZXJhbmNlPSIxMCIgZ3VpZGV0b2xlcmFuY2U9IjEwIiBpZD0ibmFtZWR2aWV3MTg1NTk5IiBpbmtzY2FwZTpjdXJyZW50LWxheWVyPSJzdmcxODU1OTciIGlua3NjYXBlOmN4PSI2MC4yODMzNTkiIGlua3NjYXBlOmN5PSIzNi45MTk2ODQiIGlua3NjYXBlOnBhZ2VvcGFjaXR5PSIwIiBpbmtzY2FwZTpwYWdlc2hhZG93PSIyIiBpbmtzY2FwZTp3aW5kb3ctaGVpZ2h0PSIxMDE3IiBpbmtzY2FwZTp3aW5kb3ctbWF4aW1pemVkPSIxIiBpbmtzY2FwZTp3aW5kb3ctd2lkdGg9IjE5MjAiIGlua3NjYXBlOndpbmRvdy14PSItOCIgaW5rc2NhcGU6d2luZG93LXk9Ii04IiBpbmtzY2FwZTp6b29tPSI5LjE5OTg0NjIiIG9iamVjdHRvbGVyYW5jZT0iMTAiIHBhZ2Vjb2xvcj0iI2ZmZmZmZiIgc2hvd2dyaWQ9ImZhbHNlIj4mI3hhOwk8L3NvZGlwb2RpOm5hbWVkdmlldz4mI3hhOzxnIGlkPSJnMTg1NTk1IiB0cmFuc2Zvcm09InRyYW5zbGF0ZSgtNy42NTAyMzc3LC03LjY0NzUwMDYpIj4mI3hhOwk8dGl0bGUgaWQ9InRpdGxlMTg1NTIwIj5QYWdlLTE8L3RpdGxlPiYjeGE7CTxnIGlkPSJncm91cDEyOTQtMSIgdHJhbnNmb3JtPSJ0cmFuc2xhdGUoNy42NSwtNy42NSkiPiYjeGE7CQk8dGl0bGUgaWQ9InRpdGxlMTg1NTIyIj5Ob2RlLmpzIFNESzwvdGl0bGU+JiN4YTsJCTxnIGlkPSJncm91cDEyOTUtMiIgdHJhbnNmb3JtPSJ0cmFuc2xhdGUoMzQuODEyNikiPiYjeGE7CQkJPHRpdGxlIGlkPSJ0aXRsZTE4NTUyNCI+U2hlZXQuMTI5NTwvdGl0bGU+JiN4YTsJCQk8ZyBpZD0ic2hhcGUxMjk2LTMiPiYjeGE7CQkJCTx0aXRsZSBpZD0idGl0bGUxODU1MjYiPlNoZWV0LjEyOTY8L3RpdGxlPiYjeGE7CQkJCTxwYXRoIGlkPSJwYXRoMTg1NTI4IiBpbmtzY2FwZTpjb25uZWN0b3ItY3VydmF0dXJlPSIwIiBzdHlsZT0iZmlsbDojNjk5RjYzOyIgZD0iTTkuODgsNzAuNjhjLTAuMywwLTAuNTktMC4wOC0wLjg2LTAuMjMgICAgICBMNi4zLDY4Ljg0Yy0wLjQxLTAuMjMtMC4yMS0wLjMxLTAuMDgtMC4zNmMwLjU1LTAuMTksMC42Ni0wLjIzLDEuMjQtMC41NmMwLjA2LTAuMDMsMC4xNC0wLjAyLDAuMiwwLjAybDIuMDksMS4yNCAgICAgIGMwLjA4LDAuMDQsMC4xOSwwLjA0LDAuMjYsMGw4LjE2LTQuNzFjMC4wOC0wLjA0LDAuMTMtMC4xMywwLjEzLTAuMjJ2LTkuNDNjMC0wLjA5LTAuMDUtMC4xOC0wLjEzLTAuMjJsLTguMTYtNC43MSAgICAgIGMtMC4wOC0wLjA1LTAuMTgtMC4wNS0wLjI1LDBMMS42LDU0LjZjLTAuMDgsMC4wNC0wLjEzLDAuMTMtMC4xMywwLjIydjkuNDNjMCwwLjA5LDAuMDUsMC4xNywwLjEyLDAuMjJsMi4yNCwxLjI5ICAgICAgYzEuMjIsMC42LDEuOTYtMC4xMSwxLjk2LTAuODN2LTkuM2MwLTAuMTMsMC4xLTAuMjQsMC4yNC0wLjI0aDEuMDNjMC4xMywwLDAuMjQsMC4xMSwwLjI0LDAuMjR2OS4zYzAsMS42Mi0wLjg4LDIuNTUtMi40MiwyLjU1ICAgICAgYy0wLjQ3LDAtMC44NCwwLTEuODgtMC41MWwtMi4xNC0xLjIzQzAuMzMsNjUuNDMsMCw2NC44NiwwLDY0LjI1di05LjQzYzAtMC42MSwwLjMzLTEuMTgsMC44Ni0xLjQ5bDguMTYtNC43MiAgICAgIGMwLjUyLTAuMjksMS4yMS0wLjI5LDEuNzIsMGw4LjE2LDQuNzJjMC41MywwLjMxLDAuODYsMC44OCwwLjg2LDEuNDl2OS40M2MwLDAuNjEtMC4zMywxLjE4LTAuODYsMS40OWwtOC4xNiw0LjcxICAgICAgQzEwLjQ4LDcwLjYsMTAuMTgsNzAuNjgsOS44OCw3MC42OHoiLz4mI3hhOwkJCTwvZz4mI3hhOwkJCTxnIGlkPSJzaGFwZTEyOTctNSIgdHJhbnNmb3JtPSJ0cmFuc2xhdGUoOC4wODE3NSwtNi40OTI1MykiPiYjeGE7CQkJCTx0aXRsZSBpZD0idGl0bGUxODU1MzEiPlNoZWV0LjEyOTc8L3RpdGxlPiYjeGE7CQkJCTxwYXRoIGlkPSJwYXRoMTg1NTMzIiBpbmtzY2FwZTpjb25uZWN0b3ItY3VydmF0dXJlPSIwIiBzdHlsZT0iZmlsbDojNjk5RjYzOyIgZD0iTTQuMzIsNzAuNjhDMC43NSw3MC42OCwwLDY5LjA0LDAsNjcuNjYgICAgICBjMC0wLjEzLDAuMTEtMC4yMywwLjI0LTAuMjNoMS4wNWMwLjEyLDAsMC4yMiwwLjA4LDAuMjQsMC4yYzAuMTYsMS4wNywwLjYzLDEuNjIsMi43OSwxLjYyYzEuNzIsMCwyLjQ2LTAuMzksMi40Ni0xLjMgICAgICBjMC0wLjUzLTAuMjEtMC45Mi0yLjg5LTEuMThjLTIuMjMtMC4yMy0zLjYxLTAuNzItMy42MS0yLjUxYzAtMS42NCwxLjM5LTIuNjMsMy43Mi0yLjYzYzIuNjEsMCwzLjkxLDAuOTEsNC4wNywyLjg2ICAgICAgYzAuMDEsMC4wNy0wLjAyLDAuMTMtMC4wNiwwLjE4Yy0wLjA1LDAuMDUtMC4xMSwwLjA4LTAuMTcsMC4wOEg2Ljc4Yy0wLjExLDAtMC4yMS0wLjA4LTAuMjMtMC4xOSAgICAgIEM2LjI5LDYzLjQzLDUuNjcsNjMuMDcsNCw2My4wN2MtMS44OCwwLTIuMSwwLjY2LTIuMSwxLjE1YzAsMC41OSwwLjI2LDAuNzYsMi43OSwxLjFjMi41MSwwLjMzLDMuNywwLjgsMy43LDIuNTYgICAgICBDOC4zOSw2OS42Niw2LjkxLDcwLjY4LDQuMzIsNzAuNjh6Ii8+JiN4YTsJCQk8L2c+JiN4YTsJCTwvZz4mI3hhOwkJPGcgaWQ9InNoYXBlMTI5OC03IiB0cmFuc2Zvcm09InRyYW5zbGF0ZSg1NS44NDQzLC0xNC44MDI2KSI+JiN4YTsJCQk8dGl0bGUgaWQ9InRpdGxlMTg1NTM3Ij5TaGVldC4xMjk4PC90aXRsZT4mI3hhOwkJCTxwYXRoIGlkPSJwYXRoMTg1NTM5IiBpbmtzY2FwZTpjb25uZWN0b3ItY3VydmF0dXJlPSIwIiBzdHlsZT0iZmlsbDojNjk5RjYzOyIgZD0iTTMuMTUsNjkuMTFjMCwwLjg2LTAuNzEsMS41Ny0xLjU4LDEuNTcgICAgIGMtMC44NSwwLTEuNTctMC43LTEuNTctMS41N2MwLTAuODksMC43My0xLjU4LDEuNTctMS41OEMyLjQyLDY3LjUzLDMuMTUsNjguMjIsMy4xNSw2OS4xMXogTTAuMjUsNjkuMSAgICAgYzAsMC43NCwwLjU5LDEuMzMsMS4zMiwxLjMzczEuMzItMC42MSwxLjMyLTEuMzNjMC0wLjczLTAuNi0xLjMxLTEuMzItMS4zMVMwLjI1LDY4LjM2LDAuMjUsNjkuMXogTTAuOTgsNjguMjJoMC42MSAgICAgYzAuMjEsMCwwLjYyLDAsMC42MiwwLjQ3YzAsMC4zMy0wLjIxLDAuMzktMC4zNCwwLjQzYzAuMjQsMC4wMiwwLjI2LDAuMTgsMC4yOSwwLjRjMC4wMiwwLjE1LDAuMDUsMC4zOSwwLjEsMC40N0gxLjg4ICAgICBjLTAuMDEtMC4wOC0wLjA2LTAuNTMtMC4wNi0wLjU2Yy0wLjAzLTAuMS0wLjA2LTAuMTUtMC4xOS0wLjE1SDEuMzJ2MC43MUgwLjk4VjY4LjIyeiBNMS4zMiw2OWgwLjI3YzAuMjMsMCwwLjI3LTAuMTYsMC4yNy0wLjI1ICAgICBjMC0wLjI0LTAuMTctMC4yNC0wLjI2LTAuMjRIMS4zMlY2OXoiLz4mI3hhOwkJPC9nPiYjeGE7CQk8ZyBpZD0ic2hhcGUxMjk5LTkiIHRyYW5zZm9ybT0idHJhbnNsYXRlKDAsLTIyLjkwNTgpIj4mI3hhOwkJCTx0aXRsZSBpZD0idGl0bGUxODU1NDIiPlNoZWV0LjEyOTk8L3RpdGxlPiYjeGE7CQkJPHBhdGggaWQ9InBhdGgxODU1NDQiIGlua3NjYXBlOmNvbm5lY3Rvci1jdXJ2YXR1cmU9IjAiIHN0eWxlPSJmaWxsOiMzRjU3NjU7IiBkPSJNMTkuNDEsNTYuNzJjMC0wLjM4LTAuMi0wLjczLTAuNTMtMC45MSAgICAgbC04LjY2LTQuOTljLTAuMTQtMC4wOC0wLjMxLTAuMTMtMC40Ny0wLjEzYy0wLjAyLDAtMC4wOCwwLTAuMDksMGMtMC4xNywwLTAuMzMsMC4wNS0wLjQ4LDAuMTNsLTguNjYsNC45OSAgICAgQzAuMiw1NS45OSwwLDU2LjM0LDAsNTYuNzJsMC4wMiwxMy40MWMwLDAuMTksMC4xLDAuMzYsMC4yNiwwLjQ1YzAuMTYsMC4xLDAuMzYsMC4xLDAuNTIsMGw1LjE0LTIuOTQgICAgIGMwLjMzLTAuMiwwLjUzLTAuNTQsMC41My0wLjkxdi02LjI3YzAtMC4zNywwLjItMC43MiwwLjUyLTAuOWwyLjE5LTEuMjdjMC4xNi0wLjA5LDAuMzQtMC4xNCwwLjUyLTAuMTQgICAgIGMwLjE4LDAsMC4zNywwLjA1LDAuNTIsMC4xNGwyLjIsMS4yN2MwLjMyLDAuMTgsMC41MiwwLjUzLDAuNTIsMC45djYuMjdjMCwwLjM3LDAuMiwwLjcyLDAuNTIsMC45MWw1LjE1LDIuOTQgICAgIGMwLjE2LDAuMSwwLjM2LDAuMSwwLjUyLDBjMC4xNi0wLjA5LDAuMjYtMC4yNiwwLjI2LTAuNDVMMTkuNDEsNTYuNzJ6Ii8+JiN4YTsJCTwvZz4mI3hhOwkJPGcgaWQ9InNoYXBlMTMwMC0xMSIgdHJhbnNmb3JtPSJ0cmFuc2xhdGUoNDcuMzM5OCwtMjAuNTA2MikiPiYjeGE7CQkJPHRpdGxlIGlkPSJ0aXRsZTE4NTU0NyI+U2hlZXQuMTMwMDwvdGl0bGU+JiN4YTsJCQk8cGF0aCBpZD0icGF0aDE4NTU0OSIgaW5rc2NhcGU6Y29ubmVjdG9yLWN1cnZhdHVyZT0iMCIgc3R5bGU9ImZpbGw6IzNGNTc2NTsiIGQ9Ik0xMy43MiwzNS44N2MtMC4xNi0wLjA5LTAuMzYtMC4wOS0wLjUyLDAuMDEgICAgIGMtMC4xNiwwLjA5LTAuMjUsMC4yNi0wLjI1LDAuNDV2MTMuMjljMCwwLjEzLTAuMDcsMC4yNS0wLjE5LDAuMzFjLTAuMTEsMC4wNy0wLjI1LDAuMDctMC4zNiwwbC0yLjE3LTEuMjUgICAgIGMtMC4zMi0wLjE4LTAuNzItMC4xOC0xLjA1LDBsLTguNjYsNUMwLjIsNTMuODcsMCw1NC4yMSwwLDU0LjU5djEwYzAsMC4zNywwLjIsMC43MSwwLjUyLDAuOWw4LjY2LDVjMC4zMywwLjE5LDAuNzMsMC4xOSwxLjA1LDAgICAgIGw4LjY2LTVjMC4zMy0wLjE5LDAuNTMtMC41MywwLjUzLTAuOVYzOS42NmMwLTAuMzgtMC4yMS0wLjczLTAuNTQtMC45MUwxMy43MiwzNS44N3ogTTEyLjkyLDYxLjNjMCwwLjA5LTAuMDUsMC4xOC0wLjEzLDAuMjMgICAgIGwtMi45NywxLjcxYy0wLjA4LDAuMDUtMC4xOSwwLjA1LTAuMjcsMGwtMi45Ny0xLjcxYy0wLjA4LTAuMDUtMC4xMy0wLjE0LTAuMTMtMC4yM3YtMy40M2MwLTAuMSwwLjA1LTAuMTgsMC4xMy0wLjIzbDIuOTctMS43MiAgICAgYzAuMDgtMC4wNCwwLjE4LTAuMDQsMC4yNywwbDIuOTcsMS43MmMwLjA4LDAuMDUsMC4xMywwLjEzLDAuMTMsMC4yM0wxMi45Miw2MS4zeiIvPiYjeGE7CQk8L2c+JiN4YTsJCTxnIGlkPSJncm91cDEzMDEtMTMiIHRyYW5zZm9ybT0idHJhbnNsYXRlKDcxLjA2OTcsLTIwLjc0MjQpIj4mI3hhOwkJCTx0aXRsZSBpZD0idGl0bGUxODU1NTIiPlNoZWV0LjEzMDE8L3RpdGxlPiYjeGE7CQkJPGcgaWQ9InNoYXBlMTMwMi0xNCI+JiN4YTsJCQkJPHRpdGxlIGlkPSJ0aXRsZTE4NTU1NCI+U2hlZXQuMTMwMjwvdGl0bGU+JiN4YTsJCQkJPHBhdGggaWQ9InBhdGgxODU1NTYiIGlua3NjYXBlOmNvbm5lY3Rvci1jdXJ2YXR1cmU9IjAiIHN0eWxlPSJmaWxsOiMzRjU3NjU7IiBkPSJNMTguODQsNTguMDFjMC4zMi0wLjE4LDAuNTItMC41MywwLjUyLTAuOSAgICAgIHYtMi40MmMwLTAuMzgtMC4yLTAuNzItMC41My0wLjkxbC04LjYtNC45OWMtMC4zMi0wLjE5LTAuNzItMC4xOS0xLjA1LDBsLTguNjYsNC45OUMwLjIsNTMuOTcsMCw1NC4zMiwwLDU0LjY5djEwICAgICAgYzAsMC4zNywwLjIsMC43MiwwLjUzLDAuOWw4LjYsNC45MWMwLjMyLDAuMTgsMC43MSwwLjE4LDEuMDMsMGw1LjItMi44OWMwLjE3LTAuMDksMC4yNy0wLjI3LDAuMjctMC40NSAgICAgIGMwLTAuMTktMC4xLTAuMzctMC4yNi0wLjQ2bC04LjcxLTVjLTAuMTctMC4xLTAuMjctMC4yNy0wLjI3LTAuNDZ2LTMuMTNjMC0wLjE5LDAuMS0wLjM2LDAuMjctMC40NWwyLjcxLTEuNTcgICAgICBjMC4xNi0wLjA5LDAuMzYtMC4wOSwwLjUyLDBsMi43MSwxLjU3YzAuMTYsMC4wOSwwLjI3LDAuMjYsMC4yNywwLjQ1djIuNDdjMCwwLjE4LDAuMSwwLjM2LDAuMjYsMC40NXMwLjM2LDAuMDksMC41MiwwICAgICAgTDE4Ljg0LDU4LjAxeiIvPiYjeGE7CQkJPC9nPiYjeGE7CQkJPGcgaWQ9InNoYXBlMTMwMy0xNiIgdHJhbnNmb3JtPSJ0cmFuc2xhdGUoNy44MTYxMywtOC45MTM2NikiPiYjeGE7CQkJCTx0aXRsZSBpZD0idGl0bGUxODU1NTkiPlNoZWV0LjEzMDM8L3RpdGxlPiYjeGE7CQkJCTxwYXRoIGlkPSJwYXRoMTg1NTYxIiBpbmtzY2FwZTpjb25uZWN0b3ItY3VydmF0dXJlPSIwIiBzdHlsZT0iZmlsbDojNjk5RjYzOyIgZD0iTTEuNzYsNjYuNDZjMC4wNi0wLjA0LDAuMTQtMC4wNCwwLjIsMCAgICAgIGwxLjY2LDAuOTZjMC4wNywwLjAzLDAuMSwwLjEsMC4xLDAuMTd2MS45MmMwLDAuMDctMC4wMywwLjE0LTAuMSwwLjE4bC0xLjY2LDAuOTVjLTAuMDYsMC4wNC0wLjE0LDAuMDQtMC4yLDBMMC4xLDY5LjY4ICAgICAgQzAuMDQsNjkuNjUsMCw2OS41OCwwLDY5LjUxdi0xLjkyYzAtMC4wNywwLjA0LTAuMTQsMC4xLTAuMTdMMS43Niw2Ni40NnoiLz4mI3hhOwkJCTwvZz4mI3hhOwkJPC9nPiYjeGE7CQk8ZyBpZD0iZ3JvdXAxMzA0LTE4IiB0cmFuc2Zvcm09InRyYW5zbGF0ZSgyMy43MjA4LC0yMC43MDc0KSI+JiN4YTsJCQk8dGl0bGUgaWQ9InRpdGxlMTg1NTY1Ij5TaGVldC4xMzA0PC90aXRsZT4mI3hhOwkJCTxnIGlkPSJzaGFwZTEzMDUtMTkiPiYjeGE7CQkJCTx0aXRsZSBpZD0idGl0bGUxODU1NjciPlhNTElEXzE0M188L3RpdGxlPiYjeGE7CQkJCSYjeGE7CQkJCQk8bGluZWFyR3JhZGllbnQgaWQ9InBhdGgxODU1NjlfMV8iIGdyYWRpZW50VW5pdHM9InVzZXJTcGFjZU9uVXNlIiB4MT0iLTYuMzE4NSIgeTE9IjYxLjExOTciIHgyPSIxNC4yNzMzIiB5Mj0iNjEuMTE5NyIgZ3JhZGllbnRUcmFuc2Zvcm09Im1hdHJpeCgwLjkzNzMgMCAwIC0xLjA2NjkgNS45MjIzIDEyNC44NjA1KSI+JiN4YTsJCQkJCTxzdG9wIG9mZnNldD0iMCIgc3R5bGU9InN0b3AtY29sb3I6IzQxODczRiIvPiYjeGE7CQkJCQk8c3RvcCBvZmZzZXQ9IjAuMzMiIHN0eWxlPSJzdG9wLWNvbG9yOiM0MThCM0QiLz4mI3hhOwkJCQkJPHN0b3Agb2Zmc2V0PSIwLjYzNSIgc3R5bGU9InN0b3AtY29sb3I6IzQxOTYzNyIvPiYjeGE7CQkJCQk8c3RvcCBvZmZzZXQ9IjAuOTMiIHN0eWxlPSJzdG9wLWNvbG9yOiMzRkE5MkQiLz4mI3hhOwkJCQkJPHN0b3Agb2Zmc2V0PSIxIiBzdHlsZT0ic3RvcC1jb2xvcjojM0ZBRTJBIi8+JiN4YTsJCQkJPC9saW5lYXJHcmFkaWVudD4mI3hhOwkJCQk8cGF0aCBpZD0icGF0aDE4NTU2OSIgaW5rc2NhcGU6Y29ubmVjdG9yLWN1cnZhdHVyZT0iMCIgc3R5bGU9ImZpbGw6dXJsKCNwYXRoMTg1NTY5XzFfKTsiIGQ9Ik0xMC4xNyw0OC44ICAgICAgYy0wLjMyLTAuMTgtMC43MS0wLjE4LTEuMDQsMGwtOC42MSw0Ljk3QzAuMiw1My45NiwwLDU0LjMsMCw1NC42N3Y5Ljk1YzAsMC4zNywwLjIsMC43MSwwLjUyLDAuOWw4LjYxLDQuOTggICAgICBjMC4zMywwLjE4LDAuNzIsMC4xOCwxLjA0LDBsOC42MS00Ljk4YzAuMzMtMC4xOSwwLjUyLTAuNTMsMC41Mi0wLjl2LTkuOTVjMC0wLjM3LTAuMTktMC43MS0wLjUyLTAuOUwxMC4xNyw0OC44eiIvPiYjeGE7CQkJPC9nPiYjeGE7CQkJPGcgaWQ9Imdyb3VwMTMwNi0yMyIgdHJhbnNmb3JtPSJ0cmFuc2xhdGUoMC4wMTU4MjQ0LC0wLjAxMTMwMzEpIj4mI3hhOwkJCQk8dGl0bGUgaWQ9InRpdGxlMTg1NTcyIj5TaGVldC4xMzA2PC90aXRsZT4mI3hhOwkJCQk8ZyBpZD0ic2hhcGUxMzA3LTI0IiB0cmFuc2Zvcm09InRyYW5zbGF0ZSgwLC01LjM4NzA4KSI+JiN4YTsJCQkJCTx0aXRsZSBpZD0idGl0bGUxODU1NzQiPlNoZWV0LjEzMDc8L3RpdGxlPiYjeGE7CQkJCQk8cGF0aCBpZD0icGF0aDE4NTU3NiIgaW5rc2NhcGU6Y29ubmVjdG9yLWN1cnZhdHVyZT0iMCIgc3R5bGU9ImZpbGw6bm9uZTsiIGQ9Ik05LjEsNTQuMmwtOC41OSw0Ljk3QzAuMTksNTkuMzYsMCw1OS43LDAsNjAuMDcgICAgICAgdjkuOTVjMCwwLjI0LDAuMDYsMC40OCwwLjIyLDAuNjZMOS45LDU0LjA5QzkuNjQsNTQuMDMsOS4zNCw1NC4wNiw5LjEsNTQuMnoiLz4mI3hhOwkJCQk8L2c+JiN4YTsJCQkJPGcgaWQ9InNoYXBlMTMwOC0yNiIgdHJhbnNmb3JtPSJ0cmFuc2xhdGUoOS45MjY0MiwtMC4wNzM0NzA1KSI+JiN4YTsJCQkJCTx0aXRsZSBpZD0idGl0bGUxODU1NzkiPlNoZWV0LjEzMDg8L3RpdGxlPiYjeGE7CQkJCQk8cGF0aCBpZD0icGF0aDE4NTU4MSIgaW5rc2NhcGU6Y29ubmVjdG9yLWN1cnZhdHVyZT0iMCIgc3R5bGU9ImZpbGw6bm9uZTsiIGQ9Ik0wLDcwLjY4YzAuMDgtMC4wMiwwLjE3LTAuMDYsMC4yNC0wLjEgICAgICAgbDkuMTMtNC45N2MwLjMyLTAuMTksMS4wNS0wLjUzLDEuMDUtMC45MXYtOS45NGMwLTAuMjgtMC42My0wLjUzLTAuODItMC43M0wwLDcwLjY4eiIvPiYjeGE7CQkJCTwvZz4mI3hhOwkJCQk8ZyBpZD0ic2hhcGUxMzA5LTI4IiB0cmFuc2Zvcm09InRyYW5zbGF0ZSgwLjE4MDg1KSI+JiN4YTsJCQkJCTx0aXRsZSBpZD0idGl0bGUxODU1ODQiPlNoZWV0LjEzMDk8L3RpdGxlPiYjeGE7CQkJCQkmI3hhOwkJCQkJCTxsaW5lYXJHcmFkaWVudCBpZD0icGF0aDE4NTU4Nl8xXyIgZ3JhZGllbnRVbml0cz0idXNlclNwYWNlT25Vc2UiIHgxPSItMy4zMDAzIiB5MT0iNjUuNjkwNyIgeDI9IjE3LjAzMzYiIHkyPSI2NS42OTA3IiBncmFkaWVudFRyYW5zZm9ybT0ibWF0cml4KDAuOTI2NSAwIDAgLTEuMDc5MyAzLjA1OCAxMzAuNTcyOSkiPiYjeGE7CQkJCQkJPHN0b3Agb2Zmc2V0PSIwLjE0IiBzdHlsZT0ic3RvcC1jb2xvcjojNDE4NzNGIi8+JiN4YTsJCQkJCQk8c3RvcCBvZmZzZXQ9IjAuNDA1IiBzdHlsZT0ic3RvcC1jb2xvcjojNTRBMDQ0Ii8+JiN4YTsJCQkJCQk8c3RvcCBvZmZzZXQ9IjAuNzE1IiBzdHlsZT0ic3RvcC1jb2xvcjojNjZCODQ4Ii8+JiN4YTsJCQkJCQk8c3RvcCBvZmZzZXQ9IjAuOTEiIHN0eWxlPSJzdG9wLWNvbG9yOiM2Q0MwNEEiLz4mI3hhOwkJCQkJPC9saW5lYXJHcmFkaWVudD4mI3hhOwkJCQkJPHBhdGggaWQ9InBhdGgxODU1ODYiIGlua3NjYXBlOmNvbm5lY3Rvci1jdXJ2YXR1cmU9IjAiIHN0eWxlPSJmaWxsOnVybCgjcGF0aDE4NTU4Nl8xXyk7IiBkPSJNMTguNiw1My43OGwtOC42My00Ljk3ICAgICAgIGMtMC4wOS0wLjA1LTAuMTgtMC4wOC0wLjI3LTAuMTFMMCw2NS4yOWMwLjA4LDAuMSwwLjE4LDAuMTgsMC4yOSwwLjI0bDguNjUsNC45OGMwLjI1LDAuMTQsMC41NCwwLjE3LDAuODEsMC4xbDkuMDktMTYuNjUgICAgICAgQzE4Ljc3LDUzLjg5LDE4LjY5LDUzLjgzLDE4LjYsNTMuNzh6Ii8+JiN4YTsJCQkJPC9nPiYjeGE7CQkJPC9nPiYjeGE7CQkJPGcgaWQ9Imdyb3VwMTMxMC0zMiI+JiN4YTsJCQkJPHRpdGxlIGlkPSJ0aXRsZTE4NTU5MCI+U2hlZXQuMTMxMDwvdGl0bGU+JiN4YTsJCQk8L2c+JiN4YTsJCTwvZz4mI3hhOwk8L2c+JiN4YTs8L2c+JiN4YTs8L3N2Zz4=;" vertex="1" parent="1">
          <mxGeometry x="543" y="155" width="90" height="55" as="geometry" />
        </mxCell>
        <mxCell id="bEVf-RL3vcpq9Qt6OURH-11" value="" style="shape=image;verticalLabelPosition=bottom;labelBackgroundColor=#ffffff;verticalAlign=top;aspect=fixed;imageAspect=0;image=data:image/svg+xml,PHN2ZyB4bWxuczpjYz0iaHR0cDovL2NyZWF0aXZlY29tbW9ucy5vcmcvbnMjIiB4bWxuczpkYz0iaHR0cDovL3B1cmwub3JnL2RjL2VsZW1lbnRzLzEuMS8iIHhtbG5zOmlua3NjYXBlPSJodHRwOi8vd3d3Lmlua3NjYXBlLm9yZy9uYW1lc3BhY2VzL2lua3NjYXBlIiB4bWxuczpyZGY9Imh0dHA6Ly93d3cudzMub3JnLzE5OTkvMDIvMjItcmRmLXN5bnRheC1ucyMiIHhtbG5zOnNvZGlwb2RpPSJodHRwOi8vc29kaXBvZGkuc291cmNlZm9yZ2UubmV0L0RURC9zb2RpcG9kaS0wLmR0ZCIgeG1sbnM6c3ZnPSJodHRwOi8vd3d3LnczLm9yZy8yMDAwL3N2ZyIgeG1sbnM9Imh0dHA6Ly93d3cudzMub3JnLzIwMDAvc3ZnIiB4bWxuczp4bGluaz0iaHR0cDovL3d3dy53My5vcmcvMTk5OS94bGluayIgdmVyc2lvbj0iMS4xIiBpZD0ic3ZnMTg1OTAzIiBpbmtzY2FwZTp2ZXJzaW9uPSIwLjkyLjMgKDI0MDU1NDYsIDIwMTgtMDMtMTEpIiBzb2RpcG9kaTpkb2NuYW1lPSJucG0uc3ZnIiB4PSIwcHgiIHk9IjBweCIgdmlld0JveD0iMCAwIDQ1Ljc1IDE5LjUiIHN0eWxlPSJlbmFibGUtYmFja2dyb3VuZDpuZXcgMCAwIDQ1Ljc1IDE5LjU7IiB4bWw6c3BhY2U9InByZXNlcnZlIj4mI3hhOzxzb2RpcG9kaTpuYW1lZHZpZXcgYm9yZGVyY29sb3I9IiM2NjY2NjYiIGJvcmRlcm9wYWNpdHk9IjEiIGZpdC1tYXJnaW4tYm90dG9tPSIwIiBmaXQtbWFyZ2luLWxlZnQ9IjAiIGZpdC1tYXJnaW4tcmlnaHQ9IjAiIGZpdC1tYXJnaW4tdG9wPSIwIiBncmlkdG9sZXJhbmNlPSIxMCIgZ3VpZGV0b2xlcmFuY2U9IjEwIiBpZD0ibmFtZWR2aWV3MTg1OTA1IiBpbmtzY2FwZTpjdXJyZW50LWxheWVyPSJzdmcxODU5MDMiIGlua3NjYXBlOmN4PSIzMC41IiBpbmtzY2FwZTpjeT0iMTIuOTk5OTk3IiBpbmtzY2FwZTpwYWdlb3BhY2l0eT0iMCIgaW5rc2NhcGU6cGFnZXNoYWRvdz0iMiIgaW5rc2NhcGU6d2luZG93LWhlaWdodD0iMTAxNyIgaW5rc2NhcGU6d2luZG93LW1heGltaXplZD0iMSIgaW5rc2NhcGU6d2luZG93LXdpZHRoPSIxOTIwIiBpbmtzY2FwZTp3aW5kb3cteD0iLTgiIGlua3NjYXBlOndpbmRvdy15PSItOCIgaW5rc2NhcGU6em9vbT0iMjguMjg1NzE0IiBvYmplY3R0b2xlcmFuY2U9IjEwIiBwYWdlY29sb3I9IiNmZmZmZmYiIHNob3dncmlkPSJmYWxzZSI+JiN4YTsJPC9zb2RpcG9kaTpuYW1lZHZpZXc+JiN4YTs8ZyBpZD0iZzE4NTkwMSIgdHJhbnNmb3JtPSJ0cmFuc2xhdGUoLTAuNzUsLTAuNzUwMDExNzEpIj4mI3hhOwk8dGl0bGUgaWQ9InRpdGxlMTg1ODczIj5QYWdlLTE8L3RpdGxlPiYjeGE7CTxnIGlkPSJncm91cDkyMS0xIiB0cmFuc2Zvcm09InRyYW5zbGF0ZSgwLjc1LC0wLjc1KSI+JiN4YTsJCTx0aXRsZSBpZD0idGl0bGUxODU4NzUiPm5wbTwvdGl0bGU+JiN4YTsJCTxnIGlkPSJncm91cDkyMi0yIj4mI3hhOwkJCTx0aXRsZSBpZD0idGl0bGUxODU4NzciPkZpbGVOYW1lczwvdGl0bGU+JiN4YTsJCQk8ZyBpZD0ic2hhcGU5MjMtMyI+JiN4YTsJCQkJPHRpdGxlIGlkPSJ0aXRsZTE4NTg3OSI+cG9seWdvbjQyNjI8L3RpdGxlPiYjeGE7CQkJCTxwYXRoIGlkPSJwYXRoMTg1ODgxIiBpbmtzY2FwZTpjb25uZWN0b3ItY3VydmF0dXJlPSIwIiBzdHlsZT0iZmlsbDojQ0IzODM3OyIgZD0iTTAsMThoMTMuNXYzaDl2LTNoMjMuMjVWMS41SDBWMTh6Ii8+JiN4YTsJCQk8L2c+JiN4YTsJCQk8ZyBpZD0ic2hhcGU5MjQtNSIgdHJhbnNmb3JtPSJ0cmFuc2xhdGUoMTUuNzUsLTMpIj4mI3hhOwkJCQk8dGl0bGUgaWQ9InRpdGxlMTg1ODg0Ij5wYXRoNDI2NDwvdGl0bGU+JiN4YTsJCQkJPHBhdGggaWQ9InBhdGgxODU4ODYiIGlua3NjYXBlOmNvbm5lY3Rvci1jdXJ2YXR1cmU9IjAiIHN0eWxlPSJmaWxsOiNGRkZGRkY7IiBkPSJNMCw3LjVWMjFoNC41di0zaDUuMjVWNy41SDB6IE04LjI1LDE1Ljc1aC0zICAgICAgVjEwLjVoM1YxNS43NXoiLz4mI3hhOwkJCTwvZz4mI3hhOwkJCTxnIGlkPSJzaGFwZTkyNS03IiB0cmFuc2Zvcm09InRyYW5zbGF0ZSgyNy43NSwtNikiPiYjeGE7CQkJCTx0aXRsZSBpZD0idGl0bGUxODU4ODkiPnBvbHlnb240MjY2PC90aXRsZT4mI3hhOwkJCQk8cGF0aCBpZD0icGF0aDE4NTg5MSIgaW5rc2NhcGU6Y29ubmVjdG9yLWN1cnZhdHVyZT0iMCIgc3R5bGU9ImZpbGw6I0ZGRkZGRjsiIGQ9Ik0wLDEwLjVWMjFoNS4yNXYtNy41SDcuNVYyMWgzdi03LjVoMi4yNVYyMWgzICAgICAgVjEwLjVINS4yNUgzLjg2SDB6Ii8+JiN4YTsJCQk8L2c+JiN4YTsJCQk8ZyBpZD0ic2hhcGU5MjYtOSIgdHJhbnNmb3JtPSJ0cmFuc2xhdGUoMi4yNSwtNikiPiYjeGE7CQkJCTx0aXRsZSBpZD0idGl0bGUxODU4OTQiPnBvbHlnb240MjY4PC90aXRsZT4mI3hhOwkJCQk8cGF0aCBpZD0icGF0aDE4NTg5NiIgaW5rc2NhcGU6Y29ubmVjdG9yLWN1cnZhdHVyZT0iMCIgc3R5bGU9ImZpbGw6I0ZGRkZGRjsiIGQ9Ik01LjI1LDIxdi04LjI1aDNWMjFoM1YxMC41SDBWMjFINS4yNXoiLz4mI3hhOwkJCTwvZz4mI3hhOwkJPC9nPiYjeGE7CTwvZz4mI3hhOzwvZz4mI3hhOzwvc3ZnPg==;" vertex="1" parent="1">
          <mxGeometry x="562" y="251" width="46" height="20" as="geometry" />
        </mxCell>
        <mxCell id="bEVf-RL3vcpq9Qt6OURH-12" value="" style="shape=image;verticalLabelPosition=bottom;labelBackgroundColor=#ffffff;verticalAlign=top;aspect=fixed;imageAspect=0;image=data:image/svg+xml,PHN2ZyB4bWxuczpjYz0iaHR0cDovL2NyZWF0aXZlY29tbW9ucy5vcmcvbnMjIiB4bWxuczpkYz0iaHR0cDovL3B1cmwub3JnL2RjL2VsZW1lbnRzLzEuMS8iIHhtbG5zOmlua3NjYXBlPSJodHRwOi8vd3d3Lmlua3NjYXBlLm9yZy9uYW1lc3BhY2VzL2lua3NjYXBlIiB4bWxuczpyZGY9Imh0dHA6Ly93d3cudzMub3JnLzE5OTkvMDIvMjItcmRmLXN5bnRheC1ucyMiIHhtbG5zOnNvZGlwb2RpPSJodHRwOi8vc29kaXBvZGkuc291cmNlZm9yZ2UubmV0L0RURC9zb2RpcG9kaS0wLmR0ZCIgeG1sbnM6c3ZnPSJodHRwOi8vd3d3LnczLm9yZy8yMDAwL3N2ZyIgeG1sbnM9Imh0dHA6Ly93d3cudzMub3JnLzIwMDAvc3ZnIiB4bWxuczp4bGluaz0iaHR0cDovL3d3dy53My5vcmcvMTk5OS94bGluayIgdmVyc2lvbj0iMS4xIiBpZD0ic3ZnMjEzMzc3IiBpbmtzY2FwZTp2ZXJzaW9uPSIwLjkyLjMgKDI0MDU1NDYsIDIwMTgtMDMtMTEpIiBzb2RpcG9kaTpkb2NuYW1lPSJ0eXBlc2NyaXB0LnN2ZyIgeD0iMHB4IiB5PSIwcHgiIHZpZXdCb3g9IjAgMCA0NSA0NSIgc3R5bGU9ImVuYWJsZS1iYWNrZ3JvdW5kOm5ldyAwIDAgNDUgNDU7IiB4bWw6c3BhY2U9InByZXNlcnZlIj4mI3hhOzxzb2RpcG9kaTpuYW1lZHZpZXcgYm9yZGVyY29sb3I9IiM2NjY2NjYiIGJvcmRlcm9wYWNpdHk9IjEiIGZpdC1tYXJnaW4tYm90dG9tPSIwIiBmaXQtbWFyZ2luLWxlZnQ9IjAiIGZpdC1tYXJnaW4tcmlnaHQ9IjAiIGZpdC1tYXJnaW4tdG9wPSIwIiBncmlkdG9sZXJhbmNlPSIxMCIgZ3VpZGV0b2xlcmFuY2U9IjEwIiBpZD0ibmFtZWR2aWV3MjEzMzc5IiBpbmtzY2FwZTpjdXJyZW50LWxheWVyPSJzdmcyMTMzNzciIGlua3NjYXBlOmN4PSIyOS45OTk5ODUiIGlua3NjYXBlOmN5PSIyOS45OTk5ODUiIGlua3NjYXBlOnBhZ2VvcGFjaXR5PSIwIiBpbmtzY2FwZTpwYWdlc2hhZG93PSIyIiBpbmtzY2FwZTp3aW5kb3ctaGVpZ2h0PSIxMDE3IiBpbmtzY2FwZTp3aW5kb3ctbWF4aW1pemVkPSIxIiBpbmtzY2FwZTp3aW5kb3ctd2lkdGg9IjE5MjAiIGlua3NjYXBlOndpbmRvdy14PSItOCIgaW5rc2NhcGU6d2luZG93LXk9Ii04IiBpbmtzY2FwZTp6b29tPSIxMy45ODM4NzgiIG9iamVjdHRvbGVyYW5jZT0iMTAiIHBhZ2Vjb2xvcj0iI2ZmZmZmZiIgc2hvd2dyaWQ9ImZhbHNlIj4mI3hhOwk8L3NvZGlwb2RpOm5hbWVkdmlldz4mI3hhOzxnIGlkPSJnMjEzMzc1IiB0cmFuc2Zvcm09InRyYW5zbGF0ZSgtMC43NSwtMC43NSkiPiYjeGE7CTx0aXRsZSBpZD0idGl0bGUyMTMzNjAiPlBhZ2UtMTwvdGl0bGU+JiN4YTsJPGcgaWQ9Imdyb3VwMTE0Ny0xIiB0cmFuc2Zvcm09InRyYW5zbGF0ZSgwLjc1LC0wLjc1KSI+JiN4YTsJCTx0aXRsZSBpZD0idGl0bGUyMTMzNjIiPlR5cGVTY3JpcHQ8L3RpdGxlPiYjeGE7CQk8ZyBpZD0ic2hhcGUxMTQ4LTIiIHRyYW5zZm9ybT0idHJhbnNsYXRlKDcuNzE3NSwtMS45Mjc1KSI+JiN4YTsJCQk8dGl0bGUgaWQ9InRpdGxlMjEzMzY0Ij5yZWN0NzA5ODwvdGl0bGU+JiN4YTsJCQk8cmVjdCBpZD0icmVjdDIxMzM2NiIgeD0iMCIgeT0iMjAuNzgiIHN0eWxlPSJmaWxsOiNGRkZGRkY7IiB3aWR0aD0iMzQuNzIiIGhlaWdodD0iMjUuNzIiLz4mI3hhOwkJPC9nPiYjeGE7CQk8ZyBpZD0ic2hhcGUxMTQ5LTQiPiYjeGE7CQkJPHRpdGxlIGlkPSJ0aXRsZTIxMzM2OSI+cGF0aDcxMDA8L3RpdGxlPiYjeGE7CQkJPHBhdGggaWQ9InBhdGgyMTMzNzEiIGlua3NjYXBlOmNvbm5lY3Rvci1jdXJ2YXR1cmU9IjAiIHN0eWxlPSJmaWxsOiMwMDdBQ0M7IiBkPSJNMCwyNHYyMi41aDQ1di00NUgwVjI0eiBNMzQuODQsMjEuOTcgICAgIGMxLjYsMC4wNSwzLjEyLDAuNzEsNC4yNCwxLjg2YzAuNDIsMC40MywwLjc4LDAuOTIsMS4wOCwxLjQ0YzAsMC4wNi0xLjk0LDEuMzctMy4xMywyLjFjLTAuMDQsMC0wLjIxLTAuMTUtMC40LTAuNDQgICAgIGMtMC40NC0wLjc2LTEuMjUtMS4yNC0yLjEzLTEuMjdjLTEuMzctMC4wOS0yLjI1LDAuNjMtMi4yNSwxLjgyYy0wLjAxLDAuMjksMC4wNSwwLjU4LDAuMTksMC44NGMwLjMsMC42MiwwLjg2LDAuOTksMi42MSwxLjc1ICAgICBjMy4yMywxLjM4LDQuNiwyLjMsNS40NiwzLjZjMC45OCwxLjY2LDEuMTcsMy42NiwwLjUzLDUuNDhjLTAuNzUsMS44Ny0yLjQ4LDMuMTQtNC45OCwzLjU2Yy0xLjE0LDAuMTQtMi4yOSwwLjE0LTMuNDMsMCAgICAgYy0xLjc0LTAuMjktMy4zNC0xLjEyLTQuNTctMi4zOGMtMC40Ny0wLjUzLTAuODYtMS4xMS0xLjE3LTEuNzRjMC4xMy0wLjEsMC4yNy0wLjE4LDAuNDEtMC4yNmwxLjY3LTAuOTdsMS4yOS0wLjc1bDAuMjcsMC40ICAgICBjMC40NiwwLjY0LDEuMDUsMS4xOSwxLjcyLDEuNjFjMS40MywwLjc1LDMuNCwwLjY2LDQuMzgtMC4yMmMwLjY3LTAuNjYsMC43OC0xLjcxLDAuMjUtMi40OWMtMC4zNi0wLjUtMS4wNy0wLjkyLTMuMDktMS44ICAgICBjLTIuMjktMS4wMS0zLjMzLTEuNjMtNC4yNC0yLjYxYy0wLjU3LTAuNjUtMS0xLjQyLTEuMjQtMi4yNWMtMC4xOC0wLjk1LTAuMi0xLjkyLTAuMDctMi44NyAgICAgQzI4Ljg0LDIzLjU2LDMxLjM0LDIxLjgyLDM0Ljg0LDIxLjk3eiBNMjUuNSwyNi4yNWgtNnYxNi41aC0zLjc1di0xNi41aC02VjIyLjVIMjUuNVYyNi4yNXoiLz4mI3hhOwkJPC9nPiYjeGE7CTwvZz4mI3hhOzwvZz4mI3hhOzwvc3ZnPg==;" vertex="1" parent="1">
          <mxGeometry x="392" y="128" width="52" height="52" as="geometry" />
        </mxCell>
        <mxCell id="bEVf-RL3vcpq9Qt6OURH-13" value="" style="shape=image;verticalLabelPosition=bottom;labelBackgroundColor=#ffffff;verticalAlign=top;aspect=fixed;imageAspect=0;image=data:image/svg+xml,PHN2ZyB4bWxuczpjYz0iaHR0cDovL2NyZWF0aXZlY29tbW9ucy5vcmcvbnMjIiB4bWxuczpkYz0iaHR0cDovL3B1cmwub3JnL2RjL2VsZW1lbnRzLzEuMS8iIHhtbG5zOmlua3NjYXBlPSJodHRwOi8vd3d3Lmlua3NjYXBlLm9yZy9uYW1lc3BhY2VzL2lua3NjYXBlIiB4bWxuczpyZGY9Imh0dHA6Ly93d3cudzMub3JnLzE5OTkvMDIvMjItcmRmLXN5bnRheC1ucyMiIHhtbG5zOnNvZGlwb2RpPSJodHRwOi8vc29kaXBvZGkuc291cmNlZm9yZ2UubmV0L0RURC9zb2RpcG9kaS0wLmR0ZCIgeG1sbnM6c3ZnPSJodHRwOi8vd3d3LnczLm9yZy8yMDAwL3N2ZyIgeG1sbnM9Imh0dHA6Ly93d3cudzMub3JnLzIwMDAvc3ZnIiB4bWxuczp4bGluaz0iaHR0cDovL3d3dy53My5vcmcvMTk5OS94bGluayIgdmVyc2lvbj0iMS4xIiBpZD0ic3ZnMTk4MDc4IiBpbmtzY2FwZTp2ZXJzaW9uPSIwLjkyLjMgKDI0MDU1NDYsIDIwMTgtMDMtMTEpIiBzb2RpcG9kaTpkb2NuYW1lPSJyZXN0LnN2ZyIgeD0iMHB4IiB5PSIwcHgiIHZpZXdCb3g9IjAgMCA1Ny42NSA1Ny42NSIgc3R5bGU9ImVuYWJsZS1iYWNrZ3JvdW5kOm5ldyAwIDAgNTcuNjUgNTcuNjU7IiB4bWw6c3BhY2U9InByZXNlcnZlIj4mI3hhOzxzb2RpcG9kaTpuYW1lZHZpZXcgYm9yZGVyY29sb3I9IiM2NjY2NjYiIGJvcmRlcm9wYWNpdHk9IjEiIGZpdC1tYXJnaW4tYm90dG9tPSIwIiBmaXQtbWFyZ2luLWxlZnQ9IjAiIGZpdC1tYXJnaW4tcmlnaHQ9IjAiIGZpdC1tYXJnaW4tdG9wPSIwIiBncmlkdG9sZXJhbmNlPSIxMCIgZ3VpZGV0b2xlcmFuY2U9IjEwIiBpZD0ibmFtZWR2aWV3MTk4MDgwIiBpbmtzY2FwZTpjdXJyZW50LWxheWVyPSJzdmcxOTgwNzgiIGlua3NjYXBlOmN4PSIzOC40MzAyMyIgaW5rc2NhcGU6Y3k9IjM4LjQzNjQ5NiIgaW5rc2NhcGU6cGFnZW9wYWNpdHk9IjAiIGlua3NjYXBlOnBhZ2VzaGFkb3c9IjIiIGlua3NjYXBlOndpbmRvdy1oZWlnaHQ9IjEwMTciIGlua3NjYXBlOndpbmRvdy1tYXhpbWl6ZWQ9IjEiIGlua3NjYXBlOndpbmRvdy13aWR0aD0iMTkyMCIgaW5rc2NhcGU6d2luZG93LXg9Ii04IiBpbmtzY2FwZTp3aW5kb3cteT0iLTgiIGlua3NjYXBlOnpvb209IjguOTE0MjA2OSIgb2JqZWN0dG9sZXJhbmNlPSIxMCIgcGFnZWNvbG9yPSIjZmZmZmZmIiBzaG93Z3JpZD0iZmFsc2UiPiYjeGE7CTwvc29kaXBvZGk6bmFtZWR2aWV3PiYjeGE7PGcgaWQ9ImcxOTgwNzYiIHRyYW5zZm9ybT0idHJhbnNsYXRlKC03LjY1LC03LjY1MDAwMTEpIj4mI3hhOwk8dGl0bGUgaWQ9InRpdGxlMTk4MDM4Ij5QYWdlLTE8L3RpdGxlPiYjeGE7CTxnIGlkPSJncm91cDEwNjktMSIgdHJhbnNmb3JtPSJ0cmFuc2xhdGUoNy42NSwtNy42NSkiPiYjeGE7CQk8dGl0bGUgaWQ9InRpdGxlMTk4MDQwIj5SRVNUPC90aXRsZT4mI3hhOwkJPGcgaWQ9InNoYXBlMTA3MC0yIj4mI3hhOwkJCTx0aXRsZSBpZD0idGl0bGUxOTgwNDIiPlNoZWV0LjEwNzA8L3RpdGxlPiYjeGE7CQkJPGNpcmNsZSBpZD0iZWxsaXBzZTE5ODA0NCIgc3R5bGU9ImZpbGw6IzEwN0MxMDsiIGN4PSIyOC44MiIgY3k9IjQ0LjEyIiByPSIyOC44MiIvPiYjeGE7CQk8L2c+JiN4YTsJCTxnIGlkPSJzaGFwZTEwNzEtNCI+JiN4YTsJCQk8dGl0bGUgaWQ9InRpdGxlMTk4MDQ3Ij5TaGVldC4xMDcxPC90aXRsZT4mI3hhOwkJCTxwYXRoIGlkPSJwYXRoMTk4MDQ5IiBpbmtzY2FwZTpjb25uZWN0b3ItY3VydmF0dXJlPSIwIiBzdHlsZT0iZmlsbDojMDA0QjFDOyIgZD0iTTguODYsMjMuMzdDMy4zOSwyOC42MywwLDM1Ljk4LDAsNDQuMTIgICAgIGMwLDE1LjkzLDEyLjksMjguODMsMjguODIsMjguODNjOC4xNSwwLDE1LjQ5LTMuMzksMjAuNzUtOC44N0w4Ljg2LDIzLjM3eiIvPiYjeGE7CQk8L2c+JiN4YTsJCTxnIGlkPSJncm91cDEwNzItNiIgdHJhbnNmb3JtPSJ0cmFuc2xhdGUoNi42NzI0NCwtMjAuOTk4NykiPiYjeGE7CQkJPHRpdGxlIGlkPSJ0aXRsZTE5ODA1MiI+U2hlZXQuMTA3MjwvdGl0bGU+JiN4YTsJCQk8ZyBpZD0ic2hhcGUxMDczLTciIHRyYW5zZm9ybT0idHJhbnNsYXRlKDAsLTAuMjU1ODAxKSI+JiN4YTsJCQkJPHRpdGxlIGlkPSJ0aXRsZTE5ODA1NCI+U2hlZXQuMTA3MzwvdGl0bGU+JiN4YTsJCQkJPHBhdGggaWQ9InBhdGgxOTgwNTYiIGlua3NjYXBlOmNvbm5lY3Rvci1jdXJ2YXR1cmU9IjAiIHN0eWxlPSJmaWxsOiNGRkZGRkY7IiBkPSJNMTAuODUsNzIuOTVIOC43NEw2LjIxLDY4LjcgICAgICBjLTAuMjQtMC4zOS0wLjQ2LTAuNzMtMC42OC0xLjAxYy0wLjIyLTAuMjctMC40NC0wLjUtMC42Ny0wLjY4Yy0wLjIzLTAuMTctMC40Ny0wLjMtMC43NC0wLjM4Yy0wLjI2LTAuMDgtMC41Ni0wLjEyLTAuODktMC4xMiAgICAgIEgxLjc3djYuNDRIMFY1Ny44MWg0LjUyYzAuNjYsMCwxLjI3LDAuMDgsMS44MywwLjI1YzAuNTYsMC4xNiwxLjA0LDAuNDEsMS40NiwwLjc1YzAuNDEsMC4zNCwwLjczLDAuNzYsMC45NiwxLjI2ICAgICAgYzAuMjMsMC41MSwwLjM1LDEuMDksMC4zNSwxLjc3YzAsMC41My0wLjA4LDEuMDEtMC4yNCwxLjQ1Yy0wLjE2LDAuNDQtMC4zOCwwLjgzLTAuNjcsMS4xOGMtMC4zLDAuMzQtMC42NSwwLjY0LTEuMDYsMC44OCAgICAgIHMtMC44NywwLjQzLTEuMzksMC41NnYwLjA1YzAuMjYsMC4xMSwwLjQ4LDAuMjQsMC42NiwwLjM4YzAuMTksMC4xNSwwLjM3LDAuMzIsMC41NCwwLjUxYzAuMTYsMC4yLDAuMzMsMC40MiwwLjUsMC42NyAgICAgIGMwLjE2LDAuMjUsMC4zNSwwLjU0LDAuNTUsMC44OEwxMC44NSw3Mi45NXogTTEuNzcsNTkuNDF2NS40OWgyLjQxYzAuNDQsMCwwLjg1LTAuMDcsMS4yMy0wLjJzMC43LTAuMzIsMC45OC0wLjU3ICAgICAgYzAuMjctMC4yNSwwLjQ5LTAuNTYsMC42NC0wLjkyYzAuMTYtMC4zNiwwLjIzLTAuNzcsMC4yMy0xLjIyYzAtMC44MS0wLjI2LTEuNDQtMC43OC0xLjljLTAuNTMtMC40NS0xLjI5LTAuNjgtMi4yOC0wLjY4SDEuNzd6ICAgICAgIi8+JiN4YTsJCQk8L2c+JiN4YTsJCQk8ZyBpZD0ic2hhcGUxMDc0LTkiIHRyYW5zZm9ybT0idHJhbnNsYXRlKDEyLjkzMDYsLTAuMjU1ODAxKSI+JiN4YTsJCQkJPHRpdGxlIGlkPSJ0aXRsZTE5ODA1OSI+U2hlZXQuMTA3NDwvdGl0bGU+JiN4YTsJCQkJPHBhdGggaWQ9InBhdGgxOTgwNjEiIGlua3NjYXBlOmNvbm5lY3Rvci1jdXJ2YXR1cmU9IjAiIHN0eWxlPSJmaWxsOiNGRkZGRkY7IiBkPSJNOC4wMiw3Mi45NUgwVjU3LjgxaDcuNjh2MS42SDEuNzd2NS4wNGg1LjQ3ICAgICAgdjEuNTlIMS43N3Y1LjNoNi4yNVY3Mi45NXoiLz4mI3hhOwkJCTwvZz4mI3hhOwkJCTxnIGlkPSJzaGFwZTEwNzUtMTEiIHRyYW5zZm9ybT0idHJhbnNsYXRlKDIzLjE1ODMpIj4mI3hhOwkJCQk8dGl0bGUgaWQ9InRpdGxlMTk4MDY0Ij5TaGVldC4xMDc1PC90aXRsZT4mI3hhOwkJCQk8cGF0aCBpZD0icGF0aDE5ODA2NiIgaW5rc2NhcGU6Y29ubmVjdG9yLWN1cnZhdHVyZT0iMCIgc3R5bGU9ImZpbGw6I0ZGRkZGRjsiIGQ9Ik0wLDcyLjA4di0yLjA5YzAuMjQsMC4yMSwwLjUzLDAuNCwwLjg2LDAuNTcgICAgICBzMC42OSwwLjMxLDEuMDYsMC40M2MwLjM3LDAuMTEsMC43NCwwLjIsMS4xMSwwLjI2YzAuMzcsMC4wNywwLjcyLDAuMSwxLjAzLDAuMWMxLjA5LDAsMS45MS0wLjIsMi40NS0wLjYxICAgICAgYzAuNTQtMC40LDAuODEtMC45OCwwLjgxLTEuNzRjMC0wLjQxLTAuMDktMC43Ny0wLjI3LTEuMDdjLTAuMTgtMC4zLTAuNDMtMC41OC0wLjc1LTAuODNjLTAuMzItMC4yNS0wLjY5LTAuNDktMS4xMi0wLjcyICAgICAgYy0wLjQ0LTAuMjItMC45LTAuNDctMS40LTAuNzJjLTAuNTMtMC4yNy0xLjAyLTAuNTQtMS40OC0wLjgxYy0wLjQ2LTAuMjgtMC44NS0wLjU4LTEuMTktMC45MXMtMC42LTAuNzEtMC44LTEuMTIgICAgICBjLTAuMTktMC40Mi0wLjI5LTAuOTEtMC4yOS0xLjQ4YzAtMC42OSwwLjE1LTEuMjksMC40NS0xLjhjMC4zMS0wLjUxLDAuNzEtMC45MywxLjItMS4yNmMwLjQ5LTAuMzMsMS4wNS0wLjU3LDEuNjgtMC43NCAgICAgIGMwLjYzLTAuMTYsMS4yNy0wLjI0LDEuOTMtMC4yNGMxLjQ5LDAsMi41OCwwLjE4LDMuMjYsMC41NHYyYy0wLjktMC42Mi0yLjA0LTAuOTMtMy40NC0wLjkzYy0wLjM5LDAtMC43OCwwLjA0LTEuMTYsMC4xMiAgICAgIGMtMC4zOSwwLjA4LTAuNzQsMC4yMS0xLjA0LDAuMzljLTAuMywwLjE5LTAuNTUsMC40Mi0wLjc0LDAuNzFzLTAuMjgsMC42NC0wLjI4LDEuMDZjMCwwLjM4LDAuMDcsMC43MiwwLjIxLDEgICAgICBjMC4xNSwwLjI4LDAuMzYsMC41NCwwLjY0LDAuNzdzMC42MywwLjQ2LDEuMDMsMC42N2MwLjQxLDAuMjIsMC44NywwLjQ2LDEuNCwwLjcyQzUuNyw2NC42Miw2LjIyLDY0LjksNi43LDY1LjIgICAgICBjMC40OSwwLjI5LDAuOTEsMC42MiwxLjI4LDAuOThjMC4zNiwwLjM2LDAuNjUsMC43NiwwLjg3LDEuMTljMC4yMSwwLjQ0LDAuMzIsMC45NCwwLjMyLDEuNWMwLDAuNzUtMC4xNSwxLjM4LTAuNDQsMS44OSAgICAgIGMtMC4yOSwwLjUyLTAuNjgsMC45NC0xLjE4LDEuMjdjLTAuNSwwLjMyLTEuMDcsMC41NS0xLjcxLDAuN2MtMC42NSwwLjE0LTEuMzQsMC4yMi0yLjA1LDAuMjJjLTAuMjQsMC0wLjU0LTAuMDItMC44OS0wLjA2ICAgICAgcy0wLjcxLTAuMS0xLjA4LTAuMTdjLTAuMzYtMC4wOC0wLjcxLTAuMTctMS4wNC0wLjI4QzAuNDYsNzIuMzMsMC4yLDcyLjIxLDAsNzIuMDh6Ii8+JiN4YTsJCQk8L2c+JiN4YTsJCQk8ZyBpZD0ic2hhcGUxMDc2LTEzIiB0cmFuc2Zvcm09InRyYW5zbGF0ZSgzMy43OTgxLC0wLjI1NTgwMSkiPiYjeGE7CQkJCTx0aXRsZSBpZD0idGl0bGUxOTgwNjkiPlNoZWV0LjEwNzY8L3RpdGxlPiYjeGE7CQkJCTxwYXRoIGlkPSJwYXRoMTk4MDcxIiBpbmtzY2FwZTpjb25uZWN0b3ItY3VydmF0dXJlPSIwIiBzdHlsZT0iZmlsbDojRkZGRkZGOyIgZD0iTTEwLjUsNTkuNDFINi4xM3YxMy41NEg0LjM2VjU5LjQxSDB2LTEuNiAgICAgIGgxMC41VjU5LjQxeiIvPiYjeGE7CQkJPC9nPiYjeGE7CQk8L2c+JiN4YTsJPC9nPiYjeGE7PC9nPiYjeGE7PC9zdmc+;" vertex="1" parent="1">
          <mxGeometry x="166" y="659" width="58" height="58" as="geometry" />
        </mxCell>
        <mxCell id="bEVf-RL3vcpq9Qt6OURH-14" value="" style="shape=image;verticalLabelPosition=bottom;labelBackgroundColor=#ffffff;verticalAlign=top;aspect=fixed;imageAspect=0;image=data:image/svg+xml,PHN2ZyB4bWxuczpjYz0iaHR0cDovL2NyZWF0aXZlY29tbW9ucy5vcmcvbnMjIiB4bWxuczpkYz0iaHR0cDovL3B1cmwub3JnL2RjL2VsZW1lbnRzLzEuMS8iIHhtbG5zOmlua3NjYXBlPSJodHRwOi8vd3d3Lmlua3NjYXBlLm9yZy9uYW1lc3BhY2VzL2lua3NjYXBlIiB4bWxuczpyZGY9Imh0dHA6Ly93d3cudzMub3JnLzE5OTkvMDIvMjItcmRmLXN5bnRheC1ucyMiIHhtbG5zOnNvZGlwb2RpPSJodHRwOi8vc29kaXBvZGkuc291cmNlZm9yZ2UubmV0L0RURC9zb2RpcG9kaS0wLmR0ZCIgeG1sbnM6c3ZnPSJodHRwOi8vd3d3LnczLm9yZy8yMDAwL3N2ZyIgeG1sbnM9Imh0dHA6Ly93d3cudzMub3JnLzIwMDAvc3ZnIiB4bWxuczp4bGluaz0iaHR0cDovL3d3dy53My5vcmcvMTk5OS94bGluayIgdmVyc2lvbj0iMS4xIiBpZD0ic3ZnMTY2NTAyIiBpbmtzY2FwZTp2ZXJzaW9uPSIwLjkyLjMgKDI0MDU1NDYsIDIwMTgtMDMtMTEpIiBzb2RpcG9kaTpkb2NuYW1lPSJkb2NrZXJfdG9vbHMuc3ZnIiB4PSIwcHgiIHk9IjBweCIgdmlld0JveD0iMCAwIDk5LjIyIDgzLjI0IiBzdHlsZT0iZW5hYmxlLWJhY2tncm91bmQ6bmV3IDAgMCA5OS4yMiA4My4yNDsiIHhtbDpzcGFjZT0icHJlc2VydmUiPiYjeGE7PHNvZGlwb2RpOm5hbWVkdmlldyBib3JkZXJjb2xvcj0iIzY2NjY2NiIgYm9yZGVyb3BhY2l0eT0iMSIgZml0LW1hcmdpbi1ib3R0b209IjAiIGZpdC1tYXJnaW4tbGVmdD0iMCIgZml0LW1hcmdpbi1yaWdodD0iMCIgZml0LW1hcmdpbi10b3A9IjAiIGdyaWR0b2xlcmFuY2U9IjEwIiBndWlkZXRvbGVyYW5jZT0iMTAiIGlkPSJuYW1lZHZpZXcxNjY1MDQiIGlua3NjYXBlOmN1cnJlbnQtbGF5ZXI9InN2ZzE2NjUwMiIgaW5rc2NhcGU6Y3g9IjY2LjE0MTY1NiIgaW5rc2NhcGU6Y3k9IjU1LjQ5MzEwOCIgaW5rc2NhcGU6cGFnZW9wYWNpdHk9IjAiIGlua3NjYXBlOnBhZ2VzaGFkb3c9IjIiIGlua3NjYXBlOndpbmRvdy1oZWlnaHQ9IjEwMTciIGlua3NjYXBlOndpbmRvdy1tYXhpbWl6ZWQ9IjEiIGlua3NjYXBlOndpbmRvdy13aWR0aD0iMTkyMCIgaW5rc2NhcGU6d2luZG93LXg9Ii04IiBpbmtzY2FwZTp3aW5kb3cteT0iLTgiIGlua3NjYXBlOnpvb209IjYuNTk5MDg5OCIgb2JqZWN0dG9sZXJhbmNlPSIxMCIgcGFnZWNvbG9yPSIjZmZmZmZmIiBzaG93Z3JpZD0iZmFsc2UiPiYjeGE7CTwvc29kaXBvZGk6bmFtZWR2aWV3PiYjeGE7PGcgaWQ9ImcxNjY1MDAiIHRyYW5zZm9ybT0idHJhbnNsYXRlKC03LjY1LC03LjY0OTMyOSkiPiYjeGE7CTx0aXRsZSBpZD0idGl0bGUxNjYzODQiPlBhZ2UtMTwvdGl0bGU+JiN4YTsJPGcgaWQ9Imdyb3VwMTM3Ny0xIiB0cmFuc2Zvcm09InRyYW5zbGF0ZSg3LjY1LC03LjE0MTc0KSI+JiN4YTsJCTx0aXRsZSBpZD0idGl0bGUxNjYzODYiPkRvY2tlciBUb29sczwvdGl0bGU+JiN4YTsJCTxnIGlkPSJzaGFwZTEzNzgtMiIgdHJhbnNmb3JtPSJ0cmFuc2xhdGUoMC4wNjc0MTM3KSI+JiN4YTsJCQk8dGl0bGUgaWQ9InRpdGxlMTY2Mzg4Ij5kb2NrZXJfNF88L3RpdGxlPiYjeGE7CQkJPHBhdGggaWQ9InBhdGgxNjYzOTAiIGlua3NjYXBlOmNvbm5lY3Rvci1jdXJ2YXR1cmU9IjAiIHN0eWxlPSJmaWxsOiMzRjU3NjU7IiBkPSJNNzMuMzksOTIuNzljMi4yMy0xLjkxLDQuNDYtMy44Myw2LjY5LTUuNzUgICAgIGMwLjc2LTAuNjYsMS41OS0xLjM0LDIuMzUtMi4wM2MtMC42MS0wLjc2LTEuNjItMS4zMS0yLjQ4LTEuNjRjLTEuNzMtMC42Ni0zLjQ0LTAuNDQtNS4wMywwLjQ4Yy0yLjA5LDEuMi0yLjk3LDMuMTItMi44OSw1LjUgICAgIGMwLjAzLDAuOTQsMC4yOCwxLjg0LDAuNzgsMi42NEM3Mi45OCw5Mi4yNyw3My4xOCw5Mi41NCw3My4zOSw5Mi43OXogTTc1Ljk3LDk0LjZjMS4xLDAuMzgsMi4zNCwwLjMzLDMuNDcsMC4xNCAgICAgYzAuNTctMC4yNSwyLjA0LTAuODksMi41OC0wLjhsMC4wOCwwLjAyTDgyLjE4LDk0YzAuMzMsMC4xNiwwLjY0LDAuMzgsMC44MSwwLjcyYzAuNCwwLjc5LDAuMjEsMS41Ny0wLjU3LDIuMDJsLTAuMjUsMC4xNSAgICAgYy0yLjg1LDEuNjUtNS44OSwxLjQyLTguNzMtMC4xMmMtMS4zNi0wLjczLTIuNC0xLjgyLTMuMTctMy4xNmwtMC4xOC0wLjMxYy0xLjgzLTMuMTctMS41OC02LjUsMC40OC05LjUyICAgICBjMC43Mi0xLjA0LDEuNjUtMS44NSwyLjc0LTIuNDhsMC40MS0wLjIzYzIuNjktMS41NSw1LjU3LTEuNDUsOC4zMy0wLjA5YzEuNDgsMC43MywyLjY4LDEuODMsMy41MSwzLjI2bDAuMTUsMC4yNiAgICAgYzAuNiwxLjA0LTAuMTgsMS45NS0wLjk4LDIuNTdjLTAuOTQsMC43Mi0xLjg4LDEuNTktMi43OCwyLjM2Qzc5Ljk2LDkxLjE1LDc3Ljk3LDkyLjg4LDc1Ljk3LDk0LjZ6IE05Ny4zNCw4MC4xOGgwLjMgICAgIGMwLjksMCwxLjUxLDAuNjEsMS41MSwxLjVjMCwxLjI1LTEuMiwxLjU3LTIuMjIsMS41N2MtMS4zNiwwLTIuNjQsMC44MS0zLjU3LDEuNzNjLTEuMTcsMS4xNS0xLjY3LDIuNjEtMS42Nyw0LjIydjcuMjggICAgIGMwLDAuODMtMC41MiwxLjUxLTEuMzksMS41MWgtMC4yNGMtMC44NiwwLTEuMzgtMC42OC0xLjM4LTEuNTF2LTcuN2MwLTIuOTUsMS40NC01LjM2LDMuODQtNy4wNiAgICAgQzkzLjk1LDgwLjcxLDk1LjU5LDgwLjE4LDk3LjM0LDgwLjE4eiBNNTkuODcsODUuMzRjMS4xNi0xLjE3LDIuMzQtMi4zMywzLjUyLTMuNDhjMC4zMy0wLjMyLDEuNTgtMS42OCwyLjA4LTEuNjhINjZsMC4wNiwwLjAxICAgICBjMC42OSwwLjE0LDEuMiwwLjU4LDEuMiwxLjMxdjAuM2MwLDAuNS0wLjU5LDEuMDktMC45MSwxLjQzYy0wLjY5LDAuNzQtMS40MiwxLjQ0LTIuMTMsMi4xNmwtMy42MywzLjY5ICAgICBjMS41NywxLjU2LDMuMTMsMy4xMyw0LjY4LDQuNzFjMC40MywwLjQ0LDAuODYsMC44OCwxLjI4LDEuMzJjMC4xNSwwLjE2LDAuMzcsMC4zNSwwLjUsMC41N2MwLjEzLDAuMjEsMC4yMSwwLjQ0LDAuMjEsMC42OHYwLjMxICAgICBsLTAuMDEsMC4wN2MtMC4xNywwLjY5LTAuNjEsMS4yNC0xLjM3LDEuMjRoLTAuMjRjLTAuNSwwLTEuMDYtMC41Ni0xLjQtMC44OGMtMC43LTAuNjYtMS4zOC0xLjM2LTIuMDctMi4wM2wtMi4zMS0yLjI3djMuNjIgICAgIGMwLDAuODQtMC41MiwxLjUxLTEuMzgsMS41MWgtMC4yNGMtMC44NiwwLTEuMzgtMC42Ny0xLjM4LTEuNTFWNzYuMDFjMC0wLjgzLDAuNTItMS41LDEuMzgtMS41aDAuMjRjMC44NiwwLDEuMzgsMC42NywxLjM4LDEuNSAgICAgTDU5Ljg3LDg1LjM0TDU5Ljg3LDg1LjM0eiBNNTAuMTIsODMuMzFjLTAuNDYtMC4yMS0xLjMxLTAuMjktMS44LTAuM2MtMi41MS0wLjEtNC4zMywxLjMyLTUuNCwzLjUzICAgICBjLTAuMzYsMC43Ny0wLjUzLDEuNTgtMC41MywyLjQyYzAsMi41OCwxLjM1LDQuMzgsMy42NSw1LjQ4YzAuODQsMC40LDEuOTIsMC40OCwyLjg0LDAuNDhjMC44MSwwLDEuOTUtMC41LDIuNjYtMC44NGwwLjEzLTAuMDYgICAgIGgwLjU2bDAuMDYsMC4wMmMwLjY4LDAuMTQsMS4yLDAuNTcsMS4yLDEuMzF2MC4zYzAsMS44My0zLjM1LDIuMjUtNC42MywyLjM0Yy00LjUsMC4zMS03Ljg3LTIuMTctOS4xNS02LjQ2ICAgICBjLTAuMjMtMC43NS0wLjMzLTEuNDktMC4zMy0yLjI3di0wLjZjMC0zLjI2LDEuNjItNS44NCw0LjQyLTcuNWMxLjMtMC43NywyLjczLTEuMTYsNC4yNS0xLjE2aDAuNTljMS42LDAsMy4wOCwwLjQ1LDQuNCwxLjM2ICAgICBsMC4xMSwwLjA3bDAuMDcsMC4xMmMwLjE0LDAuMjMsMC4yNywwLjUxLDAuMjcsMC43OXYwLjNjMCwwLjc2LTAuNTgsMS4xOC0xLjI3LDEuMzFsLTAuMDYsMC4wMWgtMC4xOCAgICAgQzUxLjUzLDgzLjk2LDUwLjUyLDgzLjUsNTAuMTIsODMuMzF6IE0yMi43LDg5LjAyYzAsMi4yOSwxLjEyLDMuOTcsMy4wNSw1LjE1YzAuOTEsMC41NiwxLjksMC44MSwyLjk2LDAuODEgICAgIGMyLjI2LDAsMy45My0xLjE1LDUuMDktMy4wNWMwLjU2LTAuOTEsMC44MS0xLjkxLDAuODEtMi45N2MwLTIuMTItMS4wMy0zLjc1LTIuNzgtNC45MmMtMC45Ni0wLjY1LTIuMDItMC45Ny0zLjE4LTAuOTcgICAgIGMtMi41MiwwLTQuMzMsMS4yNy01LjQyLDMuNTNDMjIuODYsODcuMzYsMjIuNyw4OC4xOCwyMi43LDg5LjAyeiBNMjguMzUsODAuMDZoMC40MmMzLjQ5LDAsNi4xNCwxLjY5LDcuODEsNC43MyAgICAgYzAuNjgsMS4yMiwxLjAzLDIuNTQsMS4wMywzLjk0djAuNTljMCwzLjI2LTEuNiw1Ljg2LTQuNDEsNy41MWMtMS4zLDAuNzYtMi43NCwxLjE1LTQuMjUsMS4xNWgtMC42Yy0zLjI2LDAtNS44NS0xLjYxLTcuNS00LjQxICAgICBjLTAuNzctMS4zLTEuMTYtMi43NC0xLjE2LTQuMjV2LTAuNTljMC0zLjI3LDEuNjItNS44NSw0LjQxLTcuNTFDMjUuNDEsODAuNDUsMjYuODQsODAuMDYsMjguMzUsODAuMDZ6IE0zLjAxLDg5LjAyICAgICBjMCwyLjM2LDEuMTQsNC4xMywzLjIsNS4yNmMwLjg0LDAuNDUsMS43NCwwLjcsMi42OSwwLjdjMi4zMSwwLDQuMDMtMS4wOSw1LjIxLTMuMDVjMC41NS0wLjkxLDAuODEtMS45MSwwLjgxLTIuOTcgICAgIGMwLTIuMDQtMC45Ny0zLjYzLTIuNjItNC44MmMtMC45OS0wLjcxLTIuMTItMS4wNy0zLjM0LTEuMDdjLTIuNTIsMC00LjMzLDEuMjctNS40MiwzLjUzQzMuMTcsODcuMzYsMy4wMSw4OC4xOCwzLjAxLDg5LjAyeiAgICAgIE0xNC45Miw4Mi4zdi02LjM1YzAtMC44MywwLjUyLTEuNSwxLjM4LTEuNWgwLjI0YzAuODcsMCwxLjM4LDAuNjcsMS4zOCwxLjV2MTMuMzdjMCwzLjI2LTEuNjEsNS44NS00LjQxLDcuNTEgICAgIGMtMS4zLDAuNzYtMi43NCwxLjE2LTQuMjUsMS4xNmgtMC42Yy0zLjI2LDAtNS44NS0xLjYyLTcuNS00LjQyQzAuMzksOTIuMjcsMCw5MC44MywwLDg5LjMydi0wLjU5YzAtMy4yNiwxLjYxLTUuODYsNC40MS03LjUxICAgICBjMS4zMS0wLjc3LDIuNzQtMS4xNiw0LjI1LTEuMTZoMC42QzExLjQ3LDgwLjA2LDEzLjM0LDgwLjkxLDE0LjkyLDgyLjN6Ii8+JiN4YTsJCTwvZz4mI3hhOwkJPGcgaWQ9InNoYXBlMTM3OS00IiB0cmFuc2Zvcm09InRyYW5zbGF0ZSgxMS44MzQzLC0yNy41NDkzKSI+JiN4YTsJCQk8dGl0bGUgaWQ9InRpdGxlMTY2MzkzIj5vdXRsaW5lXzdfPC90aXRsZT4mI3hhOwkJCTxwYXRoIGlkPSJwYXRoMTY2Mzk1IiBpbmtzY2FwZTpjb25uZWN0b3ItY3VydmF0dXJlPSIwIiBzdHlsZT0iZmlsbDojMzk0RDU0OyIgZD0iTTQ1LjQsNjAuMDloOC44N3Y5LjA3aDQuNDkgICAgIGMyLjA3LDAsNC4yLTAuMzcsNi4xNi0xLjA0YzAuOTYtMC4zMiwyLjA1LTAuNzgsMy0xLjM1Yy0xLjI2LTEuNjQtMS44OS0zLjctMi4wOC01Ljc0Yy0wLjI2LTIuNzYsMC4zLTYuMzcsMi4xNy04LjUzbDAuOTQtMS4wOCAgICAgbDEuMTEsMC44OWMyLjgsMi4yNSw1LjE1LDUuMzksNS41Niw4Ljk3YzMuMzctMC45OSw3LjMzLTAuNzYsMTAuMywwLjk2bDEuMjIsMC43bC0wLjY0LDEuMjVjLTIuNTIsNC45MS03Ljc3LDYuNDItMTIuOSw2LjE1ICAgICBjLTcuNjgsMTkuMTQtMjQuNDEsMjguMi00NC42OCwyOC4yYy0xMC40OCwwLTIwLjA5LTMuOTItMjUuNTctMTMuMjJsLTAuMDktMC4xNWwtMC43OS0xLjYyQzAuNjIsNzkuNDYsMCw3NC45OCwwLjQyLDcwLjUgICAgIGwwLjEyLTEuMzRoNy41OXYtOS4wN0gxN3YtOC44OGgxNy43NXYtOC44N2gxMC42NHYxNy43NUg0NS40eiIvPiYjeGE7CQk8L2c+JiN4YTsJCTxnIGlkPSJncm91cDEzODAtNiIgdHJhbnNmb3JtPSJ0cmFuc2xhdGUoMTMuMjcwMywtMjkuMDI4NikiPiYjeGE7CQkJPHRpdGxlIGlkPSJ0aXRsZTE2NjM5OCI+Ym9keV9jb2xvcnNfOF88L3RpdGxlPiYjeGE7CQkJPGcgaWQ9InNoYXBlMTM4MS03Ij4mI3hhOwkJCQk8dGl0bGUgaWQ9InRpdGxlMTY2NDAwIj5TaGVldC4xMzgxPC90aXRsZT4mI3hhOwkJCQk8cGF0aCBpZD0icGF0aDE2NjQwMiIgaW5rc2NhcGU6Y29ubmVjdG9yLWN1cnZhdHVyZT0iMCIgc3R5bGU9ImZpbGw6IzAwQUFEQTsiIGQ9Ik03Mi43MSw2NC45MmMwLjU5LTQuNjItMi44Ny04LjI1LTUuMDItOS45OCAgICAgIGMtMi40NywyLjg2LTIuODUsMTAuMzUsMS4wMywxMy41MWMtMi4xNywxLjkyLTYuNzMsMy42Ni0xMS40LDMuNjZIMC40NUMwLDc2Ljk5LDAuODYsODEuNDgsMi44MSw4NS4zM2wwLjY1LDEuMTggICAgICBjMC40MSwwLjY5LDAuODYsMS4zNiwxLjM0LDIuMDFsMCwwYzIuMzQsMC4xNSw0LjQ5LDAuMiw2LjQ2LDAuMTZjMCwwLDAsMCwwLjAxLDBjMy44Ny0wLjA5LDcuMDMtMC41NCw5LjQzLTEuMzcgICAgICBjMC4zNi0wLjEzLDAuNzUsMC4wNiwwLjg3LDAuNDJjMC4xMiwwLjM1LTAuMDcsMC43NC0wLjQyLDAuODdjLTAuMzIsMC4xMS0wLjY1LDAuMjEtMSwwLjMxbDAsMGMtMS44OSwwLjU0LTMuOTEsMC45LTYuNTIsMS4wNiAgICAgIGMwLjE2LDAtMC4xNiwwLjAyLTAuMTYsMC4wMmMtMC4wOSwwLjAxLTAuMiwwLjAyLTAuMjksMC4wM2MtMS4wMywwLjA1LTIuMTQsMC4wNy0zLjI3LDAuMDdjLTEuMjQsMC0yLjQ2LTAuMDMtMy44My0wLjEgICAgICBsLTAuMDMsMC4wM2M0LjczLDUuMzIsMTIuMTQsOC41MiwyMS40Myw4LjUyYzE5LjY1LDAsMzYuMzItOC43Miw0My43LTI4LjI4YzUuMjQsMC41NCwxMC4yNy0wLjc5LDEyLjU2LTUuMjYgICAgICBDODAuMSw2Mi44OSw3NS40MSw2My41Niw3Mi43MSw2NC45MnoiLz4mI3hhOwkJCTwvZz4mI3hhOwkJCTxnIGlkPSJzaGFwZTEzODItOSIgdHJhbnNmb3JtPSJ0cmFuc2xhdGUoMy41ODk0NiwtNS4xNDc2MSkiPiYjeGE7CQkJCTx0aXRsZSBpZD0idGl0bGUxNjY0MDUiPlNoZWV0LjEzODI8L3RpdGxlPiYjeGE7CQkJCTxwYXRoIGlkPSJwYXRoMTY2NDA3IiBpbmtzY2FwZTpjb25uZWN0b3ItY3VydmF0dXJlPSIwIiBzdHlsZT0iZmlsbDojMjRCOEVCOyIgZD0iTTY5LjEyLDcwLjA3YzAuNTktNC42My0yLjg3LTguMjYtNS4wMS05Ljk4ICAgICAgYy0yLjQ4LDIuODYtMi44NiwxMC4zNSwxLjAyLDEzLjUxYy0yLjE3LDEuOTItNi43MywzLjY2LTExLjQsMy42NkgwLjIzQzAsODQuNzMsMi43Nyw5MC40LDcuNjcsOTMuODNjMCwwLDAsMCwwLjAxLDAgICAgICBjMy44Ny0wLjA5LDcuMDMtMC41NSw5LjQzLTEuMzhjMC4zNi0wLjEyLDAuNzUsMC4wNywwLjg3LDAuNDNjMC4xMiwwLjM1LTAuMDcsMC43NC0wLjQyLDAuODZjLTAuMzIsMC4xMi0wLjY1LDAuMjItMSwwLjMybDAsMCAgICAgIGMtMS44OSwwLjUzLTQuMDgsMC45NC02LjY5LDEuMTFjMCwwLTAuMDctMC4wNy0wLjA3LTAuMDZjNi42OSwzLjQzLDE2LjM5LDMuNDEsMjcuNTEtMC44NmMxMi40Ny00Ljc5LDI0LjA3LTEzLjkxLDMyLjE2LTI0LjM1ICAgICAgQzY5LjM1LDY5Ljk1LDY5LjIzLDcwLjAxLDY5LjEyLDcwLjA3eiIvPiYjeGE7CQkJPC9nPiYjeGE7CQkJPGcgaWQ9InNoYXBlMTM4My0xMSIgdHJhbnNmb3JtPSJ0cmFuc2xhdGUoMC41NjA5MzMpIj4mI3hhOwkJCQk8dGl0bGUgaWQ9InRpdGxlMTY2NDEwIj5TaGVldC4xMzgzPC90aXRsZT4mI3hhOwkJCQk8cGF0aCBpZD0icGF0aDE2NjQxMiIgaW5rc2NhcGU6Y29ubmVjdG9yLWN1cnZhdHVyZT0iMCIgc3R5bGU9ImZpbGw6IzAwOEJCODsiIGQ9Ik0wLDc4LjA0YzAuMzUsMi42MSwxLjEyLDUuMDYsMi4yNSw3LjI4ICAgICAgbDAuNjUsMS4xOWMwLjQxLDAuNjksMC44NSwxLjM2LDEuMzQsMi4wMWMyLjM0LDAuMTUsNC40OSwwLjIsNi40NiwwLjE2YzMuODgtMC4wOSw3LjA0LTAuNTQsOS40NC0xLjM4ICAgICAgYzAuMzYtMC4xMiwwLjc0LDAuMDcsMC44NywwLjQzYzAuMTIsMC4zNS0wLjA3LDAuNzQtMC40MiwwLjg3Yy0wLjMyLDAuMTEtMC42NiwwLjIxLTEsMC4zMWwwLDBjLTEuODksMC41NC00LjA3LDAuOTItNi42OCwxLjA4ICAgICAgQzEyLjgyLDkwLDEyLjY2LDkwLDEyLjU3LDkwLjAxYy0xLjAyLDAuMDUtMi4xMiwwLjA5LTMuMjYsMC4wOWMtMS4yNCwwLTIuNTEtMC4wMi0zLjg3LTAuMDljNC43NCw1LjMyLDEyLjE5LDguNTMsMjEuNDgsOC41MyAgICAgIGMxNi44MiwwLDMxLjQ2LTYuMzksMzkuOTYtMjAuNUwwLDc4LjA0eiIvPiYjeGE7CQkJPC9nPiYjeGE7CQkJPGcgaWQ9InNoYXBlMTM4NC0xMyIgdHJhbnNmb3JtPSJ0cmFuc2xhdGUoNC4zMzM1NiwtNS4xMTE5OSkiPiYjeGE7CQkJCTx0aXRsZSBpZD0idGl0bGUxNjY0MTUiPlNoZWV0LjEzODQ8L3RpdGxlPiYjeGE7CQkJCTxwYXRoIGlkPSJwYXRoMTY2NDE3IiBpbmtzY2FwZTpjb25uZWN0b3ItY3VydmF0dXJlPSIwIiBzdHlsZT0iZmlsbDojMDM5QkM2OyIgZD0iTTAsODMuMTVjMS4wMSw0LjU5LDMuNDIsOC4xOSw2LjkzLDEwLjY0ICAgICAgYzMuODgtMC4wOCw3LjA0LTAuNTQsOS40NC0xLjM3YzAuMzUtMC4xMywwLjc0LDAuMDYsMC44NywwLjQyYzAuMTIsMC4zNi0wLjA3LDAuNzQtMC40MywwLjg3Yy0wLjMyLDAuMTEtMC42NSwwLjIxLTAuOTksMC4zMSAgICAgIGwwLDBjLTEuODksMC41NC00LjEyLDAuOTItNi43MywxLjA5YzYuNjksMy40MywxNi4zNiwzLjM4LDI3LjQ3LTAuODljNi43My0yLjU5LDEzLjItNi40MywxOS4wMS0xMS4wN0wwLDgzLjE1eiIvPiYjeGE7CQkJPC9nPiYjeGE7CQk8L2c+JiN4YTsJCTxnIGlkPSJzaGFwZTEzODUtMTUiIHRyYW5zZm9ybT0idHJhbnNsYXRlKDE2Ljk1OSwtMzcuNTAzNikiPiYjeGE7CQkJPHRpdGxlIGlkPSJ0aXRsZTE2NjQyMSI+U2hlZXQuMTM4NTwvdGl0bGU+JiN4YTsJCQk8cGF0aCBpZD0icGF0aDE2NjQyMyIgaW5rc2NhcGU6Y29ubmVjdG9yLWN1cnZhdHVyZT0iMCIgc3R5bGU9ImZpbGw6IzM5NEQ1NDsiIGQ9Ik02LjIsOTguNTRjMS4xMywwLDIuMjEtMC4wMywzLjI0LTAuMDkgICAgIGMwLjA5LTAuMDEsMC4xNy0wLjAxLDAuMjYtMC4wMmMwLjAxLDAsMC4wMSwwLDAuMDEsMGMyLjYxLTAuMTYsNC44Ny0wLjUxLDYuNzUtMS4wNWwwLDBjMC4zNS0wLjA5LDAuNjgtMC4yLDEtMC4zMSAgICAgYzAuMzUtMC4xMiwwLjU0LTAuNTEsMC40Mi0wLjg3Yy0wLjEyLTAuMzUtMC41MS0wLjU0LTAuODctMC40MmMtMi40LDAuODMtNS41NiwxLjI5LTkuNDMsMS4zN2wwLDBjLTEuOTgsMC4wNS00LjEzLDAtNi40Ny0wLjE1ICAgICBsMCwwYy0wLjEyLTAuMDEtMC4yNC0wLjAyLTAuMzYtMC4wM2MtMC4zNy0wLjAyLTAuNywwLjI2LTAuNzIsMC42NGMtMC4wMywwLjM3LDAuMjUsMC43LDAuNjMsMC43MyAgICAgYzAuNDgsMC4wMywwLjk1LDAuMDYsMS40MSwwLjA4YzAuMDcsMCwwLjE0LDAuMDEsMC4yMiwwLjAxQzMuNjUsOTguNSw0Ljk2LDk4LjU0LDYuMiw5OC41NEw2LjIsOTguNTR6Ii8+JiN4YTsJCTwvZz4mI3hhOwkJPGcgaWQ9Imdyb3VwMTM4Ni0xNyIgdHJhbnNmb3JtPSJ0cmFuc2xhdGUoMjEuNDQyNiwtNTYuODI5NykiPiYjeGE7CQkJPHRpdGxlIGlkPSJ0aXRsZTE2NjQyNiI+Q29udGFpbmVyc184XzwvdGl0bGU+JiN4YTsJCQk8ZyBpZD0ic2hhcGUxMzg3LTE4Ij4mI3hhOwkJCQk8dGl0bGUgaWQ9InRpdGxlMTY2NDI4Ij5TaGVldC4xMzg3PC90aXRsZT4mI3hhOwkJCQk8cGF0aCBpZD0icGF0aDE2NjQzMCIgaW5rc2NhcGU6Y29ubmVjdG9yLWN1cnZhdHVyZT0iMCIgc3R5bGU9ImZpbGw6IzAwQUNEMzsiIGQ9Ik02LjQ0LDkxLjQ5aDAuNjF2Ni40SDYuNDRWOTEuNDl6IE01LjI4LDkxLjQ5ICAgICAgaDAuNjN2Ni40SDUuMjhWOTEuNDl6IE00LjExLDkxLjQ5aDAuNjN2Ni40SDQuMTFWOTEuNDl6IE0yLjk1LDkxLjQ5aDAuNjN2Ni40SDIuOTVMMi45NSw5MS40OXogTTEuNzgsOTEuNDloMC42M3Y2LjRIMS43OCAgICAgIEwxLjc4LDkxLjQ5eiBNMC42NCw5MS40OWgwLjYxdjYuNEgwLjY0TDAuNjQsOTEuNDl6IE0wLDkwLjg1aDcuNjl2Ny42OUgwVjkwLjg1eiIvPiYjeGE7CQkJPC9nPiYjeGE7CQkJPGcgaWQ9InNoYXBlMTM4OC0yMCIgdHJhbnNmb3JtPSJ0cmFuc2xhdGUoOC44NzE5LC04Ljg3MzE3KSI+JiN4YTsJCQkJPHRpdGxlIGlkPSJ0aXRsZTE2NjQzMyI+U2hlZXQuMTM4ODwvdGl0bGU+JiN4YTsJCQkJPHBhdGggaWQ9InBhdGgxNjY0MzUiIGlua3NjYXBlOmNvbm5lY3Rvci1jdXJ2YXR1cmU9IjAiIHN0eWxlPSJmaWxsOiMwMEFDRDM7IiBkPSJNNi40NCw5MS40OWgwLjYxdjYuNDFINi40NFY5MS40OXogICAgICAgTTUuMjgsOTEuNDloMC42M3Y2LjQxSDUuMjhWOTEuNDl6IE00LjExLDkxLjQ5aDAuNjN2Ni40MUg0LjExVjkxLjQ5eiBNMi45NSw5MS40OWgwLjYzdjYuNDFIMi45NUwyLjk1LDkxLjQ5eiBNMS43OCw5MS40OSAgICAgIGgwLjYzdjYuNDFIMS43OEwxLjc4LDkxLjQ5eiBNMC42NCw5MS40OWgwLjYxdjYuNDFIMC42NEwwLjY0LDkxLjQ5eiBNMCw5MC44NWg3LjY5djcuNjlIMFY5MC44NXoiLz4mI3hhOwkJCTwvZz4mI3hhOwkJCTxnIGlkPSJzaGFwZTEzODktMjIiIHRyYW5zZm9ybT0idHJhbnNsYXRlKDguODcxOSkiPiYjeGE7CQkJCTx0aXRsZSBpZD0idGl0bGUxNjY0MzgiPlNoZWV0LjEzODk8L3RpdGxlPiYjeGE7CQkJCTxwYXRoIGlkPSJwYXRoMTY2NDQwIiBpbmtzY2FwZTpjb25uZWN0b3ItY3VydmF0dXJlPSIwIiBzdHlsZT0iZmlsbDojMjBDMkVGOyIgZD0iTTYuNDQsOTEuNDloMC42MXY2LjRINi40NFY5MS40OXogTTUuMjgsOTEuNDkgICAgICBoMC42M3Y2LjRINS4yOFY5MS40OXogTTQuMTEsOTEuNDloMC42M3Y2LjRINC4xMVY5MS40OXogTTIuOTUsOTEuNDloMC42M3Y2LjRIMi45NUwyLjk1LDkxLjQ5eiBNMS43OCw5MS40OWgwLjYzdjYuNEgxLjc4ICAgICAgTDEuNzgsOTEuNDl6IE0wLjY0LDkxLjQ5aDAuNjF2Ni40SDAuNjRMMC42NCw5MS40OXogTTAsOTAuODVoNy42OXY3LjY5SDBWOTAuODV6Ii8+JiN4YTsJCQk8L2c+JiN4YTsJCQk8ZyBpZD0ic2hhcGUxMzkwLTI0IiB0cmFuc2Zvcm09InRyYW5zbGF0ZSgxNy43NDYzKSI+JiN4YTsJCQkJPHRpdGxlIGlkPSJ0aXRsZTE2NjQ0MyI+U2hlZXQuMTM5MDwvdGl0bGU+JiN4YTsJCQkJPHBhdGggaWQ9InBhdGgxNjY0NDUiIGlua3NjYXBlOmNvbm5lY3Rvci1jdXJ2YXR1cmU9IjAiIHN0eWxlPSJmaWxsOiMwMEFDRDM7IiBkPSJNNi40NCw5MS40OWgwLjYxdjYuNEg2LjQ0VjkxLjQ5eiBNNS4yOCw5MS40OSAgICAgIGgwLjYzdjYuNEg1LjI4VjkxLjQ5eiBNNC4xMSw5MS40OWgwLjYzdjYuNEg0LjExVjkxLjQ5eiBNMi45NSw5MS40OWgwLjYzdjYuNEgyLjk1TDIuOTUsOTEuNDl6IE0xLjc4LDkxLjQ5aDAuNjN2Ni40SDEuNzggICAgICBMMS43OCw5MS40OXogTTAuNjQsOTEuNDloMC42MXY2LjRIMC42NEwwLjY0LDkxLjQ5eiBNMCw5MC44NWg3LjY5djcuNjlIMFY5MC44NXoiLz4mI3hhOwkJCTwvZz4mI3hhOwkJCTxnIGlkPSJzaGFwZTEzOTEtMjYiIHRyYW5zZm9ybT0idHJhbnNsYXRlKDE3Ljc0NjMsLTguODczMTcpIj4mI3hhOwkJCQk8dGl0bGUgaWQ9InRpdGxlMTY2NDQ4Ij5TaGVldC4xMzkxPC90aXRsZT4mI3hhOwkJCQk8cGF0aCBpZD0icGF0aDE2NjQ1MCIgaW5rc2NhcGU6Y29ubmVjdG9yLWN1cnZhdHVyZT0iMCIgc3R5bGU9ImZpbGw6IzIwQzJFRjsiIGQ9Ik02LjQ0LDkxLjQ5aDAuNjF2Ni40MUg2LjQ0VjkxLjQ5eiAgICAgICBNNS4yOCw5MS40OWgwLjYzdjYuNDFINS4yOFY5MS40OXogTTQuMTEsOTEuNDloMC42M3Y2LjQxSDQuMTFWOTEuNDl6IE0yLjk1LDkxLjQ5aDAuNjN2Ni40MUgyLjk1TDIuOTUsOTEuNDl6IE0xLjc4LDkxLjQ5ICAgICAgaDAuNjN2Ni40MUgxLjc4TDEuNzgsOTEuNDl6IE0wLjY0LDkxLjQ5aDAuNjF2Ni40MUgwLjY0TDAuNjQsOTEuNDl6IE0wLDkwLjg1aDcuNjl2Ny42OUgwVjkwLjg1eiIvPiYjeGE7CQkJPC9nPiYjeGE7CQkJPGcgaWQ9InNoYXBlMTM5Mi0yOCIgdHJhbnNmb3JtPSJ0cmFuc2xhdGUoMjYuNjE4MikiPiYjeGE7CQkJCTx0aXRsZSBpZD0idGl0bGUxNjY0NTMiPlNoZWV0LjEzOTI8L3RpdGxlPiYjeGE7CQkJCTxwYXRoIGlkPSJwYXRoMTY2NDU1IiBpbmtzY2FwZTpjb25uZWN0b3ItY3VydmF0dXJlPSIwIiBzdHlsZT0iZmlsbDojMjBDMkVGOyIgZD0iTTYuNDQsOTEuNDloMC42MXY2LjRINi40NFY5MS40OXogTTUuMjgsOTEuNDkgICAgICBoMC42M3Y2LjRINS4yOFY5MS40OXogTTQuMTEsOTEuNDloMC42M3Y2LjRINC4xMVY5MS40OXogTTIuOTUsOTEuNDloMC42M3Y2LjRIMi45NUwyLjk1LDkxLjQ5eiBNMS43OCw5MS40OWgwLjYzdjYuNEgxLjc4ICAgICAgTDEuNzgsOTEuNDl6IE0wLjY0LDkxLjQ5aDAuNjF2Ni40SDAuNjRMMC42NCw5MS40OXogTTAsOTAuODVoNy42OXY3LjY5SDBWOTAuODV6Ii8+JiN4YTsJCQk8L2c+JiN4YTsJCQk8ZyBpZD0ic2hhcGUxMzkzLTMwIiB0cmFuc2Zvcm09InRyYW5zbGF0ZSgyNi42MTgyLC04Ljg3MzE3KSI+JiN4YTsJCQkJPHRpdGxlIGlkPSJ0aXRsZTE2NjQ1OCI+U2hlZXQuMTM5MzwvdGl0bGU+JiN4YTsJCQkJPHBhdGggaWQ9InBhdGgxNjY0NjAiIGlua3NjYXBlOmNvbm5lY3Rvci1jdXJ2YXR1cmU9IjAiIHN0eWxlPSJmaWxsOiMwMEFDRDM7IiBkPSJNNi40NCw5MS40OWgwLjYxdjYuNDFINi40NFY5MS40OXogICAgICAgTTUuMjgsOTEuNDloMC42M3Y2LjQxSDUuMjhWOTEuNDl6IE00LjExLDkxLjQ5aDAuNjN2Ni40MUg0LjExVjkxLjQ5eiBNMi45NSw5MS40OWgwLjYzdjYuNDFIMi45NUwyLjk1LDkxLjQ5eiBNMS43OCw5MS40OSAgICAgIGgwLjYzdjYuNDFIMS43OEwxLjc4LDkxLjQ5eiBNMC42NCw5MS40OWgwLjYxdjYuNDFIMC42NEwwLjY0LDkxLjQ5eiBNMCw5MC44NWg3LjY5djcuNjlIMFY5MC44NXoiLz4mI3hhOwkJCTwvZz4mI3hhOwkJCTxnIGlkPSJzaGFwZTEzOTQtMzIiIHRyYW5zZm9ybT0idHJhbnNsYXRlKDI2LjYxODIsLTE3Ljc0NjMpIj4mI3hhOwkJCQk8dGl0bGUgaWQ9InRpdGxlMTY2NDYzIj5TaGVldC4xMzk0PC90aXRsZT4mI3hhOwkJCQk8cGF0aCBpZD0icGF0aDE2NjQ2NSIgaW5rc2NhcGU6Y29ubmVjdG9yLWN1cnZhdHVyZT0iMCIgc3R5bGU9ImZpbGw6IzIwQzJFRjsiIGQ9Ik02LjQ0LDkxLjQ5aDAuNjF2Ni40MUg2LjQ0VjkxLjQ5eiAgICAgICBNNS4yOCw5MS40OWgwLjYzdjYuNDFINS4yOFY5MS40OXogTTQuMTEsOTEuNDloMC42M3Y2LjQxSDQuMTFWOTEuNDl6IE0yLjk1LDkxLjQ5aDAuNjN2Ni40MUgyLjk1TDIuOTUsOTEuNDl6IE0xLjc4LDkxLjQ5ICAgICAgaDAuNjN2Ni40MUgxLjc4TDEuNzgsOTEuNDl6IE0wLjY0LDkxLjQ5aDAuNjF2Ni40MUgwLjY0TDAuNjQsOTEuNDl6IE0wLDkwLjg1aDcuNjl2Ny42OUgwVjkwLjg1eiIvPiYjeGE7CQkJPC9nPiYjeGE7CQkJPGcgaWQ9InNoYXBlMTM5NS0zNCIgdHJhbnNmb3JtPSJ0cmFuc2xhdGUoMzUuNDkxNCkiPiYjeGE7CQkJCTx0aXRsZSBpZD0idGl0bGUxNjY0NjgiPlNoZWV0LjEzOTU8L3RpdGxlPiYjeGE7CQkJCTxwYXRoIGlkPSJwYXRoMTY2NDcwIiBpbmtzY2FwZTpjb25uZWN0b3ItY3VydmF0dXJlPSIwIiBzdHlsZT0iZmlsbDojMDBBQ0QzOyIgZD0iTTYuNDQsOTEuNDloMC42MXY2LjRINi40NFY5MS40OXogTTUuMjgsOTEuNDkgICAgICBoMC42M3Y2LjRINS4yOFY5MS40OXogTTQuMTEsOTEuNDloMC42M3Y2LjRINC4xMVY5MS40OXogTTIuOTUsOTEuNDloMC42M3Y2LjRIMi45NUwyLjk1LDkxLjQ5eiBNMS43OCw5MS40OWgwLjYzdjYuNEgxLjc4ICAgICAgTDEuNzgsOTEuNDl6IE0wLjY0LDkxLjQ5aDAuNjF2Ni40SDAuNjRMMC42NCw5MS40OXogTTAsOTAuODVoNy42OXY3LjY5SDBWOTAuODV6Ii8+JiN4YTsJCQk8L2c+JiN4YTsJCTwvZz4mI3hhOwkJPGcgaWQ9InNoYXBlMTM5Ni0zNiIgdHJhbnNmb3JtPSJ0cmFuc2xhdGUoMzUuNDAyNCwtNDAuMTIpIj4mI3hhOwkJCTx0aXRsZSBpZD0idGl0bGUxNjY0NzQiPlNoZWV0LjEzOTY8L3RpdGxlPiYjeGE7CQkJPHBhdGggaWQ9InBhdGgxNjY0NzYiIGlua3NjYXBlOmNvbm5lY3Rvci1jdXJ2YXR1cmU9IjAiIHN0eWxlPSJmaWxsOiNENEVERjE7IiBkPSJNMi4xMiw5NC4yOWMxLjE3LDAsMi4xMiwwLjk1LDIuMTIsMi4xMiAgICAgYzAsMS4xOC0wLjk1LDIuMTMtMi4xMiwyLjEzUzAsOTcuNTksMCw5Ni40MUMwLDk1LjI0LDAuOTUsOTQuMjksMi4xMiw5NC4yOXoiLz4mI3hhOwkJPC9nPiYjeGE7CQk8ZyBpZD0ic2hhcGUxMzk3LTM4IiB0cmFuc2Zvcm09InRyYW5zbGF0ZSgzNi4wMDQsLTQwLjcyMykiPiYjeGE7CQkJPHRpdGxlIGlkPSJ0aXRsZTE2NjQ3OSI+U2hlZXQuMTM5NzwvdGl0bGU+JiN4YTsJCQk8cGF0aCBpZD0icGF0aDE2NjQ4MSIgaW5rc2NhcGU6Y29ubmVjdG9yLWN1cnZhdHVyZT0iMCIgc3R5bGU9ImZpbGw6IzM5NEQ1NDsiIGQ9Ik0xLjUyLDk1LjVjMC4xOSwwLDAuMzgsMC4wNCwwLjU1LDAuMSAgICAgYy0wLjE5LDAuMTEtMC4zMSwwLjMxLTAuMzEsMC41NGMwLDAuMzQsMC4yOCwwLjYyLDAuNjIsMC42MmMwLjIzLDAsMC40NC0wLjEzLDAuNTQtMC4zM2MwLjA4LDAuMTgsMC4xMiwwLjM4LDAuMTIsMC41OSAgICAgYzAsMC44NC0wLjY4LDEuNTItMS41MiwxLjUyQzAuNjgsOTguNTQsMCw5Ny44NiwwLDk3LjAyUzAuNjgsOTUuNSwxLjUyLDk1LjV6Ii8+JiN4YTsJCTwvZz4mI3hhOwkJPGcgaWQ9InNoYXBlMTM5OC00MCIgdHJhbnNmb3JtPSJ0cmFuc2xhdGUoMCwtNDguMDcyMykiPiYjeGE7CQkJPHRpdGxlIGlkPSJ0aXRsZTE2NjQ4NCI+U2hlZXQuMTM5ODwvdGl0bGU+JiN4YTsJCQk8cGF0aCBpZD0icGF0aDE2NjQ4NiIgaW5rc2NhcGU6Y29ubmVjdG9yLWN1cnZhdHVyZT0iMCIgc3R5bGU9ImZpbGw6IzM5NEQ1NDsiIGQ9Ik0wLDk3Ljg1aDQ2LjQ3aDUuNzVoNDYuNDcgICAgIGMtMi4xNS0wLjU1LTYuOC0xLjI4LTYuMDMtNC4xYy0zLjkxLDQuNTItMTMuMzMsMy4xNy0xNS43MSwwLjk0Yy0yLjY1LDMuODUtMTguMDcsMi4zOS0xOS4xNC0wLjYxYy0zLjMyLDMuOS0xMy42MSwzLjktMTYuOTMsMCAgICAgYy0xLjA4LDIuOTktMTYuNDksNC40NS0xOS4xNCwwLjYxYy0yLjM4LDIuMjMtMTEuOCwzLjU4LTE1LjcxLTAuOTRDNi44LDk2LjU3LDIuMTUsOTcuMywwLDk3Ljg1eiIvPiYjeGE7CQk8L2c+JiN4YTsJCTxnIGlkPSJzaGFwZTEzOTktNDIiIHRyYW5zZm9ybT0idHJhbnNsYXRlKDE5LjAyODUsLTI5LjAyODYpIj4mI3hhOwkJCTx0aXRsZSBpZD0idGl0bGUxNjY0ODkiPlNoZWV0LjEzOTk8L3RpdGxlPiYjeGE7CQkJPHBhdGggaWQ9InBhdGgxNjY0OTEiIGlua3NjYXBlOmNvbm5lY3Rvci1jdXJ2YXR1cmU9IjAiIHN0eWxlPSJmaWxsOiNCRkRCRTA7IiBkPSJNMjQuMTQsOTguNDlDMTguODgsOTYsMTYsOTIuNjEsMTQuMzksODguOTEgICAgIGMtMS45NSwwLjU1LTQuMjksMC45MS03LjAyLDEuMDZjLTEuMDMsMC4wNi0yLjExLDAuMDktMy4yNCwwLjA5Yy0xLjMxLDAtMi42OS0wLjA0LTQuMTMtMC4xMmM0LjgyLDQuODIsMTAuNzUsOC41MywyMS43Miw4LjU5ICAgICBDMjIuNTMsOTguNTQsMjMuMzQsOTguNTIsMjQuMTQsOTguNDl6Ii8+JiN4YTsJCTwvZz4mI3hhOwkJPGcgaWQ9InNoYXBlMTQwMC00NCIgdHJhbnNmb3JtPSJ0cmFuc2xhdGUoMjYuMzk4MiwtMzUuMjQzNCkiPiYjeGE7CQkJPHRpdGxlIGlkPSJ0aXRsZTE2NjQ5NCI+U2hlZXQuMTQwMDwvdGl0bGU+JiN4YTsJCQk8cGF0aCBpZD0icGF0aDE2NjQ5NiIgaW5rc2NhcGU6Y29ubmVjdG9yLWN1cnZhdHVyZT0iMCIgc3R5bGU9ImZpbGw6I0Q0RURGMTsiIGQ9Ik04Ljk3LDk4LjU0Yy0wLjcyLTAuOTktMS40My0yLjIzLTEuOTQtMy40MiAgICAgYy0xLjk2LDAuNTYtNC4zLDAuOTItNy4wMywxLjA3QzEuODcsOTcuMjEsNC41NSw5OC4xNSw4Ljk3LDk4LjU0eiIvPiYjeGE7CQk8L2c+JiN4YTsJPC9nPiYjeGE7PC9nPiYjeGE7PC9zdmc+;" vertex="1" parent="1">
          <mxGeometry x="877" y="140" width="99" height="83" as="geometry" />
        </mxCell>
        <mxCell id="bEVf-RL3vcpq9Qt6OURH-15" value="" style="shape=image;verticalLabelPosition=bottom;labelBackgroundColor=#ffffff;verticalAlign=top;aspect=fixed;imageAspect=0;image=data:image/svg+xml,PHN2ZyB4bWxuczpjYz0iaHR0cDovL2NyZWF0aXZlY29tbW9ucy5vcmcvbnMjIiB4bWxuczpkYz0iaHR0cDovL3B1cmwub3JnL2RjL2VsZW1lbnRzLzEuMS8iIHhtbG5zOmlua3NjYXBlPSJodHRwOi8vd3d3Lmlua3NjYXBlLm9yZy9uYW1lc3BhY2VzL2lua3NjYXBlIiB4bWxuczpyZGY9Imh0dHA6Ly93d3cudzMub3JnLzE5OTkvMDIvMjItcmRmLXN5bnRheC1ucyMiIHhtbG5zOnNvZGlwb2RpPSJodHRwOi8vc29kaXBvZGkuc291cmNlZm9yZ2UubmV0L0RURC9zb2RpcG9kaS0wLmR0ZCIgeG1sbnM6c3ZnPSJodHRwOi8vd3d3LnczLm9yZy8yMDAwL3N2ZyIgeG1sbnM9Imh0dHA6Ly93d3cudzMub3JnLzIwMDAvc3ZnIiB4bWxuczp4bGluaz0iaHR0cDovL3d3dy53My5vcmcvMTk5OS94bGluayIgdmVyc2lvbj0iMS4xIiBpZD0ic3ZnMTQ1MDA4IiBpbmtzY2FwZTp2ZXJzaW9uPSIwLjkyLjMgKDI0MDU1NDYsIDIwMTgtMDMtMTEpIiBzb2RpcG9kaTpkb2NuYW1lPSJjc3Muc3ZnIiB4PSIwcHgiIHk9IjBweCIgdmlld0JveD0iMCAwIDI2LjQxIDM3LjI4IiBzdHlsZT0iZW5hYmxlLWJhY2tncm91bmQ6bmV3IDAgMCAyNi40MSAzNy4yODsiIHhtbDpzcGFjZT0icHJlc2VydmUiPiYjeGE7PHNvZGlwb2RpOm5hbWVkdmlldyBib3JkZXJjb2xvcj0iIzY2NjY2NiIgYm9yZGVyb3BhY2l0eT0iMSIgZml0LW1hcmdpbi1ib3R0b209IjAiIGZpdC1tYXJnaW4tbGVmdD0iMCIgZml0LW1hcmdpbi1yaWdodD0iMCIgZml0LW1hcmdpbi10b3A9IjAiIGdyaWR0b2xlcmFuY2U9IjEwIiBndWlkZXRvbGVyYW5jZT0iMTAiIGlkPSJuYW1lZHZpZXcxNDUwMTAiIGlua3NjYXBlOmN1cnJlbnQtbGF5ZXI9InN2ZzE0NTAwOCIgaW5rc2NhcGU6Y3g9IjE3LjYwODE1OSIgaW5rc2NhcGU6Y3k9IjI0Ljg1MTIzNiIgaW5rc2NhcGU6cGFnZW9wYWNpdHk9IjAiIGlua3NjYXBlOnBhZ2VzaGFkb3c9IjIiIGlua3NjYXBlOndpbmRvdy1oZWlnaHQ9IjEwMTciIGlua3NjYXBlOndpbmRvdy1tYXhpbWl6ZWQ9IjEiIGlua3NjYXBlOndpbmRvdy13aWR0aD0iMTkyMCIgaW5rc2NhcGU6d2luZG93LXg9Ii04IiBpbmtzY2FwZTp3aW5kb3cteT0iLTgiIGlua3NjYXBlOnpvb209IjE2Ljc2NjI2NyIgb2JqZWN0dG9sZXJhbmNlPSIxMCIgcGFnZWNvbG9yPSIjZmZmZmZmIiBzaG93Z3JpZD0iZmFsc2UiPiYjeGE7CTwvc29kaXBvZGk6bmFtZWR2aWV3PiYjeGE7PGcgaWQ9ImcxNDUwMDYiIHRyYW5zZm9ybT0idHJhbnNsYXRlKC0wLjc1LC0wLjc0ODUpIj4mI3hhOwk8dGl0bGUgaWQ9InRpdGxlMTQ0OTQ1Ij5QYWdlLTE8L3RpdGxlPiYjeGE7CTxnIGlkPSJncm91cDExMzQtMSIgdHJhbnNmb3JtPSJ0cmFuc2xhdGUoMC43NSwtMC43NSkiPiYjeGE7CQk8dGl0bGUgaWQ9InRpdGxlMTQ0OTQ3Ij5DU1M8L3RpdGxlPiYjeGE7CQk8ZyBpZD0iZ3JvdXAxMTM1LTIiIHRyYW5zZm9ybT0idHJhbnNsYXRlKDUuNjI3MjQsLTMyLjI1MTUpIj4mI3hhOwkJCTx0aXRsZSBpZD0idGl0bGUxNDQ5NDkiPlNoZWV0LjExMzU8L3RpdGxlPiYjeGE7CQkJPGcgaWQ9InNoYXBlMTEzNi0zIiB0cmFuc2Zvcm09InRyYW5zbGF0ZSgxMC40NjIyKSI+JiN4YTsJCQkJPHRpdGxlIGlkPSJ0aXRsZTE0NDk1MSI+U2hlZXQuMTEzNjwvdGl0bGU+JiN4YTsJCQkJPHBhdGggaWQ9InBhdGgxNDQ5NTMiIGlua3NjYXBlOmNvbm5lY3Rvci1jdXJ2YXR1cmU9IjAiIHN0eWxlPSJmaWxsOiMxNTE1MTU7IiBkPSJNNC42MSwzNS4xM0gyLjQybDIuMjgsMi40OHYxLjE3SDBWMzcuNGgyLjI4ICAgICAgTDAsMzQuOTN2LTEuMThoNC42MVYzNS4xM3oiLz4mI3hhOwkJCTwvZz4mI3hhOwkJCTxnIGlkPSJzaGFwZTExMzctNSIgdHJhbnNmb3JtPSJ0cmFuc2xhdGUoNC45MjMxOCkiPiYjeGE7CQkJCTx0aXRsZSBpZD0idGl0bGUxNDQ5NTYiPlNoZWV0LjExMzc8L3RpdGxlPiYjeGE7CQkJCTxwYXRoIGlkPSJwYXRoMTQ0OTU4IiBpbmtzY2FwZTpjb25uZWN0b3ItY3VydmF0dXJlPSIwIiBzdHlsZT0iZmlsbDojMTUxNTE1OyIgZD0iTTQuNjEsMzUuMTNIMi40MmwyLjI4LDIuNDh2MS4xN0gwVjM3LjRoMi4yOCAgICAgIEwwLDM0Ljkzdi0xLjE4aDQuNjFWMzUuMTN6Ii8+JiN4YTsJCQk8L2c+JiN4YTsJCQk8ZyBpZD0ic2hhcGUxMTM4LTciPiYjeGE7CQkJCTx0aXRsZSBpZD0idGl0bGUxNDQ5NjEiPlNoZWV0LjExMzg8L3RpdGxlPiYjeGE7CQkJCTxwYXRoIGlkPSJwYXRoMTQ0OTYzIiBpbmtzY2FwZTpjb25uZWN0b3ItY3VydmF0dXJlPSIwIiBzdHlsZT0iZmlsbDojMTUxNTE1OyIgZD0iTTQuMDUsMzUuMTlIMS42OHYyLjE2aDIuMzd2MS40M0gwdi01LjAzaDQuMDUgICAgICBWMzUuMTl6Ii8+JiN4YTsJCQk8L2c+JiN4YTsJCTwvZz4mI3hhOwkJPGcgaWQ9InNoYXBlMTEzOS05Ij4mI3hhOwkJCTx0aXRsZSBpZD0idGl0bGUxNDQ5NjciPlNoZWV0LjExMzk8L3RpdGxlPiYjeGE7CQkJPHBhdGggaWQ9InBhdGgxNDQ5NjkiIGlua3NjYXBlOmNvbm5lY3Rvci1jdXJ2YXR1cmU9IjAiIHN0eWxlPSJmaWxsOiMxNjczQjY7IiBkPSJNMi40LDM1Ljc5TDAsOC44M2gyNi40MWwtMi40LDI2Ljk1bC0xMC44MiwzICAgICBMMi40LDM1Ljc5eiIvPiYjeGE7CQk8L2c+JiN4YTsJCTxnIGlkPSJzaGFwZTExNDAtMTEiIHRyYW5zZm9ybT0idHJhbnNsYXRlKDEzLjIwNjIsLTIuMjkxOSkiPiYjeGE7CQkJPHRpdGxlIGlkPSJ0aXRsZTE0NDk3MiI+U2hlZXQuMTE0MDwvdGl0bGU+JiN4YTsJCQk8cGF0aCBpZD0icGF0aDE0NDk3NCIgaW5rc2NhcGU6Y29ubmVjdG9yLWN1cnZhdHVyZT0iMCIgc3R5bGU9ImZpbGw6IzM1QTlEQjsiIGQ9Ik0wLDM4Ljc4bDguNzQtMi40MmwyLjA2LTIzLjAzSDBWMzguNzh6Ii8+JiN4YTsJCTwvZz4mI3hhOwkJPGcgaWQ9Imdyb3VwMTE0MS0xMyIgdHJhbnNmb3JtPSJ0cmFuc2xhdGUoNC45MzQ2MywtNS45NTA1NCkiPiYjeGE7CQkJPHRpdGxlIGlkPSJ0aXRsZTE0NDk3NyI+U2hlZXQuMTE0MTwvdGl0bGU+JiN4YTsJCQk8ZyBpZD0ic2hhcGUxMTQyLTE0IiB0cmFuc2Zvcm09InRyYW5zbGF0ZSg4LjI3MTQ4LC04LjcyNTQ5KSI+JiN4YTsJCQkJPHRpdGxlIGlkPSJ0aXRsZTE0NDk3OSI+U2hlZXQuMTE0MjwvdGl0bGU+JiN4YTsJCQkJPHBhdGggaWQ9InBhdGgxNDQ5ODEiIGlua3NjYXBlOmNvbm5lY3Rvci1jdXJ2YXR1cmU9IjAiIHN0eWxlPSJmaWxsOiNGRkZGRkY7IiBkPSJNMCwzNS40OGg0LjM4bDAuMy0zLjM5SDB2LTMuMzFoMC4wMWg4LjI4ICAgICAgbC0wLjA4LDAuODlMNy40LDM4Ljc4SDBWMzUuNDh6Ii8+JiN4YTsJCQk8L2c+JiN4YTsJCQk8ZyBpZD0ic2hhcGUxMTQzLTE2IiB0cmFuc2Zvcm09InRyYW5zbGF0ZSgxLjAzOTcxKSI+JiN4YTsJCQkJPHRpdGxlIGlkPSJ0aXRsZTE0NDk4NCI+U2hlZXQuMTE0MzwvdGl0bGU+JiN4YTsJCQkJPHBhdGggaWQ9InBhdGgxNDQ5ODYiIGlua3NjYXBlOmNvbm5lY3Rvci1jdXJ2YXR1cmU9IjAiIHN0eWxlPSJmaWxsOiNFQkVCRUI7IiBkPSJNNy4yNSwzNS4zNEg3LjI0bC0zLjY5LTAuOTlsLTAuMjMtMi42NEgxLjUzICAgICAgSDBsMC40Niw1LjE5bDYuNzgsMS44OGgwLjAxTDcuMjUsMzUuMzR6Ii8+JiN4YTsJCQk8L2c+JiN4YTsJCQk8ZyBpZD0ic2hhcGUxMTQ0LTE4IiB0cmFuc2Zvcm09InRyYW5zbGF0ZSg4LjI3OTgzLC0wLjAwMTY4NzExKSI+JiN4YTsJCQkJPHRpdGxlIGlkPSJ0aXRsZTE0NDk4OSI+U2hlZXQuMTE0NDwvdGl0bGU+JiN4YTsJCQkJPHBhdGggaWQ9InBhdGgxNDQ5OTEiIGlua3NjYXBlOmNvbm5lY3Rvci1jdXJ2YXR1cmU9IjAiIHN0eWxlPSJmaWxsOiNGRkZGRkY7IiBkPSJNNC4wOSwyOS45MmwtMC40LDQuNDNMMCwzNS4zNHYzLjQ0bDYuNzgtMS44OCAgICAgIGwwLjA1LTAuNTVsMC41Ny02LjQzSDQuMDl6Ii8+JiN4YTsJCQk8L2c+JiN4YTsJCQk8ZyBpZD0ic2hhcGUxMTQ1LTIwIiB0cmFuc2Zvcm09InRyYW5zbGF0ZSgwLC0xNS40MTc4KSI+JiN4YTsJCQkJPHRpdGxlIGlkPSJ0aXRsZTE0NDk5NCI+U2hlZXQuMTE0NTwvdGl0bGU+JiN4YTsJCQkJPHBhdGggaWQ9InBhdGgxNDQ5OTYiIGlua3NjYXBlOmNvbm5lY3Rvci1jdXJ2YXR1cmU9IjAiIHN0eWxlPSJmaWxsOiNFQkVCRUI7IiBkPSJNOC4yOCwzNS40OHYyLjA1djEuMjVsMCwwSDAuMzFIMC4zICAgICAgbC0wLjA3LTAuNzRsLTAuMTUtMS42OEwwLDM1LjQ4SDguMjh6Ii8+JiN4YTsJCQk8L2c+JiN4YTsJCQk8ZyBpZD0ic2hhcGUxMTQ2LTIyIiB0cmFuc2Zvcm09InRyYW5zbGF0ZSg0LjMzOTUzLC04LjcyNTA1KSI+JiN4YTsJCQkJPHRpdGxlIGlkPSJ0aXRsZTE0NDk5OSI+U2hlZXQuMTE0NjwvdGl0bGU+JiN4YTsJCQkJPHBhdGggaWQ9InBhdGgxNDUwMDEiIGlua3NjYXBlOmNvbm5lY3Rvci1jdXJ2YXR1cmU9IjAiIHN0eWxlPSJmaWxsOiNFQkVCRUI7IiBkPSJNMy45MywzNS40OHYyLjA1djEuMjVsMCwwSDAuMzFIMC4zICAgICAgbC0wLjA3LTAuNzRsLTAuMTUtMS42OEwwLDM1LjQ4SDMuOTN6Ii8+JiN4YTsJCQk8L2c+JiN4YTsJCTwvZz4mI3hhOwk8L2c+JiN4YTs8L2c+JiN4YTs8L3N2Zz4=;" vertex="1" parent="1">
          <mxGeometry x="392" y="40" width="44.89" height="63.88" as="geometry" />
        </mxCell>
        <mxCell id="bEVf-RL3vcpq9Qt6OURH-17" value="" style="shape=image;verticalLabelPosition=bottom;labelBackgroundColor=#ffffff;verticalAlign=top;aspect=fixed;imageAspect=0;image=data:image/svg+xml,PHN2ZyB4bWxuczpjYz0iaHR0cDovL2NyZWF0aXZlY29tbW9ucy5vcmcvbnMjIiB4bWxuczpkYz0iaHR0cDovL3B1cmwub3JnL2RjL2VsZW1lbnRzLzEuMS8iIHhtbG5zOmlua3NjYXBlPSJodHRwOi8vd3d3Lmlua3NjYXBlLm9yZy9uYW1lc3BhY2VzL2lua3NjYXBlIiB4bWxuczpyZGY9Imh0dHA6Ly93d3cudzMub3JnLzE5OTkvMDIvMjItcmRmLXN5bnRheC1ucyMiIHhtbG5zOnNvZGlwb2RpPSJodHRwOi8vc29kaXBvZGkuc291cmNlZm9yZ2UubmV0L0RURC9zb2RpcG9kaS0wLmR0ZCIgeG1sbnM6c3ZnPSJodHRwOi8vd3d3LnczLm9yZy8yMDAwL3N2ZyIgeG1sbnM9Imh0dHA6Ly93d3cudzMub3JnLzIwMDAvc3ZnIiB4bWxuczp4bGluaz0iaHR0cDovL3d3dy53My5vcmcvMTk5OS94bGluayIgdmVyc2lvbj0iMS4xIiBpZD0ic3ZnNDU3NCIgaW5rc2NhcGU6dmVyc2lvbj0iMC45Mi4zICgyNDA1NTQ2LCAyMDE4LTAzLTExKSIgc29kaXBvZGk6ZG9jbmFtZT0iZGV2aWNlX2lwaG9uZTUuc3ZnIiB4PSIwcHgiIHk9IjBweCIgdmlld0JveD0iMCAwIDM2LjUgNzQuNTMiIHN0eWxlPSJlbmFibGUtYmFja2dyb3VuZDpuZXcgMCAwIDM2LjUgNzQuNTM7IiB4bWw6c3BhY2U9InByZXNlcnZlIj4mI3hhOzxzb2RpcG9kaTpuYW1lZHZpZXcgYm9yZGVyY29sb3I9IiM2NjY2NjYiIGJvcmRlcm9wYWNpdHk9IjEiIGZpdC1tYXJnaW4tYm90dG9tPSIwIiBmaXQtbWFyZ2luLWxlZnQ9IjAiIGZpdC1tYXJnaW4tcmlnaHQ9IjAiIGZpdC1tYXJnaW4tdG9wPSIwIiBncmlkdG9sZXJhbmNlPSIxMCIgZ3VpZGV0b2xlcmFuY2U9IjEwIiBpZD0ibmFtZWR2aWV3NDU3NiIgaW5rc2NhcGU6Y3VycmVudC1sYXllcj0ic3ZnNDU3NCIgaW5rc2NhcGU6Y3g9IjI0LjMzMTIxOSIgaW5rc2NhcGU6Y3k9IjQ5LjY4NDUwMiIgaW5rc2NhcGU6cGFnZW9wYWNpdHk9IjAiIGlua3NjYXBlOnBhZ2VzaGFkb3c9IjIiIGlua3NjYXBlOndpbmRvdy1oZWlnaHQ9IjEwMTciIGlua3NjYXBlOndpbmRvdy1tYXhpbWl6ZWQ9IjEiIGlua3NjYXBlOndpbmRvdy13aWR0aD0iMTkyMCIgaW5rc2NhcGU6d2luZG93LXg9Ii04IiBpbmtzY2FwZTp3aW5kb3cteT0iLTgiIGlua3NjYXBlOnpvb209IjguNzI0MzI4NCIgb2JqZWN0dG9sZXJhbmNlPSIxMCIgcGFnZWNvbG9yPSIjZmZmZmZmIiBzaG93Z3JpZD0iZmFsc2UiPiYjeGE7CTwvc29kaXBvZGk6bmFtZWR2aWV3PiYjeGE7PGcgaWQ9Imc0NTcyIiB0cmFuc2Zvcm09InRyYW5zbGF0ZSgtMi4yMzg3NjRlLTUpIj4mI3hhOwk8dGl0bGUgaWQ9InRpdGxlNDUyNyI+UGFnZS0xPC90aXRsZT4mI3hhOwk8ZyBpZD0iZ3JvdXAzNDY3LTEiPiYjeGE7CQk8dGl0bGUgaWQ9InRpdGxlNDUyOSI+RGV2aWNlOiBpUGhvbmUgNTwvdGl0bGU+JiN4YTsJCTxnIGlkPSJzaGFwZTM0NjgtMiI+JiN4YTsJCQk8dGl0bGUgaWQ9InRpdGxlNDUzMSI+U2hlZXQuMzQ2ODwvdGl0bGU+JiN4YTsJCQk8cGF0aCBpZD0icGF0aDQ1MzMiIGlua3NjYXBlOmNvbm5lY3Rvci1jdXJ2YXR1cmU9IjAiIHN0eWxlPSJmaWxsOiMzRjU3NjU7IiBkPSJNMzYuNSw2OWMwLDMuMTEtMi40Miw1LjUzLTUuNTEsNS41MyAgICAgYy0yNS40MSwwLTI1LjQxLDAtMjUuNDEsMEMyLjQ4LDc0LjUzLDAsNzIuMTEsMCw2OUMwLDUuNiwwLDUuNiwwLDUuNkMwLDIuNSwyLjQ4LDAsNS41OCwwYzI1LjQxLDAsMjUuNDEsMCwyNS40MSwwICAgICBjMy4wOSwwLDUuNTEsMi41LDUuNTEsNS42VjY5eiIvPiYjeGE7CQk8L2c+JiN4YTsJCTxnIGlkPSJzaGFwZTM0NjktNCIgdHJhbnNmb3JtPSJ0cmFuc2xhdGUoMTYuMjA3NSwtNjkuNzQpIj4mI3hhOwkJCTx0aXRsZSBpZD0idGl0bGU0NTM2Ij5TaGVldC4zNDY5PC90aXRsZT4mI3hhOwkJCTxwYXRoIGlkPSJwYXRoNDUzOCIgaW5rc2NhcGU6Y29ubmVjdG9yLWN1cnZhdHVyZT0iMCIgc3R5bGU9ImZpbGw6IzhFOUZCMDsiIGQ9Ik00LjkyLDc0LjIxYzAsMC4yMi0wLjEyLDAuMzItMC4zMSwwLjMyICAgICBjLTQuMjMsMC00LjIzLDAtNC4yMywwYy0wLjE5LDAtMC4zOC0wLjEtMC4zOC0wLjMybDAsMGMwLTAuMTYsMC4xOS0wLjI4LDAuMzgtMC4yOGM0LjIzLDAsNC4yMywwLDQuMjMsMCAgICAgQzQuOCw3My45Myw0LjkyLDc0LjA1LDQuOTIsNzQuMjF6Ii8+JiN4YTsJCTwvZz4mI3hhOwkJPGcgaWQ9InNoYXBlMzQ3MC02IiB0cmFuc2Zvcm09InRyYW5zbGF0ZSgxNi4yMDc1LC0yLjI3Njc0KSI+JiN4YTsJCQk8dGl0bGUgaWQ9InRpdGxlNDU0MSI+U2hlZXQuMzQ3MDwvdGl0bGU+JiN4YTsJCQk8cGF0aCBpZD0icGF0aDQ1NDMiIGlua3NjYXBlOmNvbm5lY3Rvci1jdXJ2YXR1cmU9IjAiIHN0eWxlPSJmaWxsOiM4RTlGQjA7IiBkPSJNMCw3Mi4xNGMwLTEuMzIsMS4xLTIuNCwyLjQ2LTIuNCAgICAgYzEuMzcsMCwyLjQ2LDEuMDgsMi40NiwyLjRzLTEuMDksMi4zOS0yLjQ2LDIuMzlDMS4xLDc0LjUzLDAsNzMuNDYsMCw3Mi4xNHoiLz4mI3hhOwkJPC9nPiYjeGE7CQk8ZyBpZD0ic2hhcGUzNDcxLTgiIHRyYW5zZm9ybT0idHJhbnNsYXRlKDEyLjk2NiwtNjkuNTAwNCkiPiYjeGE7CQkJPHRpdGxlIGlkPSJ0aXRsZTQ1NDYiPlNoZWV0LjM0NzE8L3RpdGxlPiYjeGE7CQkJPHBhdGggaWQ9InBhdGg0NTQ4IiBpbmtzY2FwZTpjb25uZWN0b3ItY3VydmF0dXJlPSIwIiBzdHlsZT0iZmlsbDojOEU5RkIwOyIgZD0iTTAsNzMuOTljMC0wLjI5LDAuMjUtMC41NCwwLjU0LTAuNTQgICAgIGMwLjMsMCwwLjU0LDAuMjUsMC41NCwwLjU0YzAsMC4zLTAuMjQsMC41NC0wLjU0LDAuNTRDMC4yNSw3NC41MywwLDc0LjI5LDAsNzMuOTl6Ii8+JiN4YTsJCTwvZz4mI3hhOwkJPGcgaWQ9InNoYXBlMzQ3Mi0xMCIgdHJhbnNmb3JtPSJ0cmFuc2xhdGUoMTguMjQ4NCwtNzIuMTM2NikiPiYjeGE7CQkJPHRpdGxlIGlkPSJ0aXRsZTQ1NTEiPlNoZWV0LjM0NzI8L3RpdGxlPiYjeGE7CQkJPHBhdGggaWQ9InBhdGg0NTUzIiBpbmtzY2FwZTpjb25uZWN0b3ItY3VydmF0dXJlPSIwIiBzdHlsZT0iZmlsbDojOEU5RkIwOyIgZD0iTTAsNzQuMTdjMC0wLjE5LDAuMTctMC4zNiwwLjM2LTAuMzYgICAgIGMwLjIsMCwwLjM2LDAuMTcsMC4zNiwwLjM2YzAsMC4yMS0wLjE2LDAuMzYtMC4zNiwwLjM2QzAuMTcsNzQuNTMsMCw3NC4zOCwwLDc0LjE3eiIvPiYjeGE7CQk8L2c+JiN4YTsJCTxnIGlkPSJzaGFwZTM0NzMtMTIiIHRyYW5zZm9ybT0idHJhbnNsYXRlKDEuOTIwODksLTguMTQ4MzIpIj4mI3hhOwkJCTx0aXRsZSBpZD0idGl0bGU0NTU2Ij5TaGVldC4zNDczPC90aXRsZT4mI3hhOwkJCTxwYXRoIGlkPSJwYXRoNDU1OCIgaW5rc2NhcGU6Y29ubmVjdG9yLWN1cnZhdHVyZT0iMCIgc3R5bGU9ImZpbGw6IzhEOUZCMDsiIGQ9Ik0wLDE2LjQydjU4LjExaDMyLjY2VjE2LjQySDB6Ii8+JiN4YTsJCTwvZz4mI3hhOwkJPGcgaWQ9InNoYXBlMzQ3NC0xNCIgdHJhbnNmb3JtPSJ0cmFuc2xhdGUoMTIuNDAwMywtMzAuMDc2OSkiPiYjeGE7CQkJPHRpdGxlIGlkPSJ0aXRsZTQ1NjEiPlNoZWV0LjM0NzQ8L3RpdGxlPiYjeGE7CQkJPHBhdGggaWQ9InBhdGg0NTYzIiBpbmtzY2FwZTpjb25uZWN0b3ItY3VydmF0dXJlPSIwIiBzdHlsZT0iZmlsbDojRkZGRkZGOyIgZD0iTTEyLjMzLDcwLjcxYy0wLjM0LDAuNzItMC41MSwxLjA3LTAuOTQsMS43MiAgICAgYy0wLjYsMC45NC0xLjQ2LDIuMDctMi41LDIuMWMtMC45NCwwLTEuMi0wLjY0LTIuNDUtMC42Yy0xLjI4LDAtMS41NCwwLjYtMi40OSwwLjZDMi44OCw3NC41LDIuMSw3My40NiwxLjUsNzIuNTYgICAgIGMtMS43Mi0yLjU5LTEuODktNS42MS0wLjg2LTcuMjRjMC43Ny0xLjEyLDEuOTQtMS44MSwzLjAxLTEuODFjMS4xMiwwLDEuODUsMC42NSwyLjc1LDAuNjVzMS40Ny0wLjY1LDIuNzUtMC42NSAgICAgYzAuOTksMCwyLjAzLDAuNTYsMi43NSwxLjQ3QzkuNDksNjYuMzEsOS44OSw2OS43NSwxMi4zMyw3MC43MXoiLz4mI3hhOwkJPC9nPiYjeGE7CQk8ZyBpZD0ic2hhcGUzNDc1LTE2IiB0cmFuc2Zvcm09InRyYW5zbGF0ZSgxOC4zNzg4LC00MC45ODEyKSI+JiN4YTsJCQk8dGl0bGUgaWQ9InRpdGxlNDU2NiI+U2hlZXQuMzQ3NTwvdGl0bGU+JiN4YTsJCQk8cGF0aCBpZD0icGF0aDQ1NjgiIGlua3NjYXBlOmNvbm5lY3Rvci1jdXJ2YXR1cmU9IjAiIHN0eWxlPSJmaWxsOiNGRkZGRkY7IiBkPSJNMi4yLDczLjM4YzAuNDUtMC42LDAuNzktMS40MiwwLjY3LTIuMzIgICAgIGMtMC43MiwwLjA5LTEuNiwwLjU2LTIuMTUsMS4yYy0wLjQ3LDAuNTYtMC44NSwxLjQyLTAuNjgsMi4yN0MwLjg1LDc0LjUzLDEuNzMsNzQuMDYsMi4yLDczLjM4eiIvPiYjeGE7CQk8L2c+JiN4YTsJPC9nPiYjeGE7PC9nPiYjeGE7PC9zdmc+;" vertex="1" parent="1">
          <mxGeometry x="70" y="52" width="37" height="75" as="geometry" />
        </mxCell>
        <mxCell id="bEVf-RL3vcpq9Qt6OURH-18" value="" style="shape=image;verticalLabelPosition=bottom;labelBackgroundColor=#ffffff;verticalAlign=top;aspect=fixed;imageAspect=0;image=data:image/svg+xml,PHN2ZyB4bWxuczpjYz0iaHR0cDovL2NyZWF0aXZlY29tbW9ucy5vcmcvbnMjIiB4bWxuczpkYz0iaHR0cDovL3B1cmwub3JnL2RjL2VsZW1lbnRzLzEuMS8iIHhtbG5zOmlua3NjYXBlPSJodHRwOi8vd3d3Lmlua3NjYXBlLm9yZy9uYW1lc3BhY2VzL2lua3NjYXBlIiB4bWxuczpyZGY9Imh0dHA6Ly93d3cudzMub3JnLzE5OTkvMDIvMjItcmRmLXN5bnRheC1ucyMiIHhtbG5zOnNvZGlwb2RpPSJodHRwOi8vc29kaXBvZGkuc291cmNlZm9yZ2UubmV0L0RURC9zb2RpcG9kaS0wLmR0ZCIgeG1sbnM6c3ZnPSJodHRwOi8vd3d3LnczLm9yZy8yMDAwL3N2ZyIgeG1sbnM9Imh0dHA6Ly93d3cudzMub3JnLzIwMDAvc3ZnIiB4bWxuczp4bGluaz0iaHR0cDovL3d3dy53My5vcmcvMTk5OS94bGluayIgdmVyc2lvbj0iMS4xIiBpZD0ic3ZnMjQzMyIgaW5rc2NhcGU6dmVyc2lvbj0iMC45Mi4zICgyNDA1NTQ2LCAyMDE4LTAzLTExKSIgc29kaXBvZGk6ZG9jbmFtZT0iZGV2aWNlX2FuZHJvaWQuc3ZnIiB4PSIwcHgiIHk9IjBweCIgdmlld0JveD0iMCAwIDI4LjY5IDU5LjIiIHN0eWxlPSJlbmFibGUtYmFja2dyb3VuZDpuZXcgMCAwIDI4LjY5IDU5LjI7IiB4bWw6c3BhY2U9InByZXNlcnZlIj4mI3hhOzxzb2RpcG9kaTpuYW1lZHZpZXcgYm9yZGVyY29sb3I9IiM2NjY2NjYiIGJvcmRlcm9wYWNpdHk9IjEiIGZpdC1tYXJnaW4tYm90dG9tPSIwIiBmaXQtbWFyZ2luLWxlZnQ9IjAiIGZpdC1tYXJnaW4tcmlnaHQ9IjAiIGZpdC1tYXJnaW4tdG9wPSIwIiBncmlkdG9sZXJhbmNlPSIxMCIgZ3VpZGV0b2xlcmFuY2U9IjEwIiBpZD0ibmFtZWR2aWV3MjQzNSIgaW5rc2NhcGU6Y3VycmVudC1sYXllcj0ic3ZnMjQzMyIgaW5rc2NhcGU6Y3g9IjE5LjEyODg2NCIgaW5rc2NhcGU6Y3k9IjM5LjQ2OTkyOCIgaW5rc2NhcGU6cGFnZW9wYWNpdHk9IjAiIGlua3NjYXBlOnBhZ2VzaGFkb3c9IjIiIGlua3NjYXBlOndpbmRvdy1oZWlnaHQ9IjEwMTciIGlua3NjYXBlOndpbmRvdy1tYXhpbWl6ZWQ9IjEiIGlua3NjYXBlOndpbmRvdy13aWR0aD0iMTkyMCIgaW5rc2NhcGU6d2luZG93LXg9Ii04IiBpbmtzY2FwZTp3aW5kb3cteT0iLTgiIGlua3NjYXBlOnpvb209IjEwLjk4NDg1MSIgb2JqZWN0dG9sZXJhbmNlPSIxMCIgcGFnZWNvbG9yPSIjZmZmZmZmIiBzaG93Z3JpZD0iZmFsc2UiPiYjeGE7CTwvc29kaXBvZGk6bmFtZWR2aWV3PiYjeGE7PGcgaWQ9ImcyNDMxIiB0cmFuc2Zvcm09InRyYW5zbGF0ZSgwLC0zLjM2MzU5OTFlLTUpIj4mI3hhOwk8dGl0bGUgaWQ9InRpdGxlMjM3NyI+UGFnZS0xPC90aXRsZT4mI3hhOwk8ZyBpZD0iZ3JvdXAzNDgxLTEiPiYjeGE7CQk8dGl0bGUgaWQ9InRpdGxlMjM3OSI+RGV2aWNlOiBBbmRyb2lkPC90aXRsZT4mI3hhOwkJPGcgaWQ9InNoYXBlMzQ4Mi0yIj4mI3hhOwkJCTx0aXRsZSBpZD0idGl0bGUyMzgxIj5TaGVldC4zNDgyPC90aXRsZT4mI3hhOwkJCTxwYXRoIGlkPSJwYXRoMjM4MyIgaW5rc2NhcGU6Y29ubmVjdG9yLWN1cnZhdHVyZT0iMCIgc3R5bGU9ImZpbGw6IzNGNTc2NTsiIGQ9Ik0yOC42OSw1NS4wNGMwLDIuMjctMS44OSw0LjE2LTQuMjIsNC4xNiAgICAgYy0yMC4yOCwwLTIwLjI4LDAtMjAuMjgsMEMxLjg1LDU5LjIsMCw1Ny4zMSwwLDU1LjA0QzAsNC4yMiwwLDQuMjIsMCw0LjIyQzAsMS44OSwxLjg1LDAsNC4xOSwwYzIwLjI4LDAsMjAuMjgsMCwyMC4yOCwwICAgICBjMi4zMywwLDQuMjIsMS44OSw0LjIyLDQuMjJWNTUuMDR6Ii8+JiN4YTsJCTwvZz4mI3hhOwkJPGcgaWQ9InNoYXBlMzQ4My00IiB0cmFuc2Zvcm09InRyYW5zbGF0ZSg3LjI3NDYzLC0zMS44MTgyKSI+JiN4YTsJCQk8dGl0bGUgaWQ9InRpdGxlMjM4NiI+U2hlZXQuMzQ4MzwvdGl0bGU+JiN4YTsJCQk8ZGVzYyBpZD0iZGVzYzIzODgiPlY8L2Rlc2M+JiN4YTsJCQk8cGF0aCBpZD0icGF0aDIzOTAiIGlua3NjYXBlOmNvbm5lY3Rvci1jdXJ2YXR1cmU9IjAiIHN0eWxlPSJmaWxsOm5vbmU7IiBkPSJNMTYuNDEsMzcuNjJIMFY1OS4yaDE2LjQxVjM3LjYyIi8+JiN4YTsJCQk8dGV4dCBpZD0idGV4dDIzOTIiIHRyYW5zZm9ybT0ibWF0cml4KDEgMCAwIDEgMy4xIDUzLjgpIiBzdHlsZT0iZmlsbDojNTA1MDUwOyBmb250LWZhbWlseTonQ2FsaWJyaSc7IGZvbnQtc2l6ZToxNy45NzQycHg7Ij5WPC90ZXh0PiYjeGE7CQk8L2c+JiN4YTsJCTxnIGlkPSJzaGFwZTM0ODQtOCIgdHJhbnNmb3JtPSJ0cmFuc2xhdGUoMS41NjA3MiwtOC4xNDgzMikiPiYjeGE7CQkJPHRpdGxlIGlkPSJ0aXRsZTIzOTUiPlNoZWV0LjM0ODQ8L3RpdGxlPiYjeGE7CQkJPHBhdGggaWQ9InBhdGgyMzk3IiBpbmtzY2FwZTpjb25uZWN0b3ItY3VydmF0dXJlPSIwIiBzdHlsZT0iZmlsbDojOEQ5RkIwOyIgZD0iTTAsMTQuNjJWNTkuMmgyNS41N1YxNC42MkgweiIvPiYjeGE7CQk8L2c+JiN4YTsJCTxnIGlkPSJzaGFwZTM0ODUtMTAiIHRyYW5zZm9ybT0idHJhbnNsYXRlKDYuMjQyODksLTU1LjQ4MDUpIj4mI3hhOwkJCTx0aXRsZSBpZD0idGl0bGUyNDAwIj5TaGVldC4zNDg1PC90aXRsZT4mI3hhOwkJCTxwYXRoIGlkPSJwYXRoMjQwMiIgaW5rc2NhcGU6Y29ubmVjdG9yLWN1cnZhdHVyZT0iMCIgc3R5bGU9ImZpbGw6IzhFOUZCMDsiIGQ9Ik0xMi45Nyw1OC42YzAsMC4zMy0wLjMsMC42LTAuNjMsMC42ICAgICBjLTExLjcsMC0xMS43LDAtMTEuNywwQzAuMyw1OS4yLDAsNTguOTMsMCw1OC42bDAsMEMwLDU4LjI3LDAuMyw1OCwwLjY0LDU4YzExLjcsMCwxMS43LDAsMTEuNywwICAgICBDMTIuNjcsNTgsMTIuOTcsNTguMjcsMTIuOTcsNTguNnoiLz4mI3hhOwkJPC9nPiYjeGE7CQk8ZyBpZD0ic2hhcGUzNDg2LTEyIiB0cmFuc2Zvcm09InRyYW5zbGF0ZSgyMS4wMDk3LC01NS4zNjA2KSI+JiN4YTsJCQk8dGl0bGUgaWQ9InRpdGxlMjQwNSI+U2hlZXQuMzQ4NjwvdGl0bGU+JiN4YTsJCQk8cGF0aCBpZD0icGF0aDI0MDciIGlua3NjYXBlOmNvbm5lY3Rvci1jdXJ2YXR1cmU9IjAiIHN0eWxlPSJmaWxsOiM4RTlGQjA7IiBkPSJNMCw1OC40OGMwLTAuNCwwLjMyLTAuNzIsMC43Mi0wLjcyICAgICBzMC43MiwwLjMyLDAuNzIsMC43MmMwLDAuMzktMC4zMiwwLjcyLTAuNzIsMC43MlMwLDU4Ljg3LDAsNTguNDh6Ii8+JiN4YTsJCTwvZz4mI3hhOwkJPGcgaWQ9InNoYXBlMzQ4Ny0xNCIgdHJhbnNmb3JtPSJ0cmFuc2xhdGUoNi4yNDI4OSwtMi4wMzcwOCkiPiYjeGE7CQkJPHRpdGxlIGlkPSJ0aXRsZTI0MTAiPlNoZWV0LjM0ODc8L3RpdGxlPiYjeGE7CQkJPHBhdGggaWQ9InBhdGgyNDEyIiBpbmtzY2FwZTpjb25uZWN0b3ItY3VydmF0dXJlPSIwIiBzdHlsZT0iZmlsbDojOEU5RkIwOyIgZD0iTTE2LjIxLDU4LjY5YzAsMC4zLTAuMiwwLjUxLTAuNDksMC41MSAgICAgYy0xNS4xOCwwLTE1LjE4LDAtMTUuMTgsMEMwLjI1LDU5LjIsMCw1OC45OSwwLDU4LjY5bDAsMGMwLTAuMzEsMC4yNS0wLjU3LDAuNTQtMC41N2MxNS4xOCwwLDE1LjE4LDAsMTUuMTgsMCAgICAgQzE2LjAxLDU4LjEyLDE2LjIxLDU4LjM4LDE2LjIxLDU4LjY5eiIvPiYjeGE7CQk8L2c+JiN4YTsJCTxnIGlkPSJzaGFwZTM0ODgtMTYiIHRyYW5zZm9ybT0idHJhbnNsYXRlKDcuOTIzNjcsLTI2Ljg0MTUpIj4mI3hhOwkJCTx0aXRsZSBpZD0idGl0bGUyNDE1Ij5TaGVldC4zNDg4PC90aXRsZT4mI3hhOwkJCTxwYXRoIGlkPSJwYXRoMjQxNyIgaW5rc2NhcGU6Y29ubmVjdG9yLWN1cnZhdHVyZT0iMCIgc3R5bGU9ImZpbGw6I0ZGRkZGRjsiIGQ9Ik0xMS45NCw1My42OGMtMC41LDAtMC45MiwwLjQyLTAuOTIsMC45NSAgICAgYzAsMy42MywwLDMuNjMsMCwzLjYzYzAsMC41MiwwLjQyLDAuOTQsMC45MiwwLjk0YzAuNDksMCwwLjkxLTAuNDIsMC45MS0wLjk0YzAtMy42MywwLTMuNjMsMC0zLjYzICAgICBDMTIuODUsNTQuMSwxMi40Myw1My42OCwxMS45NCw1My42OHogTTAuOTIsNTMuNjhDMC40Miw1My42OCwwLDU0LjEsMCw1NC42M2MwLDMuNjMsMCwzLjYzLDAsMy42M2MwLDAuNTIsMC40MiwwLjk0LDAuOTIsMC45NCAgICAgczAuOTEtMC40MiwwLjkxLTAuOTRjMC0zLjYzLDAtMy42MywwLTMuNjNDMS44Myw1NC4xLDEuNDIsNTMuNjgsMC45Miw1My42OHoiLz4mI3hhOwkJPC9nPiYjeGE7CQk8ZyBpZD0ic2hhcGUzNDg5LTE4IiB0cmFuc2Zvcm09InRyYW5zbGF0ZSgxMC4zMjQ4LC0yMi4wNDg0KSI+JiN4YTsJCQk8dGl0bGUgaWQ9InRpdGxlMjQyMCI+U2hlZXQuMzQ4OTwvdGl0bGU+JiN4YTsJCQk8cGF0aCBpZD0icGF0aDI0MjIiIGlua3NjYXBlOmNvbm5lY3Rvci1jdXJ2YXR1cmU9IjAiIHN0eWxlPSJmaWxsOiNGRkZGRkY7IiBkPSJNMCw0OC44OWMwLDYuNjQsMCw2LjY0LDAsNi42NCAgICAgYzAsMC40LDAuMzIsMC43MSwwLjcxLDAuNzFjMC44MiwwLDAuODIsMCwwLjgyLDBjMCwyLjAyLDAsMi4wMiwwLDIuMDJjMCwwLjUyLDAuNDIsMC45NCwwLjkyLDAuOTRjMC41MSwwLDAuOTMtMC40MiwwLjkzLTAuOTQgICAgIGMwLTIuMDIsMC0yLjAyLDAtMi4wMmMxLjQxLDAsMS40MSwwLDEuNDEsMGMwLDIuMDIsMCwyLjAyLDAsMi4wMmMwLDAuNTIsMC40MiwwLjk0LDAuOTMsMC45NGMwLjUsMCwwLjkyLTAuNDIsMC45Mi0wLjk0ICAgICBjMC0yLjAyLDAtMi4wMiwwLTIuMDJjMC44MiwwLDAuODIsMCwwLjgyLDBjMC40LDAsMC43LTAuMzEsMC43LTAuNzFjMC02LjY0LDAtNi42NCwwLTYuNjRIMHoiLz4mI3hhOwkJPC9nPiYjeGE7CQk8ZyBpZD0ic2hhcGUzNDkwLTIwIiB0cmFuc2Zvcm09InRyYW5zbGF0ZSgxMC4zMjQ4LC0zMi45NTI4KSI+JiN4YTsJCQk8dGl0bGUgaWQ9InRpdGxlMjQyNSI+U2hlZXQuMzQ5MDwvdGl0bGU+JiN4YTsJCQk8cGF0aCBpZD0icGF0aDI0MjciIGlua3NjYXBlOmNvbm5lY3Rvci1jdXJ2YXR1cmU9IjAiIHN0eWxlPSJmaWxsOiNGRkZGRkY7IiBkPSJNNS45NCw1Ni40MWMwLjc1LTEuMDYsMC43NS0xLjA2LDAuNzUtMS4wNiAgICAgYzAuMDQtMC4wNiwwLjAyLTAuMTUtMC4wMy0wLjE4Yy0wLjA2LTAuMDUtMC4xNC0wLjAzLTAuMTgsMC4wM0M1LjcsNTYuMzMsNS43LDU2LjMzLDUuNyw1Ni4zM0M1LjE4LDU2LjEyLDQuNjIsNTYsNC4wMiw1NiAgICAgYy0wLjU5LDAtMS4xNSwwLjEyLTEuNjYsMC4zM0MxLjU3LDU1LjIsMS41Nyw1NS4yLDEuNTcsNTUuMmMtMC4wNC0wLjA2LTAuMTItMC4wOC0wLjE4LTAuMDNjLTAuMDUsMC4wMy0wLjA3LDAuMTItMC4wMiwwLjE4ICAgICBjMC43NCwxLjA2LDAuNzQsMS4wNiwwLjc0LDEuMDZDMC45Myw1Ni45NiwwLjExLDU4LDAsNTkuMmM4LjA0LDAsOC4wNCwwLDguMDQsMEM3Ljk1LDU4LDcuMTIsNTYuOTYsNS45NCw1Ni40MXogTTIuMzMsNTguMSAgICAgYy0wLjI0LDAtMC40NS0wLjIxLTAuNDUtMC40NWMwLTAuMjIsMC4yMS0wLjQyLDAuNDUtMC40MmMwLjI1LDAsMC40NCwwLjIsMC40NCwwLjQyQzIuNzcsNTcuODksMi41OCw1OC4xLDIuMzMsNTguMXogTTUuNzgsNTguMSAgICAgYy0wLjI1LDAtMC40NC0wLjIxLTAuNDQtMC40NWMwLTAuMjIsMC4xOS0wLjQyLDAuNDQtMC40MnMwLjQ2LDAuMiwwLjQ2LDAuNDJDNi4yNCw1Ny44OSw2LjAzLDU4LjEsNS43OCw1OC4xeiIvPiYjeGE7CQk8L2c+JiN4YTsJPC9nPiYjeGE7PC9nPiYjeGE7PC9zdmc+;" vertex="1" parent="1">
          <mxGeometry x="113.63999999999999" y="52" width="37.36" height="76" as="geometry" />
        </mxCell>
        <mxCell id="bEVf-RL3vcpq9Qt6OURH-19" value="" style="shape=image;verticalLabelPosition=bottom;labelBackgroundColor=#ffffff;verticalAlign=top;aspect=fixed;imageAspect=0;image=data:image/svg+xml,PHN2ZyB4bWxuczpjYz0iaHR0cDovL2NyZWF0aXZlY29tbW9ucy5vcmcvbnMjIiB4bWxuczpkYz0iaHR0cDovL3B1cmwub3JnL2RjL2VsZW1lbnRzLzEuMS8iIHhtbG5zOmlua3NjYXBlPSJodHRwOi8vd3d3Lmlua3NjYXBlLm9yZy9uYW1lc3BhY2VzL2lua3NjYXBlIiB4bWxuczpyZGY9Imh0dHA6Ly93d3cudzMub3JnLzE5OTkvMDIvMjItcmRmLXN5bnRheC1ucyMiIHhtbG5zOnNvZGlwb2RpPSJodHRwOi8vc29kaXBvZGkuc291cmNlZm9yZ2UubmV0L0RURC9zb2RpcG9kaS0wLmR0ZCIgeG1sbnM6c3ZnPSJodHRwOi8vd3d3LnczLm9yZy8yMDAwL3N2ZyIgeG1sbnM9Imh0dHA6Ly93d3cudzMub3JnLzIwMDAvc3ZnIiB4bWxuczp4bGluaz0iaHR0cDovL3d3dy53My5vcmcvMTk5OS94bGluayIgdmVyc2lvbj0iMS4xIiBpZD0ic3ZnMjkxMyIgaW5rc2NhcGU6dmVyc2lvbj0iMC45Mi4zICgyNDA1NTQ2LCAyMDE4LTAzLTExKSIgc29kaXBvZGk6ZG9jbmFtZT0iZGV2aWNlX2Rlc2t0b3Auc3ZnIiB4PSIwcHgiIHk9IjBweCIgdmlld0JveD0iMCAwIDcyLjk5IDU1IiBzdHlsZT0iZW5hYmxlLWJhY2tncm91bmQ6bmV3IDAgMCA3Mi45OSA1NTsiIHhtbDpzcGFjZT0icHJlc2VydmUiPiYjeGE7PHNvZGlwb2RpOm5hbWVkdmlldyBib3JkZXJjb2xvcj0iIzY2NjY2NiIgYm9yZGVyb3BhY2l0eT0iMSIgZml0LW1hcmdpbi1ib3R0b209IjAiIGZpdC1tYXJnaW4tbGVmdD0iMCIgZml0LW1hcmdpbi1yaWdodD0iMCIgZml0LW1hcmdpbi10b3A9IjAiIGdyaWR0b2xlcmFuY2U9IjEwIiBndWlkZXRvbGVyYW5jZT0iMTAiIGlkPSJuYW1lZHZpZXcyOTE1IiBpbmtzY2FwZTpjdXJyZW50LWxheWVyPSJzdmcyOTEzIiBpbmtzY2FwZTpjeD0iNDguNjYyNDAxIiBpbmtzY2FwZTpjeT0iMzYuNjY1ODMxIiBpbmtzY2FwZTpwYWdlb3BhY2l0eT0iMCIgaW5rc2NhcGU6cGFnZXNoYWRvdz0iMiIgaW5rc2NhcGU6d2luZG93LWhlaWdodD0iMTAxNyIgaW5rc2NhcGU6d2luZG93LW1heGltaXplZD0iMSIgaW5rc2NhcGU6d2luZG93LXdpZHRoPSIxOTIwIiBpbmtzY2FwZTp3aW5kb3cteD0iLTgiIGlua3NjYXBlOndpbmRvdy15PSItOCIgaW5rc2NhcGU6em9vbT0iMTEuODIyNDc4IiBvYmplY3R0b2xlcmFuY2U9IjEwIiBwYWdlY29sb3I9IiNmZmZmZmYiIHNob3dncmlkPSJmYWxzZSI+JiN4YTsJPC9zb2RpcG9kaTpuYW1lZHZpZXc+JiN4YTs8ZyBpZD0iZzI5MTEiIHRyYW5zZm9ybT0idHJhbnNsYXRlKDAsLTEuMDQ2MzEwOWUtNCkiPiYjeGE7CTx0aXRsZSBpZD0idGl0bGUyODkxIj5QYWdlLTE8L3RpdGxlPiYjeGE7CTxnIGlkPSJncm91cDM1MDUtMSI+JiN4YTsJCTx0aXRsZSBpZD0idGl0bGUyODkzIj5EZXZpY2U6IERlc2t0b3A8L3RpdGxlPiYjeGE7CQk8ZyBpZD0ic2hhcGUzNTA2LTIiPiYjeGE7CQkJPHRpdGxlIGlkPSJ0aXRsZTI4OTUiPlNoZWV0LjM1MDY8L3RpdGxlPiYjeGE7CQkJPHBhdGggaWQ9InBhdGgyODk3IiBpbmtzY2FwZTpjb25uZWN0b3ItY3VydmF0dXJlPSIwIiBzdHlsZT0iZmlsbDojM0Y1NzY1OyIgZD0iTTcxLDBDMi4wMSwwLDIuMDEsMCwyLjAxLDBDMC45MywwLDAsMC45LDAsMi4wMSAgICAgYzAsNDAuOCwwLDQwLjgsMCw0MC44YzAsMS4xMSwwLjkzLDIuMDEsMi4wMSwyLjAxYzI2Ljk3LDAsMjYuOTcsMCwyNi45NywwYzAsNS43LDAsNS43LDAsNS43Yy03LjY0LDAtNy42NCwwLTcuNjQsMCAgICAgYy0wLjk5LDAtMC45OSwwLTAuOTksMGMtMC41NiwyLjAxLTAuNTYsMi4wMS0wLjU2LDIuMDFjLTAuMzMsMS4wOC0wLjMzLDEuMDgtMC4zMywxLjA4bDAsMEMxOS4wNyw1NSwxOS4wNyw1NSwxOS4wNyw1NSAgICAgYzEuMDQsMCwxLjA0LDAsMS4wNCwwYzM0LjQ0LDAsMzQuNDQsMCwzNC40NCwwYzEuMDQsMCwxLjA0LDAsMS4wNCwwYy0wLjM5LTEuMzktMC4zOS0xLjM5LTAuMzktMS4zOWwwLDAgICAgIGMtMC4zNS0xLjA4LTAuMzUtMS4wOC0wLjM1LTEuMDhjLTAuNTUtMi4wMS0wLjU1LTIuMDEtMC41NS0yLjAxYy0wLjk4LDAtMC45OCwwLTAuOTgsMGMtOC4xOCwwLTguMTgsMC04LjE4LDBjMC01LjcsMC01LjcsMC01LjcgICAgIGMyNS44NiwwLDI1Ljg2LDAsMjUuODYsMGMxLjExLDAsMS45OS0wLjksMS45OS0yLjAxYzAtNDAuOCwwLTQwLjgsMC00MC44QzcyLjk5LDAuOSw3Mi4xMSwwLDcxLDB6Ii8+JiN4YTsJCTwvZz4mI3hhOwkJPGcgaWQ9InNoYXBlMzUwNy00IiB0cmFuc2Zvcm09InRyYW5zbGF0ZSgyLjc2MTI4LC0xMy45MDAxKSI+JiN4YTsJCQk8dGl0bGUgaWQ9InRpdGxlMjkwMCI+U2hlZXQuMzUwNzwvdGl0bGU+JiN4YTsJCQk8cGF0aCBpZD0icGF0aDI5MDIiIGlua3NjYXBlOmNvbm5lY3Rvci1jdXJ2YXR1cmU9IjAiIHN0eWxlPSJmaWxsOiM4RDlGQjA7IiBkPSJNMCwxNy4xNFY1NWg2Ny4yM1YxNy4xNEgweiIvPiYjeGE7CQk8L2c+JiN4YTsJCTxnIGlkPSJzaGFwZTM1MDgtNiIgdHJhbnNmb3JtPSJ0cmFuc2xhdGUoMzAuNjE0MiwtMjQuODA0NCkiPiYjeGE7CQkJPHRpdGxlIGlkPSJ0aXRsZTI5MDUiPlNoZWV0LjM1MDg8L3RpdGxlPiYjeGE7CQkJPHBhdGggaWQ9InBhdGgyOTA3IiBpbmtzY2FwZTpjb25uZWN0b3ItY3VydmF0dXJlPSIwIiBzdHlsZT0iZmlsbDojRkZGRkZGOyIgZD0iTTUuMjQsNDQuMjhjNi41My0wLjksNi41My0wLjksNi41My0wLjkgICAgIGMwLDUuNjcsMCw1LjY3LDAsNS42N2MtNi41MywwLTYuNTMsMC02LjUzLDBDNS4yNCw0NC4yOCw1LjI0LDQ0LjI4LDUuMjQsNDQuMjhDNS4yNCw0NC4yOCw1LjI0LDQ0LjI4LDUuMjQsNDQuMjh6IE01LjA0LDQ5LjA1ICAgICBjMC00Ljc3LDAtNC43NywwLTQuNzdDMCw0NC45OCwwLDQ0Ljk4LDAsNDQuOThjMCw0LjA3LDAsNC4wNywwLDQuMDdDNS4wNCw0OS4wNSw1LjA0LDQ5LjA1LDUuMDQsNDkuMDVMNS4wNCw0OS4wNXogTTUuMjQsNDkuMjUgICAgIGMwLDQuODcsMCw0Ljg3LDAsNC44N0MxMS43Nyw1NSwxMS43Nyw1NSwxMS43Nyw1NWMwLTUuNzUsMC01Ljc1LDAtNS43NUM1LjI0LDQ5LjI1LDUuMjQsNDkuMjUsNS4yNCw0OS4yNSAgICAgQzUuMjQsNDkuMjUsNS4yNCw0OS4yNSw1LjI0LDQ5LjI1eiBNNS4wNCw0OS4yNWMtNS4wNCwwLTUuMDQsMC01LjA0LDBjMCw0LjA3LDAsNC4wNywwLDQuMDdjNS4wNCwwLjY5LDUuMDQsMC42OSw1LjA0LDAuNjkgICAgIEM1LjA0LDQ5LjI1LDUuMDQsNDkuMjUsNS4wNCw0OS4yNUw1LjA0LDQ5LjI1eiIvPiYjeGE7CQk8L2c+JiN4YTsJPC9nPiYjeGE7PC9nPiYjeGE7PC9zdmc+;" vertex="1" parent="1">
          <mxGeometry x="1066" y="146" width="91" height="68.56" as="geometry" />
        </mxCell>
        <mxCell id="bEVf-RL3vcpq9Qt6OURH-20" value="" style="shape=image;verticalLabelPosition=bottom;labelBackgroundColor=#ffffff;verticalAlign=top;aspect=fixed;imageAspect=0;image=data:image/svg+xml,PHN2ZyB4bWxuczpjYz0iaHR0cDovL2NyZWF0aXZlY29tbW9ucy5vcmcvbnMjIiB4bWxuczpkYz0iaHR0cDovL3B1cmwub3JnL2RjL2VsZW1lbnRzLzEuMS8iIHhtbG5zOmlua3NjYXBlPSJodHRwOi8vd3d3Lmlua3NjYXBlLm9yZy9uYW1lc3BhY2VzL2lua3NjYXBlIiB4bWxuczpyZGY9Imh0dHA6Ly93d3cudzMub3JnLzE5OTkvMDIvMjItcmRmLXN5bnRheC1ucyMiIHhtbG5zOnNvZGlwb2RpPSJodHRwOi8vc29kaXBvZGkuc291cmNlZm9yZ2UubmV0L0RURC9zb2RpcG9kaS0wLmR0ZCIgeG1sbnM6c3ZnPSJodHRwOi8vd3d3LnczLm9yZy8yMDAwL3N2ZyIgeG1sbnM9Imh0dHA6Ly93d3cudzMub3JnLzIwMDAvc3ZnIiB4bWxuczp4bGluaz0iaHR0cDovL3d3dy53My5vcmcvMTk5OS94bGluayIgdmVyc2lvbj0iMS4xIiBpZD0ic3ZnNTQxNCIgaW5rc2NhcGU6dmVyc2lvbj0iMC45Mi4zICgyNDA1NTQ2LCAyMDE4LTAzLTExKSIgc29kaXBvZGk6ZG9jbmFtZT0iZGV2aWNlX2xhcHRvcF8xLnN2ZyIgeD0iMHB4IiB5PSIwcHgiIHZpZXdCb3g9IjAgMCA5OC41NyA1Ny4xNiIgc3R5bGU9ImVuYWJsZS1iYWNrZ3JvdW5kOm5ldyAwIDAgOTguNTcgNTcuMTY7IiB4bWw6c3BhY2U9InByZXNlcnZlIj4mI3hhOzxzb2RpcG9kaTpuYW1lZHZpZXcgYm9yZGVyY29sb3I9IiM2NjY2NjYiIGJvcmRlcm9wYWNpdHk9IjEiIGZpdC1tYXJnaW4tYm90dG9tPSIwIiBmaXQtbWFyZ2luLWxlZnQ9IjAiIGZpdC1tYXJnaW4tcmlnaHQ9IjAiIGZpdC1tYXJnaW4tdG9wPSIwIiBncmlkdG9sZXJhbmNlPSIxMCIgZ3VpZGV0b2xlcmFuY2U9IjEwIiBpZD0ibmFtZWR2aWV3NTQxNiIgaW5rc2NhcGU6Y3VycmVudC1sYXllcj0ic3ZnNTQxNCIgaW5rc2NhcGU6Y3g9IjY1LjcxMDM1OSIgaW5rc2NhcGU6Y3k9IjM4LjEwNzkxMiIgaW5rc2NhcGU6cGFnZW9wYWNpdHk9IjAiIGlua3NjYXBlOnBhZ2VzaGFkb3c9IjIiIGlua3NjYXBlOndpbmRvdy1oZWlnaHQ9IjEwMTciIGlua3NjYXBlOndpbmRvdy1tYXhpbWl6ZWQ9IjEiIGlua3NjYXBlOndpbmRvdy13aWR0aD0iMTkyMCIgaW5rc2NhcGU6d2luZG93LXg9Ii04IiBpbmtzY2FwZTp3aW5kb3cteT0iLTgiIGlua3NjYXBlOnpvb209IjExLjM3NjM0OCIgb2JqZWN0dG9sZXJhbmNlPSIxMCIgcGFnZWNvbG9yPSIjZmZmZmZmIiBzaG93Z3JpZD0iZmFsc2UiPiYjeGE7CTwvc29kaXBvZGk6bmFtZWR2aWV3PiYjeGE7PGcgaWQ9Imc1NDEyIiB0cmFuc2Zvcm09InRyYW5zbGF0ZSgtMS41MjIzNjI3ZS00KSI+JiN4YTsJPHRpdGxlIGlkPSJ0aXRsZTUzODIiPlBhZ2UtMTwvdGl0bGU+JiN4YTsJPGcgaWQ9Imdyb3VwMzYwNS0xIj4mI3hhOwkJPHRpdGxlIGlkPSJ0aXRsZTUzODQiPkRldmljZTogTGFwdG9wICMxPC90aXRsZT4mI3hhOwkJPGcgaWQ9InNoYXBlMzYwNi0yIj4mI3hhOwkJCTx0aXRsZSBpZD0idGl0bGU1Mzg2Ij5TaGVldC4zNjA2PC90aXRsZT4mI3hhOwkJCTxwYXRoIGlkPSJwYXRoNTM4OCIgaW5rc2NhcGU6Y29ubmVjdG9yLWN1cnZhdHVyZT0iMCIgc3R5bGU9ImZpbGw6IzNGNTc2NTsiIGQ9Ik05OC4xOCw1My4zOGMtOC45NiwwLTguOTYsMC04Ljk2LDAgICAgIGMwLTAuMTUsMC4wNC0wLjI1LDAuMDQtMC40YzAtNTAuNjEsMC01MC42MSwwLTUwLjYxYzAtMS4zNC0xLjA4LTIuMzctMi4zNy0yLjM3Yy03NS4yLDAtNzUuMiwwLTc1LjIsMCAgICAgQzEwLjQsMCw5LjMyLDEuMDMsOS4zMiwyLjM3YzAsNTAuNjEsMCw1MC42MSwwLDUwLjYxYzAsMC4xNSwwLjA0LDAuMjUsMC4wNCwwLjRjLTguOTUsMC04Ljk1LDAtOC45NSwwICAgICBjLTAuMiwwLTAuNDEsMC4yLTAuNDEsMC4zOWMwLDEuMTksMCwxLjE5LDAsMS4xOWMwLDAuMTksMy4yNiwyLjIsNS4wMywyLjJjODguNTIsMCw4OC41MiwwLDg4LjUyLDBjMS44MiwwLDUuMDItMi4wMSw1LjAyLTIuMiAgICAgYzAtMS4xOSwwLTEuMTksMC0xLjE5Qzk4LjU3LDUzLjU4LDk4LjM3LDUzLjM4LDk4LjE4LDUzLjM4eiIvPiYjeGE7CQk8L2c+JiN4YTsJCTxnIGlkPSJzaGFwZTM2MDctNCIgdHJhbnNmb3JtPSJ0cmFuc2xhdGUoNDAuOTM5LC0yLjUxNjM5KSI+JiN4YTsJCQk8dGl0bGUgaWQ9InRpdGxlNTM5MSI+U2hlZXQuMzYwNzwvdGl0bGU+JiN4YTsJCQk8cGF0aCBpZD0icGF0aDUzOTMiIGlua3NjYXBlOmNvbm5lY3Rvci1jdXJ2YXR1cmU9IjAiIHN0eWxlPSJmaWxsOiM4RTlGQjA7IiBkPSJNMTYuMSw1NS44NGMwLjU5LDAsMC41OSwwLDAuNTksMCAgICAgYzAsMC43Mi0xLjE3LDEuMzItMS45NywxLjMyYy0xMi42MywwLTEyLjYzLDAtMTIuNjMsMGMtMC43NSwwLTIuMDktMC42LTIuMDktMS4zMmMwLjcxLDAsMC43MSwwLDAuNzEsMEgxNi4xeiIvPiYjeGE7CQk8L2c+JiN4YTsJCTxnIGlkPSJzaGFwZTM2MDgtNiIgdHJhbnNmb3JtPSJ0cmFuc2xhdGUoMTIuMTI1NiwtNy40MjkzNSkiPiYjeGE7CQkJPHRpdGxlIGlkPSJ0aXRsZTUzOTYiPlNoZWV0LjM2MDg8L3RpdGxlPiYjeGE7CQkJPHBhdGggaWQ9InBhdGg1Mzk4IiBpbmtzY2FwZTpjb25uZWN0b3ItY3VydmF0dXJlPSIwIiBzdHlsZT0iZmlsbDojOEQ5RkIwOyIgZD0iTTAsMTAuNzh2NDYuMzhoNzQuNDNWMTAuNzhIMHoiLz4mI3hhOwkJPC9nPiYjeGE7CQk8ZyBpZD0ic2hhcGUzNjA5LTgiIHRyYW5zZm9ybT0idHJhbnNsYXRlKDQzLjM3NzMsLTIzLjAwNykiPiYjeGE7CQkJPHRpdGxlIGlkPSJ0aXRsZTU0MDEiPlNoZWV0LjM2MDk8L3RpdGxlPiYjeGE7CQkJPHBhdGggaWQ9InBhdGg1NDAzIiBpbmtzY2FwZTpjb25uZWN0b3ItY3VydmF0dXJlPSIwIiBzdHlsZT0iZmlsbDojRkZGRkZGOyIgZD0iTTEyLjMzLDUzLjM0Yy0wLjMzLDAuNzItMC41MSwxLjA2LTAuOTUsMS43MiAgICAgYy0wLjYsMC45NC0xLjQ1LDIuMDctMi40OSwyLjFjLTAuOTQsMC0xLjItMC42NS0yLjQ0LTAuNmMtMS4yOSwwLTEuNTUsMC42LTIuNSwwLjZjLTEuMDgtMC4wMy0xLjg0LTEuMDctMi40NC0xLjk4ICAgICBjLTEuNzMtMi41OC0xLjkxLTUuNi0wLjg3LTcuMjNjMC43OC0xLjEzLDEuOTMtMS44MiwzLjAxLTEuODJjMS4xMSwwLDEuODUsMC42NiwyLjc1LDAuNjZzMS40Ny0wLjY2LDIuNzUtMC42NiAgICAgYzAuOTksMCwyLjAyLDAuNTcsMi43NiwxLjQ3QzkuNDksNDguOTMsOS44OCw1Mi4zOCwxMi4zMyw1My4zNHoiLz4mI3hhOwkJPC9nPiYjeGE7CQk8ZyBpZD0ic2hhcGUzNjEwLTEwIiB0cmFuc2Zvcm09InRyYW5zbGF0ZSg0OS4zNTkzLC0zMy45MTE0KSI+JiN4YTsJCQk8dGl0bGUgaWQ9InRpdGxlNTQwNiI+U2hlZXQuMzYxMDwvdGl0bGU+JiN4YTsJCQk8cGF0aCBpZD0icGF0aDU0MDgiIGlua3NjYXBlOmNvbm5lY3Rvci1jdXJ2YXR1cmU9IjAiIHN0eWxlPSJmaWxsOiNGRkZGRkY7IiBkPSJNMi4xOSw1NmMwLjQ2LTAuNTksMC43OS0xLjQsMC42Ny0yLjMyICAgICBjLTAuNzIsMC4wOS0xLjYsMC41Ny0yLjE0LDEuMjJjLTAuNDcsMC41NS0wLjg2LDEuNC0wLjY4LDIuMjZDMC44NCw1Ny4xNiwxLjcyLDU2LjY5LDIuMTksNTZ6Ii8+JiN4YTsJCTwvZz4mI3hhOwk8L2c+JiN4YTs8L2c+JiN4YTs8L3N2Zz4=;" vertex="1" parent="1">
          <mxGeometry x="1170.46" y="146" width="119.84" height="69" as="geometry" />
        </mxCell>
        <mxCell id="bEVf-RL3vcpq9Qt6OURH-21" value="" style="shape=image;verticalLabelPosition=bottom;labelBackgroundColor=#ffffff;verticalAlign=top;aspect=fixed;imageAspect=0;image=data:image/svg+xml,PHN2ZyB4bWxuczpjYz0iaHR0cDovL2NyZWF0aXZlY29tbW9ucy5vcmcvbnMjIiB4bWxuczpkYz0iaHR0cDovL3B1cmwub3JnL2RjL2VsZW1lbnRzLzEuMS8iIHhtbG5zOmlua3NjYXBlPSJodHRwOi8vd3d3Lmlua3NjYXBlLm9yZy9uYW1lc3BhY2VzL2lua3NjYXBlIiB4bWxuczpyZGY9Imh0dHA6Ly93d3cudzMub3JnLzE5OTkvMDIvMjItcmRmLXN5bnRheC1ucyMiIHhtbG5zOnNvZGlwb2RpPSJodHRwOi8vc29kaXBvZGkuc291cmNlZm9yZ2UubmV0L0RURC9zb2RpcG9kaS0wLmR0ZCIgeG1sbnM6c3ZnPSJodHRwOi8vd3d3LnczLm9yZy8yMDAwL3N2ZyIgeG1sbnM9Imh0dHA6Ly93d3cudzMub3JnLzIwMDAvc3ZnIiB4bWxuczp4bGluaz0iaHR0cDovL3d3dy53My5vcmcvMTk5OS94bGluayIgdmVyc2lvbj0iMS4xIiBpZD0ic3ZnNDk4MiIgaW5rc2NhcGU6dmVyc2lvbj0iMC45Mi4zICgyNDA1NTQ2LCAyMDE4LTAzLTExKSIgc29kaXBvZGk6ZG9jbmFtZT0iZGV2aWNlX2xhcHRvcC5zdmciIHg9IjBweCIgeT0iMHB4IiB2aWV3Qm94PSIwIDAgNjEuMzUgMzkuNzgiIHN0eWxlPSJlbmFibGUtYmFja2dyb3VuZDpuZXcgMCAwIDYxLjM1IDM5Ljc4OyIgeG1sOnNwYWNlPSJwcmVzZXJ2ZSI+JiN4YTs8c29kaXBvZGk6bmFtZWR2aWV3IGJvcmRlcmNvbG9yPSIjNjY2NjY2IiBib3JkZXJvcGFjaXR5PSIxIiBmaXQtbWFyZ2luLWJvdHRvbT0iMCIgZml0LW1hcmdpbi1sZWZ0PSIwIiBmaXQtbWFyZ2luLXJpZ2h0PSIwIiBmaXQtbWFyZ2luLXRvcD0iMCIgZ3JpZHRvbGVyYW5jZT0iMTAiIGd1aWRldG9sZXJhbmNlPSIxMCIgaWQ9Im5hbWVkdmlldzQ5ODQiIGlua3NjYXBlOmN1cnJlbnQtbGF5ZXI9InN2ZzQ5ODIiIGlua3NjYXBlOmN4PSI0MC44OTg5MjciIGlua3NjYXBlOmN5PSIyNi41MTc5OTUiIGlua3NjYXBlOnBhZ2VvcGFjaXR5PSIwIiBpbmtzY2FwZTpwYWdlc2hhZG93PSIyIiBpbmtzY2FwZTp3aW5kb3ctaGVpZ2h0PSIxMDE3IiBpbmtzY2FwZTp3aW5kb3ctbWF4aW1pemVkPSIxIiBpbmtzY2FwZTp3aW5kb3ctd2lkdGg9IjE5MjAiIGlua3NjYXBlOndpbmRvdy14PSItOCIgaW5rc2NhcGU6d2luZG93LXk9Ii04IiBpbmtzY2FwZTp6b29tPSIxNi4zNDQ5NCIgb2JqZWN0dG9sZXJhbmNlPSIxMCIgcGFnZWNvbG9yPSIjZmZmZmZmIiBzaG93Z3JpZD0iZmFsc2UiPiYjeGE7CTwvc29kaXBvZGk6bmFtZWR2aWV3PiYjeGE7PGcgaWQ9Imc0OTgwIj4mI3hhOwk8dGl0bGUgaWQ9InRpdGxlNDk1MCI+UGFnZS0xPC90aXRsZT4mI3hhOwk8ZyBpZD0iZ3JvdXAzNTk5LTEiPiYjeGE7CQk8dGl0bGUgaWQ9InRpdGxlNDk1MiI+RGV2aWNlOiBMYXB0b3A8L3RpdGxlPiYjeGE7CQk8ZyBpZD0ic2hhcGUzNjAwLTIiPiYjeGE7CQkJPHRpdGxlIGlkPSJ0aXRsZTQ5NTQiPlNoZWV0LjM2MDA8L3RpdGxlPiYjeGE7CQkJPHBhdGggaWQ9InBhdGg0OTU2IiBpbmtzY2FwZTpjb25uZWN0b3ItY3VydmF0dXJlPSIwIiBzdHlsZT0iZmlsbDojM0Y1NzY1OyIgZD0iTTYxLjEyLDM4LjI0TDYxLjEyLDM4LjI0TDYxLjEyLDM4LjI0ICAgICBjLTAuMDMsMC0wLjA2LTAuMDItMC4wOC0wLjAyYy02LjIzLTIuNzgtNi4yMy0yLjc4LTYuMjMtMi43OGMwLjMzLDAsMC4zMywwLDAuMzMsMGMwLjI3LDAsMC40Ni0wLjIsMC40Ni0wLjQ2ICAgICBjMC0zNC41MiwwLTM0LjUyLDAtMzQuNTJDNTUuNiwwLjIsNTUuNDEsMCw1NS4xNCwwQzUuODQsMCw1Ljg0LDAsNS44NCwwQzUuNTgsMCw1LjM4LDAuMiw1LjM4LDAuNDZjMCwzNC41MiwwLDM0LjUyLDAsMzQuNTIgICAgIGMwLDAuMjYsMC4yLDAuNDYsMC40NiwwLjQ2YzAuNCwwLDAuNCwwLDAuNCwwQzAsMzguNjQsMCwzOC42NCwwLDM4LjY0bDAsMGMwLDAuNjksMCwwLjY5LDAsMC42OWMwLDAuMjYsMC4yLDAuNDUsMC40NiwwLjQ1ICAgICBjNjAuNDMsMCw2MC40MywwLDYwLjQzLDBjMC4yNiwwLDAuNDYtMC4xOSwwLjQ2LTAuNDVjMC0wLjY5LDAtMC42OSwwLTAuNjlDNjEuMzUsMzguNDcsNjEuMjcsMzguMzMsNjEuMTIsMzguMjR6Ii8+JiN4YTsJCTwvZz4mI3hhOwkJPGcgaWQ9InNoYXBlMzYwMS00IiB0cmFuc2Zvcm09InRyYW5zbGF0ZSg3LjgwMzYxLC03LjQyOTM1KSI+JiN4YTsJCQk8dGl0bGUgaWQ9InRpdGxlNDk1OSI+U2hlZXQuMzYwMTwvdGl0bGU+JiN4YTsJCQk8cGF0aCBpZD0icGF0aDQ5NjEiIGlua3NjYXBlOmNvbm5lY3Rvci1jdXJ2YXR1cmU9IjAiIHN0eWxlPSJmaWxsOiM4RDlGQjA7IiBkPSJNMCwxMC4xOXYyOS41OWg0NS43NFYxMC4xOUgweiIvPiYjeGE7CQk8L2c+JiN4YTsJCTxnIGlkPSJzaGFwZTM2MDItNiIgdHJhbnNmb3JtPSJ0cmFuc2xhdGUoMjUuOTMyLC0yMi41Mjc3KSI+JiN4YTsJCQk8dGl0bGUgaWQ9InRpdGxlNDk2NCI+U2hlZXQuMzYwMjwvdGl0bGU+JiN4YTsJCQk8cGF0aCBpZD0icGF0aDQ5NjYiIGlua3NjYXBlOmNvbm5lY3Rvci1jdXJ2YXR1cmU9IjAiIHN0eWxlPSJmaWxsOiNGRkZGRkY7IiBkPSJNNC41OCwzNy44MmMwLjY1LDAsMS4yNiwwLjE4LDEuNzUsMC41MiAgICAgYzMuNjMsMCwzLjYzLDAsMy42MywwYy0wLjk0LTEuOTctMi45OC0zLjM1LTUuMzgtMy4zNWMtMS44MSwwLTMuNDgsMC44Mi00LjU4LDIuMTJjMS43NSwyLjY3LDEuNzUsMi42NywxLjc1LDIuNjcgICAgIEMyLjE2LDM4LjY0LDMuMywzNy44Miw0LjU4LDM3LjgyeiIvPiYjeGE7CQk8L2c+JiN4YTsJCTxnIGlkPSJzaGFwZTM2MDMtOCIgdHJhbnNmb3JtPSJ0cmFuc2xhdGUoMzAuMzc0MSwtMTUuNjk3NSkiPiYjeGE7CQkJPHRpdGxlIGlkPSJ0aXRsZTQ5NjkiPlNoZWV0LjM2MDM8L3RpdGxlPiYjeGE7CQkJPHBhdGggaWQ9InBhdGg0OTcxIiBpbmtzY2FwZTpjb25uZWN0b3ItY3VydmF0dXJlPSIwIiBzdHlsZT0iZmlsbDojRkZGRkZGOyIgZD0iTTUuNjcsMzEuODdjLTMuMjksMC0zLjI5LDAtMy4yOSwwICAgICBjMC40NiwwLjU0LDAuNzYsMS4yNSwwLjc2LDJjMCwxLjEtMC41NywyLjA0LTEuNDcsMi41N0MwLDM5Ljc4LDAsMzkuNzgsMCwzOS43OGMwLjA1LDAsMC4wOCwwLDAuMTIsMEMzLjQsMzkuNzgsNiwzNy4xNSw2LDMzLjkxICAgICBDNiwzMy4xOSw1Ljg5LDMyLjUyLDUuNjcsMzEuODd6Ii8+JiN4YTsJCTwvZz4mI3hhOwkJPGcgaWQ9InNoYXBlMzYwNC0xMCIgdHJhbnNmb3JtPSJ0cmFuc2xhdGUoMjQuNjExNCwtMTUuNjk3NSkiPiYjeGE7CQkJPHRpdGxlIGlkPSJ0aXRsZTQ5NzQiPlNoZWV0LjM2MDQ8L3RpdGxlPiYjeGE7CQkJPHBhdGggaWQ9InBhdGg0OTc2IiBpbmtzY2FwZTpjb25uZWN0b3ItY3VydmF0dXJlPSIwIiBzdHlsZT0iZmlsbDojRkZGRkZGOyIgZD0iTTUuOTQsMzYuOTRjLTEuNjgsMC0zLjAxLTEuMzUtMy4wMS0zICAgICBjMC0wLjExLDAtMC4yMiwwLTAuMzRjLTEuODYtMi45Mi0xLjg2LTIuOTItMS44Ni0yLjkyQzAuNDIsMzEuNjIsMCwzMi43NCwwLDMzLjk4YzAsMy4wMywyLjM2LDUuNSw1LjMzLDUuOCAgICAgYzEuNTEtMi45OSwxLjUxLTIuOTksMS41MS0yLjk5QzYuNTgsMzYuODYsNi4yNywzNi45NCw1Ljk0LDM2Ljk0eiIvPiYjeGE7CQk8L2c+JiN4YTsJPC9nPiYjeGE7PC9nPiYjeGE7PC9zdmc+;" vertex="1" parent="1">
          <mxGeometry x="1290.3" y="146.5" width="103.7" height="68" as="geometry" />
        </mxCell>
        <mxCell id="bEVf-RL3vcpq9Qt6OURH-24" value="" style="shape=image;verticalLabelPosition=bottom;labelBackgroundColor=#ffffff;verticalAlign=top;aspect=fixed;imageAspect=0;image=data:image/svg+xml,PHN2ZyB4bWxuczpjYz0iaHR0cDovL2NyZWF0aXZlY29tbW9ucy5vcmcvbnMjIiB4bWxuczpkYz0iaHR0cDovL3B1cmwub3JnL2RjL2VsZW1lbnRzLzEuMS8iIHhtbG5zOmlua3NjYXBlPSJodHRwOi8vd3d3Lmlua3NjYXBlLm9yZy9uYW1lc3BhY2VzL2lua3NjYXBlIiB4bWxuczpyZGY9Imh0dHA6Ly93d3cudzMub3JnLzE5OTkvMDIvMjItcmRmLXN5bnRheC1ucyMiIHhtbG5zOnNvZGlwb2RpPSJodHRwOi8vc29kaXBvZGkuc291cmNlZm9yZ2UubmV0L0RURC9zb2RpcG9kaS0wLmR0ZCIgeG1sbnM6c3ZnPSJodHRwOi8vd3d3LnczLm9yZy8yMDAwL3N2ZyIgeG1sbnM9Imh0dHA6Ly93d3cudzMub3JnLzIwMDAvc3ZnIiB4bWxuczp4bGluaz0iaHR0cDovL3d3dy53My5vcmcvMTk5OS94bGluayIgdmVyc2lvbj0iMS4xIiBpZD0ic3ZnNTUyODAiIGlua3NjYXBlOnZlcnNpb249IjAuOTIuMyAoMjQwNTU0NiwgMjAxOC0wMy0xMSkiIHNvZGlwb2RpOmRvY25hbWU9InhtbF8xLnN2ZyIgeD0iMHB4IiB5PSIwcHgiIHZpZXdCb3g9IjAgMCAzMS44OCAzNi40NCIgc3R5bGU9ImVuYWJsZS1iYWNrZ3JvdW5kOm5ldyAwIDAgMzEuODggMzYuNDQ7IiB4bWw6c3BhY2U9InByZXNlcnZlIj4mI3hhOzxzb2RpcG9kaTpuYW1lZHZpZXcgYm9yZGVyY29sb3I9IiM2NjY2NjYiIGJvcmRlcm9wYWNpdHk9IjEiIGZpdC1tYXJnaW4tYm90dG9tPSIwIiBmaXQtbWFyZ2luLWxlZnQ9IjAiIGZpdC1tYXJnaW4tcmlnaHQ9IjAiIGZpdC1tYXJnaW4tdG9wPSIwIiBncmlkdG9sZXJhbmNlPSIxMCIgZ3VpZGV0b2xlcmFuY2U9IjEwIiBpZD0ibmFtZWR2aWV3NTUyODIiIGlua3NjYXBlOmN1cnJlbnQtbGF5ZXI9InN2ZzU1MjgwIiBpbmtzY2FwZTpjeD0iMTguMzIwMjU0IiBpbmtzY2FwZTpjeT0iMjMuODk2MzY5IiBpbmtzY2FwZTpwYWdlb3BhY2l0eT0iMCIgaW5rc2NhcGU6cGFnZXNoYWRvdz0iMiIgaW5rc2NhcGU6d2luZG93LWhlaWdodD0iMTAxNyIgaW5rc2NhcGU6d2luZG93LW1heGltaXplZD0iMSIgaW5rc2NhcGU6d2luZG93LXdpZHRoPSIxOTIwIiBpbmtzY2FwZTp3aW5kb3cteD0iLTgiIGlua3NjYXBlOndpbmRvdy15PSItOCIgaW5rc2NhcGU6em9vbT0iMTYuNDk4MzU3IiBvYmplY3R0b2xlcmFuY2U9IjEwIiBwYWdlY29sb3I9IiNmZmZmZmYiIHNob3dncmlkPSJmYWxzZSI+JiN4YTsJPC9zb2RpcG9kaTpuYW1lZHZpZXc+JiN4YTs8ZyBpZD0iZzU1Mjc4IiB0cmFuc2Zvcm09InRyYW5zbGF0ZSgtNS45MjQ4NSwtMS4xOTE0MTIpIj4mI3hhOwk8dGl0bGUgaWQ9InRpdGxlNTUyMjQiPlBhZ2UtMTwvdGl0bGU+JiN4YTsJPGcgaWQ9Imdyb3VwMzk3Ni0xIiB0cmFuc2Zvcm09InRyYW5zbGF0ZSg1LjkyNDg1LC0xLjc4MTIxKSI+JiN4YTsJCTx0aXRsZSBpZD0idGl0bGU1NTIyNiI+WE1MICMxPC90aXRsZT4mI3hhOwkJPGcgaWQ9Imdyb3VwMzk3Ny0yIj4mI3hhOwkJCTx0aXRsZSBpZD0idGl0bGU1NTIyOCI+SlNPTiAjMS4zNzM8L3RpdGxlPiYjeGE7CQkJPGcgaWQ9Imdyb3VwMzk3OC0zIj4mI3hhOwkJCQk8dGl0bGUgaWQ9InRpdGxlNTUyMzAiPkRPQyAjMTwvdGl0bGU+JiN4YTsJCQkJPGcgaWQ9InNoYXBlMzk3OS00IiB0cmFuc2Zvcm09InRyYW5zbGF0ZSg0LjU1NDU2KSI+JiN4YTsJCQkJCTx0aXRsZSBpZD0idGl0bGU1NTIzMiI+U2hlZXQuMzk3OTwvdGl0bGU+JiN4YTsJCQkJCTxwYXRoIGlkPSJwYXRoNTUyMzQiIGlua3NjYXBlOmNvbm5lY3Rvci1jdXJ2YXR1cmU9IjAiIHN0eWxlPSJmaWxsOiNFMkU1RTc7IiBkPSJNMi4yOCwyLjk4QzEuMDIsMi45OCwwLDQsMCw1LjI1djMxLjg5ICAgICAgIGMwLDEuMjUsMS4wMiwyLjI3LDIuMjgsMi4yN2gyMi43N2MxLjI1LDAsMi4yOC0xLjAyLDIuMjgtMi4yN1YxMi4wOWwtOS4xMS05LjExSDIuMjh6Ii8+JiN4YTsJCQkJPC9nPiYjeGE7CQkJCTxnIGlkPSJzaGFwZTM5ODAtNiIgdHJhbnNmb3JtPSJ0cmFuc2xhdGUoMjIuNzcyOCwtMjcuMzI3NCkiPiYjeGE7CQkJCQk8dGl0bGUgaWQ9InRpdGxlNTUyMzciPlNoZWV0LjM5ODA8L3RpdGxlPiYjeGE7CQkJCQk8cGF0aCBpZD0icGF0aDU1MjM5IiBpbmtzY2FwZTpjb25uZWN0b3ItY3VydmF0dXJlPSIwIiBzdHlsZT0iZmlsbDojQjBCN0JEOyIgZD0iTTIuMjgsMzkuNDFoNi44M0wwLDMwLjN2Ni44NCAgICAgICBDMCwzOC4zOSwxLjAyLDM5LjQxLDIuMjgsMzkuNDF6Ii8+JiN4YTsJCQkJPC9nPiYjeGE7CQkJCTxnIGlkPSJzaGFwZTM5ODEtOCIgdHJhbnNmb3JtPSJ0cmFuc2xhdGUoMjUuMDUwMSwtMjAuNDk1NSkiPiYjeGE7CQkJCQk8dGl0bGUgaWQ9InRpdGxlNTUyNDIiPlNoZWV0LjM5ODE8L3RpdGxlPiYjeGE7CQkJCQk8cGF0aCBpZD0icGF0aDU1MjQ0IiBpbmtzY2FwZTpjb25uZWN0b3ItY3VydmF0dXJlPSIwIiBzdHlsZT0iZmlsbDojQ0FEMUQ4OyIgZD0iTTYuODMsMzkuNDFMMCwzMi41OGg2LjgzVjM5LjQxeiIvPiYjeGE7CQkJCTwvZz4mI3hhOwkJCQk8ZyBpZD0ic2hhcGUzOTgyLTEwIiB0cmFuc2Zvcm09InRyYW5zbGF0ZSgwLC01LjY5MzIpIj4mI3hhOwkJCQkJPHRpdGxlIGlkPSJ0aXRsZTU1MjQ3Ij5TaGVldC4zOTgyPC90aXRsZT4mI3hhOwkJCQkJPHBhdGggaWQ9InBhdGg1NTI0OSIgaW5rc2NhcGU6Y29ubmVjdG9yLWN1cnZhdHVyZT0iMCIgc3R5bGU9ImZpbGw6IzRCQUNDNjsiIGQ9Ik0yNy4zMywzOC4yN2MwLDAuNjMtMC41MiwxLjE0LTEuMTQsMS4xNEgxLjE0ICAgICAgIEMwLjUxLDM5LjQxLDAsMzguOSwwLDM4LjI3VjI2Ljg5YzAtMC42MywwLjUxLTEuMTQsMS4xNC0xLjE0aDI1LjA1YzAuNjIsMCwxLjE0LDAuNTEsMS4xNCwxLjE0TDI3LjMzLDM4LjI3eiIvPiYjeGE7CQkJCTwvZz4mI3hhOwkJCQk8ZyBpZD0ic2hhcGUzOTgzLTEyIiB0cmFuc2Zvcm09InRyYW5zbGF0ZSg0LjU1NDU2LC00LjU1NDU2KSI+JiN4YTsJCQkJCTx0aXRsZSBpZD0idGl0bGU1NTI1MiI+U2hlZXQuMzk4MzwvdGl0bGU+JiN4YTsJCQkJCTxwYXRoIGlkPSJwYXRoNTUyNTQiIGlua3NjYXBlOmNvbm5lY3Rvci1jdXJ2YXR1cmU9IjAiIHN0eWxlPSJmaWxsOiNDQUQxRDg7IiBkPSJNMjEuNjMsMzguMjdIMHYxLjE0aDIxLjYzICAgICAgIGMwLjYzLDAsMS4xNC0wLjUxLDEuMTQtMS4xNHYtMS4xM0MyMi43NywzNy43NiwyMi4yNiwzOC4yNywyMS42MywzOC4yN3oiLz4mI3hhOwkJCQk8L2c+JiN4YTsJCQk8L2c+JiN4YTsJCTwvZz4mI3hhOwkJPGcgaWQ9Imdyb3VwMzk4NC0xNCIgdHJhbnNmb3JtPSJ0cmFuc2xhdGUoNS4wMDM3MiwtOS4xNDczNykiPiYjeGE7CQkJPHRpdGxlIGlkPSJ0aXRsZTU1MjU5Ij5YTUwuMzY4NzQ8L3RpdGxlPiYjeGE7CQkJPGcgaWQ9InNoYXBlMzk4NS0xNSI+JiN4YTsJCQkJPHRpdGxlIGlkPSJ0aXRsZTU1MjYxIj5TaGVldC4zOTg1PC90aXRsZT4mI3hhOwkJCQk8cGF0aCBpZD0icGF0aDU1MjYzIiBpbmtzY2FwZTpjb25uZWN0b3ItY3VydmF0dXJlPSIwIiBzdHlsZT0iZmlsbDojRkZGRkZGOyIgZD0iTTMuMDQsMzYuMzNsMS42LDMuMDhIMy40NWwtMS0yLjM5SDIuMzYgICAgICBsLTEuMDcsMi4zOUgwLjFsMS42LTMuMDhMMCwzMy4wNmgxLjE3bDEuMTEsMi41OGgwLjA4bDEuMjEtMi41OGgxLjE3TDMuMDQsMzYuMzN6Ii8+JiN4YTsJCQk8L2c+JiN4YTsJCQk8ZyBpZD0ic2hhcGUzOTg2LTE3IiB0cmFuc2Zvcm09InRyYW5zbGF0ZSg2LjE0NTQ0KSI+JiN4YTsJCQkJPHRpdGxlIGlkPSJ0aXRsZTU1MjY2Ij5TaGVldC4zOTg2PC90aXRsZT4mI3hhOwkJCQk8cGF0aCBpZD0icGF0aDU1MjY4IiBpbmtzY2FwZTpjb25uZWN0b3ItY3VydmF0dXJlPSIwIiBzdHlsZT0iZmlsbDojRkZGRkZGOyIgZD0iTTQuNzcsMzMuMDZoMS4wNHY2LjM1SDQuNzd2LTQuMzdsLTEuNDEsMy41NCAgICAgIGgtMC45bC0xLjQyLTMuNTR2NC4zN0gwdi02LjM1aDEuMDRsMS44Nyw0LjM0TDQuNzcsMzMuMDZ6Ii8+JiN4YTsJCQk8L2c+JiN4YTsJCQk8ZyBpZD0ic2hhcGUzOTg3LTE5IiB0cmFuc2Zvcm09InRyYW5zbGF0ZSgxMy41Mzc3KSI+JiN4YTsJCQkJPHRpdGxlIGlkPSJ0aXRsZTU1MjcxIj5TaGVldC4zOTg3PC90aXRsZT4mI3hhOwkJCQk8cGF0aCBpZD0icGF0aDU1MjczIiBpbmtzY2FwZTpjb25uZWN0b3ItY3VydmF0dXJlPSIwIiBzdHlsZT0iZmlsbDojRkZGRkZGOyIgZD0iTTEuMDQsMzMuMDZ2NS41N2gyLjl2MC43OEgwdi02LjM1SDEuMDR6Ii8+JiN4YTsJCQk8L2c+JiN4YTsJCTwvZz4mI3hhOwk8L2c+JiN4YTs8L2c+JiN4YTs8L3N2Zz4=;" vertex="1" parent="1">
          <mxGeometry x="190" y="60.75" width="43.78" height="49.25" as="geometry" />
        </mxCell>
        <mxCell id="bEVf-RL3vcpq9Qt6OURH-25" value="" style="shape=image;verticalLabelPosition=bottom;labelBackgroundColor=#ffffff;verticalAlign=top;aspect=fixed;imageAspect=0;image=data:image/svg+xml,PHN2ZyB4bWxuczpjYz0iaHR0cDovL2NyZWF0aXZlY29tbW9ucy5vcmcvbnMjIiB4bWxuczpkYz0iaHR0cDovL3B1cmwub3JnL2RjL2VsZW1lbnRzLzEuMS8iIHhtbG5zOmlua3NjYXBlPSJodHRwOi8vd3d3Lmlua3NjYXBlLm9yZy9uYW1lc3BhY2VzL2lua3NjYXBlIiB4bWxuczpyZGY9Imh0dHA6Ly93d3cudzMub3JnLzE5OTkvMDIvMjItcmRmLXN5bnRheC1ucyMiIHhtbG5zOnNvZGlwb2RpPSJodHRwOi8vc29kaXBvZGkuc291cmNlZm9yZ2UubmV0L0RURC9zb2RpcG9kaS0wLmR0ZCIgeG1sbnM6c3ZnPSJodHRwOi8vd3d3LnczLm9yZy8yMDAwL3N2ZyIgeG1sbnM9Imh0dHA6Ly93d3cudzMub3JnLzIwMDAvc3ZnIiB4bWxuczp4bGluaz0iaHR0cDovL3d3dy53My5vcmcvMTk5OS94bGluayIgdmVyc2lvbj0iMS4xIiBpZD0ic3ZnNTk4MDUiIGlua3NjYXBlOnZlcnNpb249IjAuOTIuMyAoMjQwNTU0NiwgMjAxOC0wMy0xMSkiIHNvZGlwb2RpOmRvY25hbWU9ImJyb3dzZXIuc3ZnIiB4PSIwcHgiIHk9IjBweCIgdmlld0JveD0iMCAwIDg4LjE3IDc3LjA1IiBzdHlsZT0iZW5hYmxlLWJhY2tncm91bmQ6bmV3IDAgMCA4OC4xNyA3Ny4wNTsiIHhtbDpzcGFjZT0icHJlc2VydmUiPiYjeGE7PHNvZGlwb2RpOm5hbWVkdmlldyBib3JkZXJjb2xvcj0iIzY2NjY2NiIgYm9yZGVyb3BhY2l0eT0iMSIgZml0LW1hcmdpbi1ib3R0b209IjAiIGZpdC1tYXJnaW4tbGVmdD0iMCIgZml0LW1hcmdpbi1yaWdodD0iMCIgZml0LW1hcmdpbi10b3A9IjAiIGdyaWR0b2xlcmFuY2U9IjEwIiBndWlkZXRvbGVyYW5jZT0iMTAiIGlkPSJuYW1lZHZpZXc1OTgwNyIgaW5rc2NhcGU6Y3VycmVudC1sYXllcj0ic3ZnNTk4MDUiIGlua3NjYXBlOmN4PSI1OC43NzgxMjUiIGlua3NjYXBlOmN5PSI1MS4zNjIyMTUiIGlua3NjYXBlOnBhZ2VvcGFjaXR5PSIwIiBpbmtzY2FwZTpwYWdlc2hhZG93PSIyIiBpbmtzY2FwZTp3aW5kb3ctaGVpZ2h0PSIxMDE3IiBpbmtzY2FwZTp3aW5kb3ctbWF4aW1pemVkPSIxIiBpbmtzY2FwZTp3aW5kb3ctd2lkdGg9IjE5MjAiIGlua3NjYXBlOndpbmRvdy14PSItOCIgaW5rc2NhcGU6d2luZG93LXk9Ii04IiBpbmtzY2FwZTp6b29tPSI4LjA5ODMyMjkiIG9iamVjdHRvbGVyYW5jZT0iMTAiIHBhZ2Vjb2xvcj0iI2ZmZmZmZiIgc2hvd2dyaWQ9ImZhbHNlIj4mI3hhOwk8L3NvZGlwb2RpOm5hbWVkdmlldz4mI3hhOzxnIGlkPSJnNTk4MDMiIHRyYW5zZm9ybT0idHJhbnNsYXRlKC0xLjYyMDkzLC0xLjYxODgxKSI+JiN4YTsJPHRpdGxlIGlkPSJ0aXRsZTU5NzY4Ij5QYWdlLTE8L3RpdGxlPiYjeGE7CTxnIGlkPSJncm91cDUyMzMtMSIgdHJhbnNmb3JtPSJ0cmFuc2xhdGUoMS42MjA5MywtMS42MjA5MykiPiYjeGE7CQk8dGl0bGUgaWQ9InRpdGxlNTk3NzAiPkJyb3dzZXI8L3RpdGxlPiYjeGE7CQk8ZyBpZD0ic2hhcGU1MjM0LTIiPiYjeGE7CQkJPHRpdGxlIGlkPSJ0aXRsZTU5NzcyIj5wYXRoMzM3PC90aXRsZT4mI3hhOwkJCTxwYXRoIGlkPSJwYXRoNTk3NzQiIGlua3NjYXBlOmNvbm5lY3Rvci1jdXJ2YXR1cmU9IjAiIHN0eWxlPSJmaWxsOiM1OUI0RDk7IiBkPSJNMCw3Ni43N2MwLjAxLDEuOTQsMS41OSwzLjUyLDMuNTMsMy41Mmg4MS4xMSAgICAgYzEuOTQsMCwzLjUyLTEuNTgsMy41My0zLjUydi01NS4ySDBWNzYuNzd6Ii8+JiN4YTsJCTwvZz4mI3hhOwkJPGcgaWQ9InNoYXBlNTIzNS00IiB0cmFuc2Zvcm09InRyYW5zbGF0ZSgwLC01NC44NDU5KSI+JiN4YTsJCQk8dGl0bGUgaWQ9InRpdGxlNTk3NzciPnBhdGgzMzk8L3RpdGxlPiYjeGE7CQkJPHBhdGggaWQ9InBhdGg1OTc3OSIgaW5rc2NhcGU6Y29ubmVjdG9yLWN1cnZhdHVyZT0iMCIgc3R5bGU9ImZpbGw6I0EwQTFBMjsiIGQ9Ik04NC42NCw1OC4wOUgzLjUzYy0xLjk0LDAtMy41MiwxLjU4LTMuNTMsMy41MiAgICAgdjE4LjY4aDg4LjE3VjYxLjYxQzg4LjE2LDU5LjY3LDg2LjU4LDU4LjA5LDg0LjY0LDU4LjA5eiIvPiYjeGE7CQk8L2c+JiN4YTsJCTxnIGlkPSJzaGFwZTUyMzYtNiIgdHJhbnNmb3JtPSJ0cmFuc2xhdGUoMCwtMS45NDAyNikiPiYjeGE7CQkJPHRpdGxlIGlkPSJ0aXRsZTU5NzgyIj5wYXRoMzQxPC90aXRsZT4mI3hhOwkJCTxwYXRoIGlkPSJwYXRoNTk3ODQiIGlua3NjYXBlOmNvbm5lY3Rvci1jdXJ2YXR1cmU9IjAiIHN0eWxlPSJmaWxsOiNGRkZGRkY7ZmlsbC1vcGFjaXR5OjAuMjsiIGQ9Ik0zLjUzLDUuMTggICAgIEMxLjU5LDUuMTgsMC4wMSw2Ljc2LDAsOC43djY4LjA3YzAuMDEsMS45NCwxLjU5LDMuNTIsMy41MywzLjUyaDMuODhMNzYuODgsNS4xOEgzLjUzeiIvPiYjeGE7CQk8L2c+JiN4YTsJCTxnIGlkPSJzaGFwZTUyMzctOCIgdHJhbnNmb3JtPSJ0cmFuc2xhdGUoMjIuNzQ4MiwtNjEuNzE3MSkiPiYjeGE7CQkJPHRpdGxlIGlkPSJ0aXRsZTU5Nzg3Ij5yZWN0MzQzPC90aXRsZT4mI3hhOwkJCTxyZWN0IGlkPSJyZWN0NTk3ODkiIHg9IjAiIHk9IjczLjQyIiBzdHlsZT0iZmlsbDojRkZGRkZGOyIgd2lkdGg9IjU5LjQzIiBoZWlnaHQ9IjYuODgiLz4mI3hhOwkJPC9nPiYjeGE7CQk8ZyBpZD0ic2hhcGU1MjM4LTEwIiB0cmFuc2Zvcm09InRyYW5zbGF0ZSg1LjE3NDY5LC01OS4xMzQpIj4mI3hhOwkJCTx0aXRsZSBpZD0idGl0bGU1OTc5MiI+cGF0aDM0NTwvdGl0bGU+JiN4YTsJCQk8cGF0aCBpZD0icGF0aDU5Nzk0IiBpbmtzY2FwZTpjb25uZWN0b3ItY3VydmF0dXJlPSIwIiBzdHlsZT0iZmlsbDojNTlCNEQ5OyIgZD0iTTE0Ljc1LDc0LjE4YzAsNC43Ny0zLjg3LDguNjQtOC42NCw4LjY0ICAgICBzLTguNjQtMy44Ny04LjY0LTguNjRjMC00Ljc3LDMuODctOC42NCw4LjY0LTguNjRjMCwwLDAsMCwwLDBDMTAuODgsNjUuNTUsMTQuNzQsNjkuNDEsMTQuNzUsNzQuMTh6Ii8+JiN4YTsJCTwvZz4mI3hhOwkJPGcgaWQ9InNoYXBlNTIzOS0xMiIgdHJhbnNmb3JtPSJ0cmFuc2xhdGUoNy4wNTI2OSwtNjAuMTMwMikiPiYjeGE7CQkJPHRpdGxlIGlkPSJ0aXRsZTU5Nzk3Ij5wb2x5Z29uMzQ3PC90aXRsZT4mI3hhOwkJCTxwYXRoIGlkPSJwYXRoNTk3OTkiIGlua3NjYXBlOmNvbm5lY3Rvci1jdXJ2YXR1cmU9IjAiIHN0eWxlPSJmaWxsOiNGRkZGRkY7IiBkPSJNNy4yMyw4MC4yOUg1LjExTDAsNzUuMzZsNS4xMS00Ljk0aDIuMTIgICAgIGwtMy44OCw0LjA2aDkuNTJ2MS43NkgzLjM1TDcuMjMsODAuMjl6Ii8+JiN4YTsJCTwvZz4mI3hhOwk8L2c+JiN4YTs8L2c+JiN4YTs8L3N2Zz4=;" vertex="1" parent="1">
          <mxGeometry x="52.95999999999992" y="162.43" width="124.08" height="108.57" as="geometry" />
        </mxCell>
        <mxCell id="bEVf-RL3vcpq9Qt6OURH-6" value="" style="shape=image;html=1;verticalAlign=top;verticalLabelPosition=bottom;labelBackgroundColor=#ffffff;imageAspect=0;aspect=fixed;image=https://cdn3.iconfinder.com/data/icons/logos-brands-3/24/logo_brand_brands_logos_chrome-128.png" vertex="1" parent="1">
          <mxGeometry x="811" y="162" width="58" height="58" as="geometry" />
        </mxCell>
        <mxCell id="bEVf-RL3vcpq9Qt6OURH-27" value="" style="shape=image;verticalLabelPosition=bottom;labelBackgroundColor=#ffffff;verticalAlign=top;aspect=fixed;imageAspect=0;image=data:image/svg+xml,PHN2ZyB4bWxuczpjYz0iaHR0cDovL2NyZWF0aXZlY29tbW9ucy5vcmcvbnMjIiB4bWxuczpkYz0iaHR0cDovL3B1cmwub3JnL2RjL2VsZW1lbnRzLzEuMS8iIHhtbG5zOmlua3NjYXBlPSJodHRwOi8vd3d3Lmlua3NjYXBlLm9yZy9uYW1lc3BhY2VzL2lua3NjYXBlIiB4bWxuczpyZGY9Imh0dHA6Ly93d3cudzMub3JnLzE5OTkvMDIvMjItcmRmLXN5bnRheC1ucyMiIHhtbG5zOnNvZGlwb2RpPSJodHRwOi8vc29kaXBvZGkuc291cmNlZm9yZ2UubmV0L0RURC9zb2RpcG9kaS0wLmR0ZCIgeG1sbnM6c3ZnPSJodHRwOi8vd3d3LnczLm9yZy8yMDAwL3N2ZyIgeG1sbnM9Imh0dHA6Ly93d3cudzMub3JnLzIwMDAvc3ZnIiB4bWxuczp4bGluaz0iaHR0cDovL3d3dy53My5vcmcvMTk5OS94bGluayIgdmVyc2lvbj0iMS4xIiBpZD0ic3ZnNjQyMyIgaW5rc2NhcGU6dmVyc2lvbj0iMC45Mi4zICgyNDA1NTQ2LCAyMDE4LTAzLTExKSIgc29kaXBvZGk6ZG9jbmFtZT0ia3ViZXJuZXRlcy5zdmciIHg9IjBweCIgeT0iMHB4IiB2aWV3Qm94PSIwIDAgMzQuNyAzMy43MSIgc3R5bGU9ImVuYWJsZS1iYWNrZ3JvdW5kOm5ldyAwIDAgMzQuNyAzMy43MTsiIHhtbDpzcGFjZT0icHJlc2VydmUiPiYjeGE7PHNvZGlwb2RpOm5hbWVkdmlldyBib3JkZXJjb2xvcj0iIzY2NjY2NiIgYm9yZGVyb3BhY2l0eT0iMSIgZml0LW1hcmdpbi1ib3R0b209IjAiIGZpdC1tYXJnaW4tbGVmdD0iMCIgZml0LW1hcmdpbi1yaWdodD0iMCIgZml0LW1hcmdpbi10b3A9IjAiIGdyaWR0b2xlcmFuY2U9IjEwIiBndWlkZXRvbGVyYW5jZT0iMTAiIGlkPSJuYW1lZHZpZXc2NDI1IiBpbmtzY2FwZTpjdXJyZW50LWxheWVyPSJzdmc2NDIzIiBpbmtzY2FwZTpjeD0iMjMuMTM1NjMyIiBpbmtzY2FwZTpjeT0iMjIuNDcxOTk0IiBpbmtzY2FwZTpwYWdlb3BhY2l0eT0iMCIgaW5rc2NhcGU6cGFnZXNoYWRvdz0iMiIgaW5rc2NhcGU6d2luZG93LWhlaWdodD0iMTAxNyIgaW5rc2NhcGU6d2luZG93LW1heGltaXplZD0iMSIgaW5rc2NhcGU6d2luZG93LXdpZHRoPSIxOTIwIiBpbmtzY2FwZTp3aW5kb3cteD0iLTgiIGlua3NjYXBlOndpbmRvdy15PSItOCIgaW5rc2NhcGU6em9vbT0iMTkuMjg4MzkzIiBvYmplY3R0b2xlcmFuY2U9IjEwIiBwYWdlY29sb3I9IiNmZmZmZmYiIHNob3dncmlkPSJmYWxzZSI+JiN4YTsJPC9zb2RpcG9kaTpuYW1lZHZpZXc+JiN4YTs8ZyBpZD0ic2hhcGUzNTA0LTIiIHRyYW5zZm9ybT0idHJhbnNsYXRlKDIuMjkwNDQ1NywtMi4yODk1MTk5KSI+JiN4YTsJPHRpdGxlIGlkPSJ0aXRsZTY0MDAiPlNoZWV0LjM1MDQ8L3RpdGxlPiYjeGE7CSYjeGE7CQk8cGF0aCBpZD0icGF0aDY0MDIiIGlua3NjYXBlOmNvbm5lY3Rvci1jdXJ2YXR1cmU9IjAiIHN0eWxlPSJmaWxsOiNGRkZGRkY7c3Ryb2tlOiNGRkZGRkY7c3Ryb2tlLXdpZHRoOjQuNTgxO3N0cm9rZS1saW5lY2FwOnJvdW5kO3N0cm9rZS1saW5lam9pbjpyb3VuZDtzdHJva2UtbWl0ZXJsaW1pdDozOyIgZD0iICAgTTE1LjA2LDQuNThsMTIuMDgsNS43N2wyLjk4LDEyLjk2bC04LjM1LDEwLjRIOC4zNkwwLDIzLjMybDIuOTgtMTIuOTdMMTUuMDYsNC41OHoiLz4mI3hhOzwvZz4mI3hhOzxnIGlkPSJzaGFwZTM1MDUtNCIgdHJhbnNmb3JtPSJ0cmFuc2xhdGUoMC44OTgyMTU3MSwtMC44ODg1OTk4NSkiPiYjeGE7CTx0aXRsZSBpZD0idGl0bGU2NDA1Ij5TaGVldC4zNTA1PC90aXRsZT4mI3hhOwk8cGF0aCBpZD0icGF0aDY0MDciIGlua3NjYXBlOmNvbm5lY3Rvci1jdXJ2YXR1cmU9IjAiIHN0eWxlPSJmaWxsOiMzMjZDRTU7IiBkPSJNMTYuMzQsMS43OEMxNi4wNSwxLjgsMTUuNzYsMS44NywxNS41LDJMNC4wNiw3LjQ2ICAgYy0wLjYsMC4yOS0xLjAzLDAuODMtMS4xOCwxLjQ3TDAuMDYsMjEuMjFjLTAuMTQsMC41OC0wLjAzLDEuMTcsMC4yOSwxLjY3YzAuMDQsMC4wNiwwLjA4LDAuMTEsMC4xMywwLjE3TDguNCwzMi45ICAgYzAuNDEsMC41MSwxLjA0LDAuODEsMS43LDAuODFoMTIuN2MwLjY3LDAsMS4zLTAuMywxLjcxLTAuODJsNy45Mi05Ljg0YzAuNDEtMC41MiwwLjU3LTEuMiwwLjQyLTEuODRMMzAuMDMsOC45MyAgIGMtMC4xNS0wLjY0LTAuNTktMS4xOC0xLjE5LTEuNDdMMTcuNCwyQzE3LjA3LDEuODQsMTYuNywxLjc2LDE2LjM0LDEuNzh6Ii8+JiN4YTs8L2c+JiN4YTs8ZyBpZD0ic2hhcGUzNTA2LTYiIHRyYW5zZm9ybT0idHJhbnNsYXRlKDAuODk4MjE1NzEsLTAuODg4NTk5ODUpIj4mI3hhOwk8dGl0bGUgaWQ9InRpdGxlNjQxMCI+U2hlZXQuMzUwNjwvdGl0bGU+JiN4YTsJPHBhdGggaWQ9InBhdGg2NDEyIiBpbmtzY2FwZTpjb25uZWN0b3ItY3VydmF0dXJlPSIwIiBzdHlsZT0iZmlsbDpub25lOyIgZD0iTTE2LjM0LDEuNzhDMTYuMDUsMS44LDE1Ljc2LDEuODcsMTUuNSwyTDQuMDYsNy40NiAgIGMtMC42LDAuMjktMS4wMywwLjgzLTEuMTgsMS40N0wwLjA2LDIxLjIxYy0wLjE0LDAuNTgtMC4wMywxLjE3LDAuMjksMS42N2MwLjA0LDAuMDYsMC4wOCwwLjExLDAuMTMsMC4xN0w4LjQsMzIuOSAgIGMwLjQxLDAuNTEsMS4wNCwwLjgxLDEuNywwLjgxaDEyLjdjMC42NywwLDEuMy0wLjMsMS43MS0wLjgybDcuOTItOS44NGMwLjQxLTAuNTIsMC41Ny0xLjIsMC40Mi0xLjg0TDMwLjAzLDguOTMgICBjLTAuMTUtMC42NC0wLjU5LTEuMTgtMS4xOS0xLjQ3TDE3LjQsMkMxNy4wNywxLjg0LDE2LjcsMS43NiwxNi4zNCwxLjc4Ii8+JiN4YTs8L2c+JiN4YTs8ZyBpZD0ic2hhcGUzNTA3LTkiIHRyYW5zZm9ybT0idHJhbnNsYXRlKDUuMjkwMzg1NywtNS4wNzA3OTk5KSI+JiN4YTsJPHRpdGxlIGlkPSJ0aXRsZTY0MTUiPlNoZWV0LjM1MDc8L3RpdGxlPiYjeGE7CSYjeGE7CQk8cGF0aCBpZD0icGF0aDY0MTciIGlua3NjYXBlOmNvbm5lY3Rvci1jdXJ2YXR1cmU9IjAiIHN0eWxlPSJmaWxsOiNGRkZGRkY7c3Ryb2tlOiNGRkZGRkY7c3Ryb2tlLXdpZHRoOjAuMDExMjtzdHJva2UtbGluZWNhcDpyb3VuZDtzdHJva2UtbGluZWpvaW46cm91bmQ7c3Ryb2tlLW1pdGVybGltaXQ6MzsiIGQ9IiAgIE0xMi4wNiwxMC4xNWMtMC4zOCwwLTAuNjgsMC4zNC0wLjY4LDAuNzZ2MC4wMWMwLDAuMDYsMCwwLjEzLDAsMC4xOGMwLjAxLDAuMjQsMC4wNiwwLjQzLDAuMDksMC42NWMwLjA2LDAuNDgsMC4xLDAuODgsMC4wNywxLjI0ICAgYy0wLjAyLDAuMTQtMC4xMywwLjI3LTAuMjIsMC4zNmwtMC4wMSwwLjI5Yy0wLjQxLDAuMDMtMC44MywwLjA5LTEuMjQsMC4xOWMtMS43OCwwLjQtMy4zMSwxLjMyLTQuNDcsMi41NSAgIGMtMC4wOC0wLjA1LTAuMjEtMC4xNC0wLjI1LTAuMTdjLTAuMTIsMC4wMS0wLjI1LDAuMDUtMC40MS0wLjA0Yy0wLjMxLTAuMjEtMC41OC0wLjQ5LTAuOTItMC44NGMtMC4xNi0wLjE2LTAuMjctMC4zMi0wLjQ1LTAuNDggICBjLTAuMDUtMC4wMy0wLjExLTAuMDgtMC4xNS0wLjEyYy0wLjE1LTAuMTEtMC4zMi0wLjE3LTAuNDgtMC4xOGMtMC4yMSwwLTAuNDIsMC4wOC0wLjU1LDAuMjRjLTAuMjMsMC4zLTAuMTYsMC43NSwwLjE3LDEuMDJoMC4wMSAgIGMwLjA0LDAuMDQsMC4xLDAuMDksMC4xNCwwLjEyYzAuMiwwLjE0LDAuMzgsMC4yMSwwLjU3LDAuMzNjMC40MSwwLjI1LDAuNzUsMC40NiwxLjAyLDAuNzFjMC4xMSwwLjEyLDAuMTIsMC4zMSwwLjE0LDAuNGwwLjIyLDAuMiAgIGMtMS4xOCwxLjc2LTEuNzIsMy45NS0xLjQsNi4xN2wtMC4yOSwwLjA5Yy0wLjA3LDAuMDktMC4xOCwwLjI1LTAuMjksMC4yOWMtMC4zNSwwLjExLTAuNzUsMC4xNS0xLjIzLDAuMiAgIGMtMC4yMiwwLjAyLTAuNDIsMC4wMS0wLjY2LDAuMDZjLTAuMDUsMC4wMS0wLjEyLDAuMDMtMC4xOCwwLjA0YzAsMCwwLDAtMC4wMSwwbDAsMGMtMC40MSwwLjEtMC42NywwLjQ3LTAuNTgsMC44NCAgIGMwLjA4LDAuMzYsMC40NywwLjU5LDAuODgsMC41aDAuMDFsMC4wMS0wLjAxYzAuMDYtMC4wMSwwLjEzLTAuMDIsMC4xOC0wLjA0YzAuMjMtMC4wNiwwLjQtMC4xNSwwLjYxLTAuMjMgICBjMC40Ni0wLjE2LDAuODMtMC4zLDEuMi0wLjM1YzAuMTUtMC4wMiwwLjMxLDAuMDksMC4zOSwwLjE0bDAuMy0wLjA2YzAuNjksMi4xNCwyLjEzLDMuODYsMy45NSw0LjkzbC0wLjEzLDAuMyAgIGMwLjA1LDAuMTIsMC4xLDAuMjgsMC4wNiwwLjM5Yy0wLjEzLDAuMzQtMC4zNiwwLjcxLTAuNjEsMS4xMmMtMC4xMywwLjE4LTAuMjYsMC4zMy0wLjM3LDAuNTRjLTAuMDMsMC4wNi0wLjA2LDAuMTMtMC4wOSwwLjE5ICAgYy0wLjE4LDAuMzctMC4wNSwwLjgxLDAuMjksMC45N2MwLjM0LDAuMTcsMC43Ny0wLjAxLDAuOTUtMC4zOWwwLDBsMCwwYzAuMDMtMC4wNSwwLjA2LTAuMTIsMC4wOC0wLjE3ICAgYzAuMS0wLjIzLDAuMTMtMC40MiwwLjItMC42M2MwLjE4LTAuNDYsMC4yOC0wLjkzLDAuNTMtMS4yM2MwLjA3LTAuMDgsMC4xOC0wLjEyLDAuMjktMC4xNWwwLjE2LTAuMjggICBjMS41OSwwLjYxLDMuMzcsMC43OCw1LjE0LDAuMzdjMC40MS0wLjA5LDAuOC0wLjIxLDEuMTgtMC4zNWMwLjA1LDAuMDgsMC4xMiwwLjIzLDAuMTUsMC4yNmMwLjExLDAuMDQsMC4yNCwwLjA2LDAuMzQsMC4yMSAgIGMwLjE5LDAuMzMsMC4zMiwwLjcsMC40OCwxLjE2YzAuMDYsMC4yMSwwLjEsMC40LDAuMiwwLjYyYzAuMDIsMC4wNiwwLjA1LDAuMTMsMC4wOCwwLjE4YzAuMTgsMC4zOCwwLjYsMC41NSwwLjk1LDAuMzkgICBjMC4zNC0wLjE3LDAuNDYtMC42LDAuMjktMC45N2MtMC4wMy0wLjA2LTAuMDctMC4xNC0wLjA5LTAuMTljLTAuMTItMC4yMS0wLjI0LTAuMzYtMC4zNy0wLjU1Yy0wLjI2LTAuNC0wLjQ3LTAuNzQtMC42MS0xLjA4ICAgYy0wLjA1LTAuMTgsMC4wMS0wLjI5LDAuMDYtMC40MWMtMC4wMy0wLjAzLTAuMDktMC4xOS0wLjEyLTAuMjdjMS45LTEuMTIsMy4yOS0yLjkxLDMuOTUtNC45N2MwLjA5LDAuMDEsMC4yNCwwLjA0LDAuMjksMC4wNSAgIGMwLjEtMC4wNywwLjItMC4xNiwwLjM5LTAuMTRjMC4zNiwwLjA1LDAuNzQsMC4xOSwxLjE5LDAuMzVjMC4yMSwwLjA4LDAuMzgsMC4xOCwwLjYxLDAuMjRjMC4wNSwwLjAxLDAuMTIsMC4wMiwwLjE4LDAuMDQgICBjMCwwLDAuMDEsMCwwLjAyLDBsMCwwYzAuNDEsMC4wOSwwLjgtMC4xMywwLjg5LTAuNWMwLjA4LTAuMzYtMC4xOC0wLjczLTAuNTgtMC44M2MtMC4wNi0wLjAyLTAuMTQtMC4wNC0wLjItMC4wNSAgIGMtMC4yNC0wLjA0LTAuNDMtMC4wMy0wLjY2LTAuMDVjLTAuNDgtMC4wNS0wLjg3LTAuMDktMS4yMy0wLjJjLTAuMTQtMC4wNi0wLjI0LTAuMjMtMC4yOS0wLjNsLTAuMjgtMC4wOCAgIGMwLjE1LTEuMDQsMC4xMS0yLjEyLTAuMTQtMy4yYy0wLjI1LTEuMDktMC42OS0yLjA4LTEuMjgtMi45NmMwLjA3LTAuMDcsMC4yLTAuMTksMC4yNC0wLjIyYzAuMDEtMC4xMywwLTAuMjUsMC4xMy0wLjM5ICAgYzAuMjctMC4yNSwwLjYxLTAuNDYsMS4wMi0wLjcyYzAuMTktMC4xMSwwLjM3LTAuMTgsMC41Ny0wLjMzYzAuMDQtMC4wMywwLjEtMC4wOCwwLjE1LTAuMTJjMC4zMy0wLjI2LDAuNC0wLjcxLDAuMTctMS4wMSAgIGMtMC4yNC0wLjI5LTAuNy0wLjMyLTEuMDMtMC4wNmMtMC4wNCwwLjA0LTAuMTEsMC4wOS0wLjE1LDAuMTJjLTAuMTgsMC4xNi0wLjMsMC4zMi0wLjQ1LDAuNDhjLTAuMzQsMC4zNC0wLjYyLDAuNjMtMC45MiwwLjg0ICAgYy0wLjE0LDAuMDctMC4zMywwLjA1LTAuNDIsMC4wNGwtMC4yNiwwLjE5Yy0xLjQ4LTEuNTYtMy41MS0yLjU1LTUuNjktMi43NWMwLTAuMDktMC4wMS0wLjI1LTAuMDEtMC4zICAgYy0wLjA5LTAuMDktMC4yLTAuMTYtMC4yMy0wLjM1Yy0wLjAzLTAuMzYsMC4wMy0wLjc2LDAuMDgtMS4yNGMwLjA0LTAuMjIsMC4wOS0wLjQxLDAuMS0wLjY1YzAtMC4wNiwwLTAuMTMsMC0wLjE5ICAgQzEyLjc1LDEwLjQ5LDEyLjQ0LDEwLjE1LDEyLjA2LDEwLjE1eiBNMTEuMiwxNS40NkwxMSwxOS4wNWgtMC4wMWwwLDBjLTAuMDIsMC4zMy0wLjI4LDAuNTgtMC42MSwwLjU4ICAgYy0wLjEzLDAtMC4yNS0wLjA0LTAuMzUtMC4xMWgtMC4wMWwtMi45NC0yLjA5bDAsMGMwLjktMC44OSwyLjA2LTEuNTUsMy4zOS0xLjg1QzEwLjcyLDE1LjUyLDEwLjk2LDE1LjQ4LDExLjIsMTUuNDZ6ICAgIE0xMi45MiwxNS40NmMxLjU2LDAuMTksMywwLjg5LDQuMSwxLjk3bC0yLjkyLDIuMDhsLTAuMDEtMC4wMWwwLDBjLTAuMjYsMC4xOS0wLjYzLDAuMTQtMC44My0wLjExYy0wLjA5LTAuMS0wLjEzLTAuMjItMC4xMy0wLjM1ICAgTDEyLjkyLDE1LjQ2eiBNNi4wMSwxOC43N2wyLjY5LDIuNDFMOC42OSwyMS4ybDAsMGMwLjI1LDAuMjEsMC4yOCwwLjU3LDAuMDgsMC44MmMtMC4wOCwwLjExLTAuMTksMC4xOC0wLjMxLDAuMjFsLTAuMDEsMC4wMSAgIGwtMy40NCwxbDAsMEM0LjgzLDIxLjYzLDUuMjEsMjAuMDgsNi4wMSwxOC43N3ogTTE4LjEsMTguNzhjMC40LDAuNjQsMC43LDEuMzcsMC44OCwyLjE1YzAuMTgsMC43NywwLjIyLDEuNTUsMC4xNSwyLjNsLTMuNDctMSAgIHYtMC4wMmwwLDBjLTAuMzEtMC4wOC0wLjUtMC40LTAuNDMtMC43MWMwLjAzLTAuMTMsMC4xLTAuMjQsMC4xOS0wLjMydi0wLjAxTDE4LjEsMTguNzh6IE0xMS41MSwyMS4zNmgxLjFsMC42OSwwLjg2bC0wLjI1LDEuMDcgICBsLTAuOTksMC40OGwtMC45OS0wLjQ4bC0wLjI1LTEuMDdMMTEuNTEsMjEuMzZ6IE0xNS4wNCwyNC4yOWMwLjA1LDAsMC4xLDAuMDEsMC4xNCwwLjAxaDAuMDFsMy41NiwwLjZsMCwwICAgYy0wLjUyLDEuNDYtMS41MiwyLjc0LTIuODUsMy41OGwtMS4zOS0zLjM0aDAuMDFsMCwwYy0wLjEzLTAuMywwLTAuNjQsMC4yOS0wLjc5QzE0Ljg5LDI0LjMyLDE0Ljk2LDI0LjMsMTUuMDQsMjQuMjl6IE05LjA1LDI0LjMxICAgYzAuMjcsMCwwLjUyLDAuMTksMC41OCwwLjQ3YzAuMDMsMC4xMywwLjAyLDAuMjYtMC4wMywwLjM3bDAuMDEsMC4wMWwtMS4zNywzLjMxbDAsMGMtMS4yOC0wLjgyLTIuMy0yLjA1LTIuODUtMy41NmwzLjU0LTAuNnYwLjAxICAgbDAsMEM4Ljk3LDI0LjMxLDkuMDEsMjQuMzEsOS4wNSwyNC4zMXogTTEyLjA0LDI1Ljc2YzAuMDktMC4wMSwwLjE5LDAuMDIsMC4yOCwwLjA2YzAuMTIsMC4wNiwwLjIxLDAuMTUsMC4yNywwLjI2aDAuMDFsMS43NSwzLjE1ICAgbDAsMGMtMC4yMywwLjA3LTAuNDYsMC4xNC0wLjcsMC4xOWMtMS4zMywwLjMtMi42NiwwLjIxLTMuODYtMC4ybDEuNzQtMy4xNGwwLDBsMCwwQzExLjYzLDI1Ljg4LDExLjgzLDI1Ljc3LDEyLjA0LDI1Ljc2eiIvPiYjeGE7PC9nPiYjeGE7PC9zdmc+;" vertex="1" parent="1">
          <mxGeometry x="981" y="231" width="35" height="34" as="geometry" />
        </mxCell>
        <mxCell id="bEVf-RL3vcpq9Qt6OURH-28" value="Postgres DB" style="shape=image;verticalLabelPosition=bottom;labelBackgroundColor=#ffffff;verticalAlign=top;aspect=fixed;imageAspect=0;image=data:image/svg+xml,PHN2ZyB4bWxuczpjYz0iaHR0cDovL2NyZWF0aXZlY29tbW9ucy5vcmcvbnMjIiB4bWxuczpkYz0iaHR0cDovL3B1cmwub3JnL2RjL2VsZW1lbnRzLzEuMS8iIHhtbG5zOmlua3NjYXBlPSJodHRwOi8vd3d3Lmlua3NjYXBlLm9yZy9uYW1lc3BhY2VzL2lua3NjYXBlIiB4bWxuczpyZGY9Imh0dHA6Ly93d3cudzMub3JnLzE5OTkvMDIvMjItcmRmLXN5bnRheC1ucyMiIHhtbG5zOnNvZGlwb2RpPSJodHRwOi8vc29kaXBvZGkuc291cmNlZm9yZ2UubmV0L0RURC9zb2RpcG9kaS0wLmR0ZCIgeG1sbnM6c3ZnPSJodHRwOi8vd3d3LnczLm9yZy8yMDAwL3N2ZyIgeG1sbnM9Imh0dHA6Ly93d3cudzMub3JnLzIwMDAvc3ZnIiB4bWxuczp4bGluaz0iaHR0cDovL3d3dy53My5vcmcvMTk5OS94bGluayIgdmVyc2lvbj0iMS4xIiBpZD0ic3ZnMjYxNTIxIiBpbmtzY2FwZTp2ZXJzaW9uPSIwLjkyLjMgKDI0MDU1NDYsIDIwMTgtMDMtMTEpIiBzb2RpcG9kaTpkb2NuYW1lPSJwb3N0Z3Jlc3FsX3NlcnZlci5zdmciIHg9IjBweCIgeT0iMHB4IiB2aWV3Qm94PSIwIDAgNDguNDEgNjkuNzYiIHN0eWxlPSJlbmFibGUtYmFja2dyb3VuZDpuZXcgMCAwIDQ4LjQxIDY5Ljc2OyIgeG1sOnNwYWNlPSJwcmVzZXJ2ZSI+JiN4YTs8c29kaXBvZGk6bmFtZWR2aWV3IGJvcmRlcmNvbG9yPSIjNjY2NjY2IiBib3JkZXJvcGFjaXR5PSIxIiBmaXQtbWFyZ2luLWJvdHRvbT0iMCIgZml0LW1hcmdpbi1sZWZ0PSIwIiBmaXQtbWFyZ2luLXJpZ2h0PSIwIiBmaXQtbWFyZ2luLXRvcD0iMCIgZ3JpZHRvbGVyYW5jZT0iMTAiIGd1aWRldG9sZXJhbmNlPSIxMCIgaWQ9Im5hbWVkdmlldzI2MTUyMyIgaW5rc2NhcGU6Y3VycmVudC1sYXllcj0ic3ZnMjYxNTIxIiBpbmtzY2FwZTpjeD0iMzIuMTkwODk3IiBpbmtzY2FwZTpjeT0iNDYuNTA4MzQ2IiBpbmtzY2FwZTpwYWdlb3BhY2l0eT0iMCIgaW5rc2NhcGU6cGFnZXNoYWRvdz0iMiIgaW5rc2NhcGU6d2luZG93LWhlaWdodD0iMTAxNyIgaW5rc2NhcGU6d2luZG93LW1heGltaXplZD0iMSIgaW5rc2NhcGU6d2luZG93LXdpZHRoPSIxOTIwIiBpbmtzY2FwZTp3aW5kb3cteD0iLTgiIGlua3NjYXBlOndpbmRvdy15PSItOCIgaW5rc2NhcGU6em9vbT0iOS4xMjUzNjg5IiBvYmplY3R0b2xlcmFuY2U9IjEwIiBwYWdlY29sb3I9IiNmZmZmZmYiIHNob3dncmlkPSJmYWxzZSI+JiN4YTsJPC9zb2RpcG9kaTpuYW1lZHZpZXc+JiN4YTs8ZyBpZD0iZzI2MTUxOSIgdHJhbnNmb3JtPSJ0cmFuc2xhdGUoLTAuNzUsLTAuNzUwMDM4NzgpIj4mI3hhOwk8dGl0bGUgaWQ9InRpdGxlMjYxMzM3Ij5QYWdlLTE8L3RpdGxlPiYjeGE7CTxnIGlkPSJncm91cDExMDcxLTEiIHRyYW5zZm9ybT0idHJhbnNsYXRlKDEuNSwtMS41KSI+JiN4YTsJCTx0aXRsZSBpZD0idGl0bGUyNjEzMzkiPlBvc3RncmVTUUwgU2VydmVyPC90aXRsZT4mI3hhOwkJPGcgaWQ9Imdyb3VwMTEwNzItMiI+JiN4YTsJCQk8dGl0bGUgaWQ9InRpdGxlMjYxMzQxIj5HZW5lcmljIFNlcnZpY2UuMTQ4MTY8L3RpdGxlPiYjeGE7CQkJPGcgaWQ9Imdyb3VwMTEwNzMtMyIgdHJhbnNmb3JtPSJ0cmFuc2xhdGUoMCwtMC4wMDczOTg3NikiPiYjeGE7CQkJCTx0aXRsZSBpZD0idGl0bGUyNjEzNDMiPmcxNTQzMy4xMTcyMTwvdGl0bGU+JiN4YTsJCQkJPGcgaWQ9InNoYXBlMTEwNzQtNCI+JiN4YTsJCQkJCTx0aXRsZSBpZD0idGl0bGUyNjEzNDUiPnJlY3QxNTQwNTwvdGl0bGU+JiN4YTsJCQkJCSYjeGE7CQkJCQkJPHJlY3QgaWQ9InJlY3QyNjEzNDciIHk9IjMuMDEiIHN0eWxlPSJmaWxsOiNGRkZGRkY7c3Ryb2tlOiM1NTZBOEE7c3Ryb2tlLXdpZHRoOjEuNTtzdHJva2UtbWl0ZXJsaW1pdDozOyIgd2lkdGg9IjM5Ljc1IiBoZWlnaHQ9IjY4LjI1Ii8+JiN4YTsJCQkJPC9nPiYjeGE7CQkJCTxnIGlkPSJncm91cDExMDc1LTYiIHRyYW5zZm9ybT0idHJhbnNsYXRlKDEuNSwtMC43NSkiPiYjeGE7CQkJCQk8dGl0bGUgaWQ9InRpdGxlMjYxMzUwIj5nMTU0MjU8L3RpdGxlPiYjeGE7CQkJCQk8ZyBpZD0ic2hhcGUxMTA3Ni03IiB0cmFuc2Zvcm09InRyYW5zbGF0ZSgxOCkiPiYjeGE7CQkJCQkJPHRpdGxlIGlkPSJ0aXRsZTI2MTM1MiI+cmVjdDE1NDA3PC90aXRsZT4mI3hhOwkJCQkJCTxyZWN0IGlkPSJyZWN0MjYxMzU0IiB5PSI0LjUxIiBzdHlsZT0iZmlsbDojRTVFNUU1OyIgd2lkdGg9IjE5LjUiIGhlaWdodD0iNjYuNzUiLz4mI3hhOwkJCQkJPC9nPiYjeGE7CQkJCQk8ZyBpZD0ic2hhcGUxMTA3Ny05IiB0cmFuc2Zvcm09InRyYW5zbGF0ZSgwLC00OCkiPiYjeGE7CQkJCQkJPHRpdGxlIGlkPSJ0aXRsZTI2MTM1NyI+cmVjdDE1NDA5PC90aXRsZT4mI3hhOwkJCQkJCTxyZWN0IGlkPSJyZWN0MjYxMzU5IiB5PSI2OS4wMSIgc3R5bGU9ImZpbGw6IzJCQzdGNDsiIHdpZHRoPSIxOCIgaGVpZ2h0PSIyLjI1Ii8+JiN4YTsJCQkJCTwvZz4mI3hhOwkJCQkJPGcgaWQ9InNoYXBlMTEwNzgtMTEiIHRyYW5zZm9ybT0idHJhbnNsYXRlKDAsLTU4LjUpIj4mI3hhOwkJCQkJCTx0aXRsZSBpZD0idGl0bGUyNjEzNjIiPnBvbHlnb24xNTQxMTwvdGl0bGU+JiN4YTsJCQkJCQk8cmVjdCBpZD0icmVjdDI2MTM2NCIgeT0iNjkuMDEiIHN0eWxlPSJmaWxsOm5vbmU7IiB3aWR0aD0iMjciIGhlaWdodD0iMi4yNSIvPiYjeGE7CQkJCQk8L2c+JiN4YTsJCQkJCTxnIGlkPSJzaGFwZTExMDc5LTEzIiB0cmFuc2Zvcm09InRyYW5zbGF0ZSgwLC01OC41KSI+JiN4YTsJCQkJCQk8dGl0bGUgaWQ9InRpdGxlMjYxMzY3Ij5wb2x5bGluZTE1NDEzPC90aXRsZT4mI3hhOwkJCQkJCTxyZWN0IGlkPSJyZWN0MjYxMzY5IiB5PSI2OS4wMSIgc3R5bGU9ImZpbGw6bm9uZTsiIHdpZHRoPSIyNyIgaGVpZ2h0PSIyLjI1Ii8+JiN4YTsJCQkJCTwvZz4mI3hhOwkJCQkJPGcgaWQ9InNoYXBlMTEwODAtMTUiIHRyYW5zZm9ybT0idHJhbnNsYXRlKDAsLTUzLjI1KSI+JiN4YTsJCQkJCQk8dGl0bGUgaWQ9InRpdGxlMjYxMzcyIj5yZWN0MTU0MTU8L3RpdGxlPiYjeGE7CQkJCQkJPHJlY3QgaWQ9InJlY3QyNjEzNzQiIHk9IjY5LjAxIiBzdHlsZT0iZmlsbDojMkJDN0Y0OyIgd2lkdGg9IjE4IiBoZWlnaHQ9IjIuMjUiLz4mI3hhOwkJCQkJPC9nPiYjeGE7CQkJCQk8ZyBpZD0ic2hhcGUxMTA4MS0xNyIgdHJhbnNmb3JtPSJ0cmFuc2xhdGUoMCwtNTguNSkiPiYjeGE7CQkJCQkJPHRpdGxlIGlkPSJ0aXRsZTI2MTM3NyI+cmVjdDE1NDE3PC90aXRsZT4mI3hhOwkJCQkJCTxyZWN0IGlkPSJyZWN0MjYxMzc5IiB5PSI2OS4wMSIgc3R5bGU9ImZpbGw6IzJCQzdGNDsiIHdpZHRoPSIxOCIgaGVpZ2h0PSIyLjI1Ii8+JiN4YTsJCQkJCTwvZz4mI3hhOwkJCQkJPGcgaWQ9InNoYXBlMTEwODItMTkiIHRyYW5zZm9ybT0idHJhbnNsYXRlKDE4LC00OCkiPiYjeGE7CQkJCQkJPHRpdGxlIGlkPSJ0aXRsZTI2MTM4MiI+cmVjdDE1NDE5PC90aXRsZT4mI3hhOwkJCQkJCTxyZWN0IGlkPSJyZWN0MjYxMzg0IiB5PSI2OS4wMSIgc3R5bGU9ImZpbGw6IzU1NkE4QTsiIHdpZHRoPSIxOS41IiBoZWlnaHQ9IjIuMjUiLz4mI3hhOwkJCQkJPC9nPiYjeGE7CQkJCQk8ZyBpZD0ic2hhcGUxMTA4My0yMSIgdHJhbnNmb3JtPSJ0cmFuc2xhdGUoMTgsLTUzLjI1KSI+JiN4YTsJCQkJCQk8dGl0bGUgaWQ9InRpdGxlMjYxMzg3Ij5yZWN0MTU0MjE8L3RpdGxlPiYjeGE7CQkJCQkJPHJlY3QgaWQ9InJlY3QyNjEzODkiIHk9IjY5LjAxIiBzdHlsZT0iZmlsbDojNTU2QThBOyIgd2lkdGg9IjE5LjUiIGhlaWdodD0iMi4yNSIvPiYjeGE7CQkJCQk8L2c+JiN4YTsJCQkJCTxnIGlkPSJzaGFwZTExMDg0LTIzIiB0cmFuc2Zvcm09InRyYW5zbGF0ZSgxOCwtNTguNSkiPiYjeGE7CQkJCQkJPHRpdGxlIGlkPSJ0aXRsZTI2MTM5MiI+cmVjdDE1NDIzPC90aXRsZT4mI3hhOwkJCQkJCTxyZWN0IGlkPSJyZWN0MjYxMzk0IiB5PSI2OS4wMSIgc3R5bGU9ImZpbGw6IzU1NkE4QTsiIHdpZHRoPSIxOS41IiBoZWlnaHQ9IjIuMjUiLz4mI3hhOwkJCQkJPC9nPiYjeGE7CQkJCTwvZz4mI3hhOwkJCQk8ZyBpZD0ic2hhcGUxMTA4NS0yNSIgdHJhbnNmb3JtPSJ0cmFuc2xhdGUoMC43NSwtNTkuMjUpIj4mI3hhOwkJCQkJPHRpdGxlIGlkPSJ0aXRsZTI2MTM5OCI+cmVjdDE1NDI3PC90aXRsZT4mI3hhOwkJCQkJPHJlY3QgaWQ9InJlY3QyNjE0MDAiIHk9IjY5LjAxIiBzdHlsZT0iZmlsbDojNTU2QThBOyIgd2lkdGg9IjIuMjUiIGhlaWdodD0iMi4yNSIvPiYjeGE7CQkJCTwvZz4mI3hhOwkJCQk8ZyBpZD0ic2hhcGUxMTA4Ni0yNyIgdHJhbnNmb3JtPSJ0cmFuc2xhdGUoMC43NSwtNTQpIj4mI3hhOwkJCQkJPHRpdGxlIGlkPSJ0aXRsZTI2MTQwMyI+cmVjdDE1NDI5PC90aXRsZT4mI3hhOwkJCQkJPHJlY3QgaWQ9InJlY3QyNjE0MDUiIHk9IjY5LjAxIiBzdHlsZT0iZmlsbDojNTU2QThBOyIgd2lkdGg9IjIuMjUiIGhlaWdodD0iMi4yNSIvPiYjeGE7CQkJCTwvZz4mI3hhOwkJCQk8ZyBpZD0ic2hhcGUxMTA4Ny0yOSIgdHJhbnNmb3JtPSJ0cmFuc2xhdGUoMC43NSwtNDguNzUpIj4mI3hhOwkJCQkJPHRpdGxlIGlkPSJ0aXRsZTI2MTQwOCI+cmVjdDE1NDMxPC90aXRsZT4mI3hhOwkJCQkJPHJlY3QgaWQ9InJlY3QyNjE0MTAiIHk9IjY5LjAxIiBzdHlsZT0iZmlsbDojNTU2QThBOyIgd2lkdGg9IjIuMjUiIGhlaWdodD0iMi4yNSIvPiYjeGE7CQkJCTwvZz4mI3hhOwkJCTwvZz4mI3hhOwkJCTxnIGlkPSJzaGFwZTExMDg4LTMxIiB0cmFuc2Zvcm09InRyYW5zbGF0ZSgxMy42OTgzKSI+JiN4YTsJCQkJPHRpdGxlIGlkPSJ0aXRsZTI2MTQxNCI+cG9seWdvbjE1NDM1LjExNzM3PC90aXRsZT4mI3hhOwkJCQkmI3hhOwkJCQkJPHBhdGggaWQ9InBhdGgyNjE0MTYiIGlua3NjYXBlOmNvbm5lY3Rvci1jdXJ2YXR1cmU9IjAiIHN0eWxlPSJmaWxsOiNGRkZGRkY7c3Ryb2tlOiM3ODk0NDA7c3Ryb2tlLXdpZHRoOjEuNTtzdHJva2UtbWl0ZXJsaW1pdDozOyIgZD0iICAgICAgTTguMjcsNzEuMjZMMCw1Ny4wMmw4LjI3LTE0LjIzaDE2LjU1bDguMjcsMTQuMjNsLTguMjcsMTQuMjRIOC4yN3oiLz4mI3hhOwkJCTwvZz4mI3hhOwkJPC9nPiYjeGE7CQk8ZyBpZD0iZ3JvdXAxMTA4OS0zMyIgdHJhbnNmb3JtPSJ0cmFuc2xhdGUoMjEuMjU5NCwtMi4wODYyMykiPiYjeGE7CQkJPHRpdGxlIGlkPSJ0aXRsZTI2MTQyMCI+UG9zdGdyZVNRTDwvdGl0bGU+JiN4YTsJCQk8ZyBpZD0iZ3JvdXAxMTA5MC0zNCI+JiN4YTsJCQkJPHRpdGxlIGlkPSJ0aXRsZTI2MTQyMiI+Q0hlY2ttYXJrXzI8L3RpdGxlPiYjeGE7CQkJCTxnIGlkPSJzaGFwZTExMDkxLTM1Ij4mI3hhOwkJCQkJPHRpdGxlIGlkPSJ0aXRsZTI2MTQyNCI+cGF0aDM2ODY8L3RpdGxlPiYjeGE7CQkJCQk8cGF0aCBpZD0icGF0aDI2MTQyNiIgaW5rc2NhcGU6Y29ubmVjdG9yLWN1cnZhdHVyZT0iMCIgc3R5bGU9ImZpbGw6IzM5OThDNTsiIGQ9Ik0wLDUwLjI3djE3Ljc0YzAsMS44Nyw0LjExLDMuMjUsOS4xNiwzLjI1ICAgICAgIFY1MC4yN0gweiIvPiYjeGE7CQkJCTwvZz4mI3hhOwkJCQk8ZyBpZD0ic2hhcGUxMTA5Mi0zNyIgdHJhbnNmb3JtPSJ0cmFuc2xhdGUoOS4xNTc0OCkiPiYjeGE7CQkJCQk8dGl0bGUgaWQ9InRpdGxlMjYxNDI5Ij5wYXRoMzY4ODwvdGl0bGU+JiN4YTsJCQkJCTxwYXRoIGlkPSJwYXRoMjYxNDMxIiBpbmtzY2FwZTpjb25uZWN0b3ItY3VydmF0dXJlPSIwIiBzdHlsZT0iZmlsbDojNTlCM0Q4OyIgZD0iTTAsNzEuMjZoMC4wNWM1LjAxLDAsOS4xMS0xLjQ3LDkuMTEtMy4zMyAgICAgICBWNTAuMjdIMFY3MS4yNnoiLz4mI3hhOwkJCQk8L2c+JiN4YTsJCQkJPGcgaWQ9InNoYXBlMTEwOTMtMzkiIHRyYW5zZm9ybT0idHJhbnNsYXRlKDAsLTE3LjUyNTEpIj4mI3hhOwkJCQkJPHRpdGxlIGlkPSJ0aXRsZTI2MTQzNCI+cGF0aDM2OTA8L3RpdGxlPiYjeGE7CQkJCQk8cGF0aCBpZD0icGF0aDI2MTQzNiIgaW5rc2NhcGU6Y29ubmVjdG9yLWN1cnZhdHVyZT0iMCIgc3R5bGU9ImZpbGw6I0ZGRkZGRjsiIGQ9Ik0xOC40Myw2Ny45MmMwLDEuODEtNC4xMywzLjM0LTkuMTksMy4zNCAgICAgICBDNC4xOCw3MS4yNiwwLDY5LjczLDAsNjcuOTJjMC0xLjgxLDQuMTMtMy4zNCw5LjE5LTMuMzRTMTguNDMsNjYuMTEsMTguNDMsNjcuOTJ6Ii8+JiN4YTsJCQkJPC9nPiYjeGE7CQkJCTxnIGlkPSJzaGFwZTExMDk0LTQxIiB0cmFuc2Zvcm09InRyYW5zbGF0ZSgxLjg2NTg0LC0xOC44NDkxKSI+JiN4YTsJCQkJCTx0aXRsZSBpZD0idGl0bGUyNjE0MzkiPnBhdGgzNjkyPC90aXRsZT4mI3hhOwkJCQkJPHBhdGggaWQ9InBhdGgyNjE0NDEiIGlua3NjYXBlOmNvbm5lY3Rvci1jdXJ2YXR1cmU9IjAiIHN0eWxlPSJmaWxsOiM3RkI5MDA7IiBkPSJNMTQuNjksNjkuMDVjMCwxLjIzLTMuMjksMi4yMS03LjMyLDIuMjEgICAgICAgUzAsNzAuMjksMCw2OS4wNWMwLTEuMjUsMy4yOS0yLjIxLDcuMzItMi4yMVMxNC42OSw2Ny44MiwxNC42OSw2OS4wNXoiLz4mI3hhOwkJCQk8L2c+JiN4YTsJCQkJPGcgaWQ9InNoYXBlMTEwOTUtNDMiIHRyYW5zZm9ybT0idHJhbnNsYXRlKDEuODY1ODQsLTE5LjczMDYpIj4mI3hhOwkJCQkJPHRpdGxlIGlkPSJ0aXRsZTI2MTQ0NCI+cGF0aDM2OTQ8L3RpdGxlPiYjeGE7CQkJCQk8cGF0aCBpZD0icGF0aDI2MTQ0NiIgaW5rc2NhcGU6Y29ubmVjdG9yLWN1cnZhdHVyZT0iMCIgc3R5bGU9ImZpbGw6I0I3RDMzMjsiIGQ9Ik0xMy4xMiw3MS4yNmMwLjk5LTAuMzgsMS41My0wLjg0LDEuNTMtMS4zMyAgICAgICBjMC0xLjIzLTMuMjktMi4yMS03LjMyLTIuMjFTMCw2OC43LDAsNjkuOTNjMCwwLjQ5LDAuNTksMC45OCwxLjUzLDEuMzNjMS4zMi0wLjU0LDMuNDMtMC44NCw1LjgtMC44NCAgICAgICBjMS45Ny0wLjA0LDMuOTMsMC4yNCw1LjgsMC44NEgxMy4xMnoiLz4mI3hhOwkJCQkJPHBhdGggaWQ9InBhdGgyNjE0NDgiIGlua3NjYXBlOmNvbm5lY3Rvci1jdXJ2YXR1cmU9IjAiIHN0eWxlPSJmaWxsOm5vbmU7IiBkPSJNMTMuMTIsNzEuMjZjMC45OS0wLjM4LDEuNTMtMC44NCwxLjUzLTEuMzMgICAgICAgYzAtMS4yMy0zLjI5LTIuMjEtNy4zMi0yLjIxUzAsNjguNywwLDY5LjkzYzAsMC40OSwwLjU5LDAuOTgsMS41MywxLjMzYzEuMzItMC41NCwzLjQzLTAuODQsNS44LTAuODQgICAgICAgYzEuOTctMC4wNCwzLjkzLDAuMjQsNS44LDAuODQiLz4mI3hhOwkJCQk8L2c+JiN4YTsJCQkJPGcgaWQ9Imdyb3VwMTEwOTYtNDYiIHRyYW5zZm9ybT0idHJhbnNsYXRlKDMuMDI5NiwtMi45ODc2MykiPiYjeGE7CQkJCQk8dGl0bGUgaWQ9InRpdGxlMjYxNDUxIj5MYXllcl8zPC90aXRsZT4mI3hhOwkJCQkJPGcgaWQ9InNoYXBlMTEwOTctNDciIHRyYW5zZm9ybT0idHJhbnNsYXRlKDAuMDIyODkzNykiPiYjeGE7CQkJCQkJPHRpdGxlIGlkPSJ0aXRsZTI2MTQ1MyI+cGF0aDM2OTY8L3RpdGxlPiYjeGE7CQkJCQkJPHBhdGggaWQ9InBhdGgyNjE0NTUiIGlua3NjYXBlOmNvbm5lY3Rvci1jdXJ2YXR1cmU9IjAiIHN0eWxlPSJmaWxsOiMzMzY3OTA7IiBkPSJNMTEuMzQsNjYuNTZjLTEuNDcsMC4zLTEuNTctMC4xOS0xLjU3LTAuMTkgICAgICAgIGMxLjUzLTIuMjksMi4xOS01LjIsMS42My01LjkxYy0xLjUyLTEuOTUtNC4xNS0xLjAzLTQuMTktMWMtMC4zMi0wLjA3LTAuNjUtMC4xLTAuOTgtMC4xMWMtMC41NS0wLjAyLTEuMDksMC4xNC0xLjUzLDAuNDYgICAgICAgIGMwLDAtNC43LTEuOTItNC40OSwyLjQ0YzAuMDQsMC45MywxLjMyLDcuMDIsMi44NCw1LjE4YzAuNTYtMC42NywxLjEtMS4yNCwxLjEtMS4yNGMwLjI3LDAuMTksMC42LDAuMjcsMC45MywwLjI0bDAuMDMtMC4wMyAgICAgICAgYy0wLjAxLDAuMDktMC4wMSwwLjE4LDAsMC4yN2MtMC4zOSwwLjQ0LTAuMjgsMC41Mi0xLjA3LDAuNjhjLTAuNzksMC4xNi0wLjMzLDAuNDUtMC4wMywwLjUzYzAuNjcsMC4yMiwxLjQtMC4wMiwxLjgxLTAuNTkgICAgICAgIEw1LjgsNjcuMzhjMC4xNiwwLjEzLDAuMjYsMC44MSwwLjI0LDEuNDNjLTAuMDUsMC40Ni0wLjAxLDAuOTIsMC4xLDEuMzdjMC4xMiwwLjMzLDAuMjQsMS4wOCwxLjI4LDAuODYgICAgICAgIGMwLjg2LTAuMTksMS4zMS0wLjY3LDEuMzctMS40N2MwLjA1LTAuNTcsMC4xNS0wLjQ5LDAuMTYtMWwwLjA4LTAuMjRjMC4wOS0wLjc2LDAtMS4wMiwwLjU1LTAuOTFoMC4xMyAgICAgICAgYzAuNDEsMC4wMiwwLjgzLTAuMDUsMS4yMS0wLjJjMC42NS0wLjMsMS4wMy0wLjgsMC4zOC0wLjY3TDExLjM0LDY2LjU2eiIvPiYjeGE7CQkJCQk8L2c+JiN4YTsJCQkJCTxnIGlkPSJzaGFwZTExMDk4LTQ5IiB0cmFuc2Zvcm09InRyYW5zbGF0ZSg1Ljg5NTEzLC0wLjE5ODQxMikiPiYjeGE7CQkJCQkJPHRpdGxlIGlkPSJ0aXRsZTI2MTQ1OCI+cGF0aDM2OTg8L3RpdGxlPiYjeGE7CQkJCQkJPHBhdGggaWQ9InBhdGgyNjE0NjAiIGlua3NjYXBlOmNvbm5lY3Rvci1jdXJ2YXR1cmU9IjAiIHN0eWxlPSJmaWxsOm5vbmU7IiBkPSJNMC4wNCw2Ny4yYy0wLjA0LDEuNDQsMCwyLjg5LDAuMTUsMy4yNCAgICAgICAgYzAuMTQsMC42MiwwLjc2LDEsMS4zOCwwLjg1YzAuMDQtMC4wMSwwLjA4LTAuMDIsMC4xMS0wLjAzYzAuODYtMC4xOSwxLjE4LTAuNTUsMS4zMi0xLjM0YzAuMDktMC41OSwwLjI5LTIuMjEsMC4zMi0yLjU0ICAgICAgICBMMC4wNCw2Ny4yeiIvPiYjeGE7CQkJCQkJJiN4YTsJCQkJCQkJPHBhdGggaWQ9InBhdGgyNjE0NjIiIGlua3NjYXBlOmNvbm5lY3Rvci1jdXJ2YXR1cmU9IjAiIHN0eWxlPSJmaWxsOm5vbmU7c3Ryb2tlOiNGRkZGRkY7c3Ryb2tlLXdpZHRoOjAuNzY1O3N0cm9rZS1saW5lY2FwOnJvdW5kO3N0cm9rZS1saW5lam9pbjpyb3VuZDtzdHJva2UtbWl0ZXJsaW1pdDozOyIgZD0iICAgICAgICBNMC4wNCw2Ny4yYy0wLjA0LDEuNDQsMCwyLjg5LDAuMTUsMy4yNGMwLjE0LDAuNjIsMC43NiwxLDEuMzgsMC44NWMwLjA0LTAuMDEsMC4wOC0wLjAyLDAuMTEtMC4wMyAgICAgICAgYzAuODYtMC4xOSwxLjE4LTAuNTUsMS4zMi0xLjM0YzAuMDktMC41OSwwLjI5LTIuMjEsMC4zMi0yLjU0Ii8+JiN4YTsJCQkJCTwvZz4mI3hhOwkJCQkJPGcgaWQ9InNoYXBlMTEwOTktNTIiIHRyYW5zZm9ybT0idHJhbnNsYXRlKDAsLTEuOTk5MzgpIj4mI3hhOwkJCQkJCTx0aXRsZSBpZD0idGl0bGUyNjE0NjUiPnBhdGgzNzAwPC90aXRsZT4mI3hhOwkJCQkJCTxwYXRoIGlkPSJwYXRoMjYxNDY3IiBpbmtzY2FwZTpjb25uZWN0b3ItY3VydmF0dXJlPSIwIiBzdHlsZT0iZmlsbDpub25lOyIgZD0iTTQuNyw2MS43N2MwLDAtNC43LTEuOTEtNC40OCwyLjQ1ICAgICAgICBjMC4wNCwwLjk0LDEuMzMsNy4wNCwyLjg2LDUuMThjMC41Ni0wLjY3LDEuMDYtMS4yLDEuMDYtMS4yTDQuNyw2MS43N3oiLz4mI3hhOwkJCQkJCSYjeGE7CQkJCQkJCTxwYXRoIGlkPSJwYXRoMjYxNDY5IiBpbmtzY2FwZTpjb25uZWN0b3ItY3VydmF0dXJlPSIwIiBzdHlsZT0iZmlsbDpub25lO3N0cm9rZTojRkZGRkZGO3N0cm9rZS13aWR0aDowLjc2NTtzdHJva2UtbGluZWNhcDpyb3VuZDtzdHJva2UtbGluZWpvaW46cm91bmQ7c3Ryb2tlLW1pdGVybGltaXQ6MzsiIGQ9IiAgICAgICAgTTQuNyw2MS43N2MwLDAtNC43LTEuOTEtNC40OCwyLjQ1YzAuMDQsMC45NCwxLjMzLDcuMDQsMi44Niw1LjE4YzAuNTYtMC42NywxLjA2LTEuMiwxLjA2LTEuMiIvPiYjeGE7CQkJCQk8L2c+JiN4YTsJCQkJCTxnIGlkPSJzaGFwZTExMTAwLTU1IiB0cmFuc2Zvcm09InRyYW5zbGF0ZSg3LjA2NjUyLC00LjkxMDcpIj4mI3hhOwkJCQkJCTx0aXRsZSBpZD0idGl0bGUyNjE0NzIiPnBhdGgzNzAyPC90aXRsZT4mI3hhOwkJCQkJCTxwYXRoIGlkPSJwYXRoMjYxNDc0IiBpbmtzY2FwZTpjb25uZWN0b3ItY3VydmF0dXJlPSIwIiBzdHlsZT0iZmlsbDpub25lOyIgZD0iTTAuMTYsNjQuMzVjLTAuMTYsMC4wNSwyLjYxLTEuMDIsNC4yLDEgICAgICAgIGMwLjU2LDAuNzEtMC4wOSwzLjYyLTEuNjMsNS45MUwwLjE2LDY0LjM1eiIvPiYjeGE7CQkJCQkJJiN4YTsJCQkJCQkJPHBhdGggaWQ9InBhdGgyNjE0NzYiIGlua3NjYXBlOmNvbm5lY3Rvci1jdXJ2YXR1cmU9IjAiIHN0eWxlPSJmaWxsOm5vbmU7c3Ryb2tlOiNGRkZGRkY7c3Ryb2tlLXdpZHRoOjAuNzY1O3N0cm9rZS1saW5lY2FwOnJvdW5kO3N0cm9rZS1saW5lam9pbjpyb3VuZDtzdHJva2UtbWl0ZXJsaW1pdDozOyIgZD0iICAgICAgICBNMC4xNiw2NC4zNWMtMC4xNiwwLjA1LDIuNjEtMS4wMiw0LjIsMWMwLjU2LDAuNzEtMC4wOSwzLjYyLTEuNjMsNS45MSIvPiYjeGE7CQkJCQk8L2c+JiN4YTsJCQkJCTxnIGlkPSJzaGFwZTExMTAxLTU4IiB0cmFuc2Zvcm09InRyYW5zbGF0ZSgzLjQxODc5LC0zLjczNTQ5KSI+JiN4YTsJCQkJCQk8dGl0bGUgaWQ9InRpdGxlMjYxNDc5Ij5wYXRoMzcwNDwvdGl0bGU+JiN4YTsJCQkJCQk8cGF0aCBpZD0icGF0aDI2MTQ4MSIgaW5rc2NhcGU6Y29ubmVjdG9yLWN1cnZhdHVyZT0iMCIgc3R5bGU9ImZpbGw6bm9uZTsiIGQ9Ik02LjM3LDcwLjA4YzAsMCwwLjEsMC41LDEuNTYsMC4yICAgICAgICBjMC42NC0wLjEzLDAuMjYsMC4zOC0wLjM4LDAuNjdjLTAuNTMsMC4yNS0xLjczLDAuMzEtMS43NS0wLjAzYy0wLjA1LTAuODgsMC42My0wLjYyLDAuNTgtMC44NCAgICAgICAgYy0wLjA1LTAuMjItMC4zNC0wLjM4LTAuNTUtMC44OGMtMC4xNy0wLjQyLTIuNC0zLjY5LDAuNjItMy4yYzAuMTEtMC4wMi0wLjc5LTIuODgtMy42Mi0yLjkyQzAsNjMuMDMsMC4wOCw2Ni41NiwwLjA4LDY2LjU2ICAgICAgICBMNi4zNyw3MC4wOHoiLz4mI3hhOwkJCQkJCSYjeGE7CQkJCQkJCTxwYXRoIGlkPSJwYXRoMjYxNDgzIiBpbmtzY2FwZTpjb25uZWN0b3ItY3VydmF0dXJlPSIwIiBzdHlsZT0iZmlsbDpub25lO3N0cm9rZTojRkZGRkZGO3N0cm9rZS13aWR0aDowLjc2NTtzdHJva2UtbGluZWNhcDpyb3VuZDtzdHJva2UtbGluZWpvaW46cm91bmQ7c3Ryb2tlLW1pdGVybGltaXQ6MzsiIGQ9IiAgICAgICAgTTYuMzcsNzAuMDhjMCwwLDAuMSwwLjUsMS41NiwwLjJjMC42NC0wLjEzLDAuMjYsMC4zOC0wLjM4LDAuNjdjLTAuNTMsMC4yNS0xLjczLDAuMzEtMS43NS0wLjAzICAgICAgICBjLTAuMDUtMC44OCwwLjYzLTAuNjIsMC41OC0wLjg0Yy0wLjA1LTAuMjItMC4zNC0wLjM4LTAuNTUtMC44OGMtMC4xNy0wLjQyLTIuNC0zLjY5LDAuNjItMy4yYzAuMTEtMC4wMi0wLjc5LTIuODgtMy42Mi0yLjkyICAgICAgICBDMCw2My4wMywwLjA4LDY2LjU2LDAuMDgsNjYuNTYiLz4mI3hhOwkJCQkJPC9nPiYjeGE7CQkJCQk8ZyBpZD0ic2hhcGUxMTEwMi02MSIgdHJhbnNmb3JtPSJ0cmFuc2xhdGUoMy4yODkwNiwtMy40MDM1MykiPiYjeGE7CQkJCQkJPHRpdGxlIGlkPSJ0aXRsZTI2MTQ4NiI+cGF0aDM3MDY8L3RpdGxlPiYjeGE7CQkJCQkJJiN4YTsJCQkJCQkJPHBhdGggaWQ9InBhdGgyNjE0ODgiIGlua3NjYXBlOmNvbm5lY3Rvci1jdXJ2YXR1cmU9IjAiIHN0eWxlPSJmaWxsOm5vbmU7c3Ryb2tlOiNGRkZGRkY7c3Ryb2tlLXdpZHRoOjAuNzY1O3N0cm9rZS1saW5lY2FwOnJvdW5kO3N0cm9rZS1saW5lam9pbjpyb3VuZDtzdHJva2UtbWl0ZXJsaW1pdDozOyIgZD0iICAgICAgICBNMS44Niw3MC4wNGMtMC4zOCwwLjQ1LTAuMjgsMC41Mi0xLjA3LDAuNjhDMCw3MC44OCwwLjQ2LDcxLjE4LDAuNzcsNzEuMjZjMC42NywwLjIyLDEuNC0wLjAyLDEuODEtMC41OSAgICAgICAgYzAuMTQtMC4yNiwwLjA0LTAuNTktMC4yMi0wLjczYzAsMCwwLDAsMCwwbC0wLjAyLDBjLTAuMTYtMC4wOS0wLjM3LTAuMDQtMC40OCwwLjExTDEuODYsNzAuMDR6Ii8+JiN4YTsJCQkJCTwvZz4mI3hhOwkJCQkJPGcgaWQ9InNoYXBlMTExMDMtNjMiIHRyYW5zZm9ybT0idHJhbnNsYXRlKDMuNDU2OTUsLTQuNjE2OSkiPiYjeGE7CQkJCQkJPHRpdGxlIGlkPSJ0aXRsZTI2MTQ5MSI+cGF0aDM3MDg8L3RpdGxlPiYjeGE7CQkJCQkJPHBhdGggaWQ9InBhdGgyNjE0OTMiIGlua3NjYXBlOmNvbm5lY3Rvci1jdXJ2YXR1cmU9IjAiIHN0eWxlPSJmaWxsOm5vbmU7IiBkPSJNMS42Niw3MS4yNmMwLTAuMzIsMC4wOC0wLjY0LDAuMjItMC45MyAgICAgICAgYzAuMi0wLjU0LDAuNjctMS4wOCwwLjI5LTIuOGMtMC4yNy0xLjI4LTIuMTMtMC4yNy0yLjEzLTAuMDljMC4wNCwwLjU3LDAuMDMsMS4xNC0wLjA0LDEuN2MtMC4xNiwwLjg3LDAuNDIsMS43MSwxLjI5LDEuODcgICAgICAgIGMwLjEyLDAuMDIsMC4yMywwLjAzLDAuMzUsMC4wMkwxLjY2LDcxLjI2eiIvPiYjeGE7CQkJCQkJJiN4YTsJCQkJCQkJPHBhdGggaWQ9InBhdGgyNjE0OTUiIGlua3NjYXBlOmNvbm5lY3Rvci1jdXJ2YXR1cmU9IjAiIHN0eWxlPSJmaWxsOm5vbmU7c3Ryb2tlOiNGRkZGRkY7c3Ryb2tlLXdpZHRoOjAuNzY1O3N0cm9rZS1saW5lY2FwOnJvdW5kO3N0cm9rZS1saW5lam9pbjpyb3VuZDtzdHJva2UtbWl0ZXJsaW1pdDozOyIgZD0iICAgICAgICBNMS42Niw3MS4yNmMwLTAuMzIsMC4wOC0wLjY0LDAuMjItMC45M2MwLjItMC41NCwwLjY3LTEuMDgsMC4yOS0yLjhjLTAuMjctMS4yOC0yLjEzLTAuMjctMi4xMy0wLjA5ICAgICAgICBjMC4wNCwwLjU3LDAuMDMsMS4xNC0wLjA0LDEuN2MtMC4xNiwwLjg3LDAuNDIsMS43MSwxLjI5LDEuODdjMC4xMiwwLjAyLDAuMjMsMC4wMywwLjM1LDAuMDIiLz4mI3hhOwkJCQkJPC9nPiYjeGE7CQkJCQk8ZyBpZD0ic2hhcGUxMTEwNC02NiIgdHJhbnNmb3JtPSJ0cmFuc2xhdGUoNC42Nzc5NSwtOC4yMjI2NSkiPiYjeGE7CQkJCQkJPHRpdGxlIGlkPSJ0aXRsZTI2MTQ5OCI+cGF0aDM3MTA8L3RpdGxlPiYjeGE7CQkJCQkJJiN4YTsJCQkJCQkJPHBhdGggaWQ9InBhdGgyNjE1MDAiIGlua3NjYXBlOmNvbm5lY3Rvci1jdXJ2YXR1cmU9IjAiIHN0eWxlPSJmaWxsOiNGRkZGRkY7c3Ryb2tlOiNGRkZGRkY7c3Ryb2tlLXdpZHRoOjAuNDEyNTtzdHJva2UtbGluZWNhcDpzcXVhcmU7c3Ryb2tlLW1pdGVybGltaXQ6MzsiIGQ9IiAgICAgICAgTTAsNzEuMDJjMCwwLjA2LDAuMTEsMC4yMSwwLjI2LDAuMjRjMC4xMiwwLjAxLDAuMjQtMC4wNSwwLjI5LTAuMTZjMC0wLjA2LTAuMTEtMC4xMy0wLjI2LTAuMTUgICAgICAgIEMwLjE0LDcwLjkzLDAuMDEsNzAuOTUsMCw3MS4wMnoiLz4mI3hhOwkJCQkJPC9nPiYjeGE7CQkJCQk8ZyBpZD0ic2hhcGUxMTEwNS02OCIgdHJhbnNmb3JtPSJ0cmFuc2xhdGUoOC43NjQ0NywtOC4zNDQ3NSkiPiYjeGE7CQkJCQkJPHRpdGxlIGlkPSJ0aXRsZTI2MTUwMyI+cGF0aDM3MTI8L3RpdGxlPiYjeGE7CQkJCQkJJiN4YTsJCQkJCQkJPHBhdGggaWQ9InBhdGgyNjE1MDUiIGlua3NjYXBlOmNvbm5lY3Rvci1jdXJ2YXR1cmU9IjAiIHN0eWxlPSJmaWxsOiNGRkZGRkY7c3Ryb2tlOiNGRkZGRkY7c3Ryb2tlLXdpZHRoOjAuMjE7c3Ryb2tlLWxpbmVjYXA6c3F1YXJlO3N0cm9rZS1taXRlcmxpbWl0OjM7IiBkPSIgICAgICAgIE0wLjU1LDcxLjAyYzAsMC4wNi0wLjExLDAuMjEtMC4yNiwwLjI0QzAuMTcsNzEuMjcsMC4wNSw3MS4yMSwwLDcxLjFjMC0wLjA2LDAuMTEtMC4xMywwLjI2LTAuMTUgICAgICAgIEMwLjQxLDcwLjkzLDAuNTQsNzAuOTUsMC41NSw3MS4wMnoiLz4mI3hhOwkJCQkJPC9nPiYjeGE7CQkJCQk8ZyBpZD0ic2hhcGUxMTEwNi03MCIgdHJhbnNmb3JtPSJ0cmFuc2xhdGUoOS41MzE0MSwtNS4zNDk1KSI+JiN4YTsJCQkJCQk8dGl0bGUgaWQ9InRpdGxlMjYxNTA4Ij5wYXRoMzcxNDwvdGl0bGU+JiN4YTsJCQkJCQk8cGF0aCBpZD0icGF0aDI2MTUxMCIgaW5rc2NhcGU6Y29ubmVjdG9yLWN1cnZhdHVyZT0iMCIgc3R5bGU9ImZpbGw6bm9uZTsiIGQ9Ik0wLjMyLDY3LjYxYzAuMDMsMC40Ny0wLjA5LDAuNzctMC4xMSwxLjI4ICAgICAgICBDMC4xOSw2OS42MSwwLjU1LDcwLjQyLDAsNzEuMjZMMC4zMiw2Ny42MXoiLz4mI3hhOwkJCQkJCSYjeGE7CQkJCQkJCTxwYXRoIGlkPSJwYXRoMjYxNTEyIiBpbmtzY2FwZTpjb25uZWN0b3ItY3VydmF0dXJlPSIwIiBzdHlsZT0iZmlsbDpub25lO3N0cm9rZTojRkZGRkZGO3N0cm9rZS13aWR0aDowLjc2NTtzdHJva2UtbGluZWNhcDpyb3VuZDtzdHJva2UtbGluZWpvaW46cm91bmQ7c3Ryb2tlLW1pdGVybGltaXQ6MzsiIGQ9IiAgICAgICAgTTAuMzIsNjcuNjFjMC4wMywwLjQ3LTAuMDksMC43Ny0wLjExLDEuMjhDMC4xOSw2OS42MSwwLjU1LDcwLjQyLDAsNzEuMjYiLz4mI3hhOwkJCQkJPC9nPiYjeGE7CQkJCTwvZz4mI3hhOwkJCTwvZz4mI3hhOwkJPC9nPiYjeGE7CTwvZz4mI3hhOzwvZz4mI3hhOzwvc3ZnPg==;" vertex="1" parent="1">
          <mxGeometry x="394" y="440" width="48" height="70" as="geometry" />
        </mxCell>
        <mxCell id="bEVf-RL3vcpq9Qt6OURH-29" value="" style="outlineConnect=0;dashed=0;verticalLabelPosition=bottom;verticalAlign=top;align=center;html=1;shape=mxgraph.aws3.machine_learning;fillColor=#2E73B8;gradientColor=none;" vertex="1" parent="1">
          <mxGeometry x="1091" y="271" width="76.5" height="93" as="geometry" />
        </mxCell>
        <mxCell id="bEVf-RL3vcpq9Qt6OURH-31" value="" style="shape=image;html=1;verticalAlign=top;verticalLabelPosition=bottom;labelBackgroundColor=#ffffff;imageAspect=0;aspect=fixed;image=https://cdn4.iconfinder.com/data/icons/logos-and-brands/512/21_Angular_logo_logos-128.png" vertex="1" parent="1">
          <mxGeometry x="310" y="88" width="73" height="73" as="geometry" />
        </mxCell>
        <mxCell id="bEVf-RL3vcpq9Qt6OURH-33" value="" style="shape=image;verticalLabelPosition=bottom;labelBackgroundColor=#ffffff;verticalAlign=top;aspect=fixed;imageAspect=0;image=data:image/png,iVBORw0KGgoAAAANSUhEUgAAAOQAAADdCAMAAACc/C7aAAAAllBMVEX////gI07eAD3eADveADreAD/gHkvfGknfFUffE0bfBULeADj//f7fDkT++vv98/X3z9b75en87vHumKfzucP53eLysr3lVHDjQmPhLVX0wMnqfJDocIb41tzxrbnwpbLiOV364ebnY3zsjJ32y9LrhpjiNVrnZ3/pdYrlUW7mXHbvn63peY3siJr0vcbdAC7dADDcACDC/kpUAAAOF0lEQVR4nO1daXuquhaWRAKERlQccMQ61Knd+9z//+cugyiEAEFign32++m0T7cnyyRreNeQTucf/uEf+PHZ368c1Yt4LY4A6jqA3vU3y/kxJVoARICreimvxNTUImDvvpkfKtfzEvQ0FEtpoMHtVyuyG5T+m/fDHMRCaggP49+soGUff5mYHkqk3MS/2OuaZsLDr9JFI3wTUtP96BfXSBlZeKJ4YSLhJOdVQ7PoF8nWwu0v2sz7edXs8FYOYPKjac1Vr00YlsZdyHHw48LS7uguVC9OFL5vplIj2+Cnsa2lQDZD1csTg1PiD1zCn75QWkjN0Puq1ycEl1is7k/4w9HSKNh71QsUARTvWKRkjpiWMdCyY9UrbI5+aEKs6O4NPJKXMXDf39/92QbKFR/D/3JtgyFjIKXWU73Ihgi1Kf4O/mM1YxzVGOZF9SobIthIEu7j1UZFMmoa8FUvsxGGMHbMD7BYxFD5vPW19Enk57jlMmrGVPVCm2BrmIHrtrLLZQy28p3dWA3Bz05nVnIfY9wilPcEQF6nM9GrZAyCzTcOL3Xidjqbyo1s3Vb2nOHnqh9i9Tl0Kuz4LHDnBpU3MgRohQ872K93p/PMxDoEQA8BANSx8XVZXCergpDpGOjWSaEXkIaxlSsOjeHcPW66gUCWaeRPHjJMEgiunxfrfm5f138HnZ9c5MEEVMeGjNfLGdQJQ7icsCYB+nm3z6zVCYRMAsoKqGK25ksCeOR7wLB0uNntHzu6HHeObL88909VeLAf/gzwLY8CCgS9TG5yDue8O6np0oMRZ0dwnS2kBcX4exV/UGfHdyc1IJkJGf50WfFtLZhw5kf38w+XdtU0IjUWcXaA88svByJgGVg/h8tOBpdyKVHGK268i4+FA811ODVP6AFKQr84gn8KiMAN55/qsmQ8lEXwL4YtR70ON2K3sR7k8AP9JlajOYAMBnak8KhGQq5eL+OaU9W/s5C+ahklHFe/q1rG1yueifJ91LRuNqL8FC3jXP0+Bsc1u6aLYJpy34J9zLl10/+EKqJWyKiZlIM+Q7rAS7oH1SuQAHLNrKoHRSb1lNvHG6igeRx89YaowKQi4SQPFP0RlXKRbxEiDj2VLnkaiMpsLSJqCK6by7gGat3VFDAlzq2I1G7qBo3PHKkYWehmSfikPA3NGlUBD5bwKcrxNaBpVz/hYKwG1E9/a3PyoXJAJ3weqTA4ek7CwfXrOeL4ZaBTd+OUzsf1syTOfKEB0hp9cwOdhF2kjlm9ioLBfL3zbGy2TcL8RjoZ4w24c0GOG6anrPYJGAL+yS6WSvfpnAfWtVt3RB8wzmUbGfjuXBlaRynXWAmaE8glwiBHsn2A2qVLKWCqy6mfC+E56iYco9Uy0oeVVfdDfw95nFstIzIptbJgJZxgRbX6pB1BcREgxXKw+SaaN6DQa7XO0WyKrxoUbEm3lPHxWy2kTXmmvaJCPETf3Ax4qr6UgS6P/PAK9UeZGRm0gVItAMq1hXjFoVFZJpqv6ksJrBnlBDglMgYubDHbzFn1pQCQVpifWqmtK9nKZUuNpIXpYHiuV2iP4krKdnoChv1NE8eHSuVRvJXbFgppdo90zqo/4yisgUVFW1dxVTligIh9okV0lpDH0BUWGQ7bwpBHMDD0fDoEHu4gJ6kGi5KW13aQq2Htbxcd17lM1fgbcB82s7B39tIGS4mOP/48H0kMfI93FyOAwjzXshVhyGI0zpLhg/nPV11SBheXUrptyM6ZGODN5eD6k8na3S3PCOL6tBr6KhSyMwLtoMuRYVoEY0KsWlXfKZSV/jqnVhzZ5jBLM5bzNqgfAcBlKXaay3xX5FzeDIrD0bdCeWvFuh1OQWPYpTkDrc08CD/KW4FGv+NWVrQCbVtLEtRCeSvQx6YdLkFD6OWVhb3WVO00Qbk/0AlbIn6DIakQsrO6NG/DUg2OwS+f7iz8S9qeoMB5Nq0Apmmgdhsbrta1qRGOkbsLYlgYQGvmbU+Hw273czhtvRkJu3vberK5+p/DAWT45rCb0JruJv0hpZZ7w/76cNYBaaWghEPIYBN1fxV5edZ3aXJz7B91vX0VI4CjCH+DjHMceiFU/df9ndaSkPsOnibvjYGHcdFsl69iv78Aatu4KBSTdg+c/9sHQQmuU4H4sd60qBqPp5/UDeNOnwRWpE4t6f7SntLRUnoghXAeUM3Gi8CRaMmh5W3rmuBu/fruvteOyLucA3lg/7+npj1PrDbEa4Rz7b0nZ8P0Ti04s8bxucXzo68p38xktvEL0VsqJ1JA9SobY624/ZlusHgNxuWFGi+HlE72To854lMadEkjtY4qTaa0OUwLhYkyeXNtduqUrLWTJWTHVbaXPMGWKPyokrKSexWJb0VstdQxTJ2LGhdP8gC4LyW+D5Ir5FCJUyB7tu9eRf239AHGrgLlI38oo4K6YfmTUofyvVjzJFvIzlq6TyDT40lwlm1HrB/5QkrvsOGl64TiR7K1pIdoSEFPct4L/6lek3hI7u2TMciPAbl1BorepVhL3UpbiYxyt1LZlH+ZrUTK5t/3JLo9EnksCgt5ZkTdw44reQylnCwBE/JaxOVPv7/DL1A9wmUXOE3cWZ88TfOWa9402YB9XpHwHbYOokQ86NEMJmTiLm+E6jGlIUU7/DR46yKqMEqP7secKXq2qSTCmYOqaSecoPr0ynsx7hizzmtwgQTbFlRZuswnI7VaXpXN2sngAk3FMl2mkCv5h+637HI6/UvGngWhn2A3oaKdgA9OzkErr6L9HM1vXwIrFAkukGDNA0VYyQWdxLHKubEZ0OGXHxYjjvP+a1hyI3b+iBBieZhbqc7SZsOkxLIfXmCEjT+dzkdempByEtu7KYTfyR0udjLQTTTuNLaOKHxbOs9NdgOd1W9kQ9B5mvlUIMKA5Fh/tu31bhq3f9fE+rFzoFVMVCC2ahSFmYvMW0f0SN+n8JEzdjqLNXL+3kppUs2nwJ/QpyCaic24qjVA/FH6uAsJs/IrYj6Lvbbjq5GZpUZyQkZnq9lO6vvMkoQ8ELPPXSDMsktf8VyD7Cw140jdybhmc9XoTgIn3Y8tJtUzyqlC1uf2QczUb7OXcEb903gQW/57q4GQtEqdj8JxNQ2FZNW1X4yIZ6mYnnKb1s74SH6E1SwPv1BQpSvjRbP8+L8VjA1gxbyN2xi2RpxsqNsfY0IFJUFYRg1cqT8KzEygN6vKBZKx+24Tt84epD8AN5oYfgczvofZVNkoUHdkNKqam5KMRuR9uJCFiEe+HwUiiotkni19m7qXvXA8CapsnzCTWLtJjjZKt86T/1VX1HujF+aSTPK4DcvIA6lc+d3/anJaozluiaGtiBRqoIjvx9Yu9uQmfASrntSk5j3+GiDhJfy8fYIg3qNTQGJEsCCaLnY7vo15DOBtYiZjxX6bZiayHKLsGXDD5G3xeXzrTZRrzAL0YjXOSTVxoZHGv8v4CF3Yl5wPcQPIR3RchanWELxvf5Yh9WYLI5LmRlK8G33tRGhy4Lsx8WSmiPx+A72TDGQOr4gutuKjgO/nR+YdJd7nfVmfkww3s8oHnT2FQ7NbiXCawizTYxW4d0YEQtqinzj+aFQAgPR0i3yxRapG8vJCcK0rZoQ/gyaPpqEsXdLgtN7tYqBdn3gapRKHp1UiItmcQoMzYScnomfzvxlSB9MnN8DQsimF+fPuzqPGY2i/phz7w3tKSuJRx+rCn+yxFtm/fQyxH/99Vb/k+YkTC2k6aMx/ua2fXcY+pwjW/euKIt26PgGCuZvD+aZ4CExlqlOvEbyqkm48OUxr6gzdy4/h5d/IQLVkjM2rGwZ6o6MO6r7aZOaIoE6dGxlEZll2qfErdxXoo9qzBFD3yNANfX5HAA6y0Y/1+r66tVFrNo0BPKbTxV/cEtIImUwT7zNTjeBrOu9RM+CZneD2uW1k2JbUS287Zpz9V2Dk2RwjshCxlwWuc43SltBpS7MkwkOOYgx8D+AyORGBX9dCO81f9BG9cZPObdadotMMzmhpst//Mywdem6JCuQ/rDiqWUlxnER+A8/K9bpQx8Q0jQgmwToE5928VDfwm8iY10uFZIKqkWpjsJ+4h+Vlep5elgd3sq/0QXrcxZEIRV9WKiSTe1gb4MztE3bjI//4UrCy4uuaWHITKLeHtR51z8KeoH41DtxKB95onEdpGrNqqIWgR0kYhTKDW4/gg5y1JQ1oaYrsUBBEwHFVwKLriYd6r0zTVTQNPoEDSEvYDZ962bEDcHyn4JJqIPLyEV9i8BjUEzhEmhuSUXN2NPKQMVE7xkbdumvASUYuhc/13ByiAkZef1Cpt0LZm8lsO1bhy6zIDLZwOUq0ZMFLhODhuw1j7yjLvLcWrm0RHc6+/TSHzvYLuimTf4i9HY6J0eox+LK9hb+n7BzbL7BTBJwT32IxxVavxmDAqLJh+gUoM64sfnTwXQwkA8wRU9lHGaOad1T2Ok/LcWUVbYFsj+e3lcsSvRV8hozIzvI34SQGZHIMxG4pXIaMlkbt2cXQrK83ccoZYA226y4p5bSHGpY9QkggTnm9apEceamhrqhOQQXIPySIuqdclYqrA0GNggow3OTym/ombyU+/5u9r8pZmTTpSphDLmdSp+yJhU+P8jXhD6ueylXWS98c9IuXpn1ixhe997Uc41n2OlqALeI7w80kNxEmu/fdrwIMMqXpJpit1Q0+eBXc1JtWBsZFWb13Rv8LPySEl9Hv28TOcHm7jQYB+nb0FpxUTfR2XTPisIA+dX/hKQ1xxZBgYG9O69UvPKQhHBfPtgf/z6eYTqp2Yvgb71978H8U/vLa8guPqAAAAABJRU5ErkJggg==;" vertex="1" parent="1">
          <mxGeometry x="547" y="70" width="76" height="73.67" as="geometry" />
        </mxCell>
        <mxCell id="bEVf-RL3vcpq9Qt6OURH-34" value="" style="shape=image;verticalLabelPosition=bottom;labelBackgroundColor=#ffffff;verticalAlign=top;aspect=fixed;imageAspect=0;image=https://upload.wikimedia.org/wikipedia/commons/4/4f/NativeScript_logo.png;" vertex="1" parent="1">
          <mxGeometry x="243" y="60.75" width="55.44" height="55.44" as="geometry" />
        </mxCell>
        <mxCell id="bEVf-RL3vcpq9Qt6OURH-35" value="" style="shape=image;verticalLabelPosition=bottom;labelBackgroundColor=#ffffff;verticalAlign=top;aspect=fixed;imageAspect=0;image=https://grpc.io/img/logos/grpc-icon-color.png;" vertex="1" parent="1">
          <mxGeometry x="120" y="390" width="120" height="120" as="geometry" />
        </mxCell>
        <mxCell id="bEVf-RL3vcpq9Qt6OURH-36" value="" style="shape=image;verticalLabelPosition=bottom;labelBackgroundColor=#ffffff;verticalAlign=top;aspect=fixed;imageAspect=0;image=https://www.freecodecamp.org/news/content/images/size/w2000/2020/05/unnamed-1.png;" vertex="1" parent="1">
          <mxGeometry x="100" y="514.75" width="190" height="71.25" as="geometry" />
        </mxCell>
      </root>
    </mxGraphModel>
  </diagram>
</mxfile>
